<svg width="1126" height="1126" viewBox="0 0 1126 1126" fill="none" xmlns="http://www.w3.org/2000/svg">
<path d="M555.255 153.255C557.319 151.837 571.359 150.444 573.803 151.673C572.611 156.016 572.998 161.73 573.073 166.372C573.073 183.609 572.67 202.529 573.073 219.614C578.58 210.32 582.783 203.002 590.183 194.973C609.998 173.446 638.897 165.985 667.126 171.933L667.338 171.978C685.651 175.836 687.555 176.237 686.322 194.913C685.07 213.991 681.866 229.809 670.8 245.793C659.189 262.287 641.543 273.536 621.698 277.101C604.595 280.157 589.348 277.095 573.281 270.982C572.536 292.254 572.953 315.503 573.058 336.916C600.817 314.896 630.67 302.865 666.775 306.989C667.811 307.107 668.84 307.234 669.876 307.37C682.492 308.726 697.515 312.227 709.036 317.632C730.893 323.502 772.401 361.461 779.168 383.036C784.593 391.332 789.288 406.066 791.203 415.942C792.768 418.506 803.015 423.026 806.197 424.806C811.227 427.646 816.086 430.793 820.728 434.228C870.315 471.486 892.991 534.684 878.415 594.985C873.504 615.734 863.951 635.097 850.462 651.611C841.132 662.854 831.534 670.921 820.043 679.533C818.627 680.599 818.724 680.949 818.657 682.523L812.5 679.662C810.069 682.145 786 687.764 786 691C780 693 770.296 689.004 754 693C690.64 708.538 538.525 700.928 374 687.5C348.5 699.5 314.5 699 308.5 686.5V683L310.595 682.388C288.903 665.881 274.345 653.013 261.455 628.193C229.584 566.817 245.035 486.775 297.117 441.418C309.826 430.35 322.464 423.378 337.193 415.778C340.899 394.549 352.184 373.094 365.943 356.707C389.952 327.893 424.508 309.917 461.874 306.801C462.206 306.744 463.355 306.534 463.619 306.522C501.585 304.722 526.617 314.609 554.837 337.363C555.836 317.099 555.203 291.834 555.21 271.163C536.449 276.051 526.378 280.903 506.047 276.875C486.158 273.12 468.636 261.47 457.473 244.579C446.641 228.165 444.589 214.378 442.599 195.516C440.448 175.133 443.669 175.204 462.641 171.555C490.553 166.187 519.202 174.13 538.728 195.1C546.171 203.04 550.06 210.548 555.203 219.957C555.679 201.556 555.255 181.379 555.314 162.788L555.255 153.255Z" fill="#060D3C"/>
<path d="M366.061 357.024C352.32 373.385 341.049 394.804 337.349 415.999C322.639 423.586 310.018 430.547 297.326 441.597C245.312 486.879 229.881 566.791 261.71 628.066C274.583 652.846 289.122 665.693 310.785 682.173L309.21 684.607C347.643 705.62 362.444 679.784 376.828 683.84C381.675 685.21 384.07 690.763 386.141 694.887C388.337 699.256 411.714 720.768 416.367 724.318C431.506 735.878 464.971 742.369 483.566 739.54C490.995 738.409 499.618 736.913 506.497 733.913C519.297 728.33 544.307 708.858 552.089 697.73C556.627 691.239 555.258 684.994 553.836 677.647C553.332 664.212 553.606 649.369 553.591 635.83C527.189 663.765 493.968 677.841 459.611 653.984C442.756 639.693 457.045 623.28 471.982 636.038C499.228 662.522 546.641 624.739 552.678 596.297C554.938 585.638 553.475 547.573 553.464 534.623L553.449 385.569L553.418 368.089C539.252 349.465 527.141 341.018 505.452 332.655C495.666 322.173 459.114 328.537 455.369 325.93C455.04 325.088 453.687 321.899 453.06 321.61C446.544 318.609 437.576 317.972 431.2 315.109L431.523 314.437L431.386 315.143L432.068 314.339C437.963 314.003 441.064 311.295 445.583 310.535C454.299 309.069 464.699 307.937 473.463 307.79L461.866 307.2C424.549 310.311 390.038 328.258 366.061 357.024Z" fill="#8CF2C9"/>
<path d="M337.349 415.999C341.049 394.804 352.32 373.385 366.061 357.024C390.038 328.258 424.549 310.311 461.866 307.2L473.463 307.79C464.699 307.937 454.299 309.069 445.583 310.535C441.064 311.295 437.963 314.003 432.068 314.339L431.386 315.143L431.523 314.437L431.2 315.109C437.575 317.972 446.544 318.609 453.06 321.61C453.687 321.899 455.04 325.088 455.369 325.93C459.114 328.537 495.666 322.173 505.452 332.655C443.625 314.929 381.798 347.757 360.251 408.006C357.937 419.173 357.053 425.6 358.65 437.014L357.735 438.035C358.54 441.517 362.014 452.112 361.767 454.068C357.549 457.853 352.101 458.048 347.174 461.704C344.806 459.016 340.546 446.125 339.498 442.321L338.879 443.342C339.911 448.953 341.62 453.826 343.91 459.047C314.095 467.953 286.997 499.499 274.026 526.844L274.524 527.96C276.047 531.463 277.424 537.038 278.551 540.763C285.627 564.148 301.487 583.487 321.466 597.205C325.505 599.974 332.792 604.507 337.813 604.88C348.646 615.613 355.002 620.392 370.038 623.734C367.27 634.252 365.533 641.971 366.136 652.935C367.296 647.598 366.851 642.752 368.786 637.43C371.171 635.986 382.849 637.616 386.063 638.16C386.755 640.378 385.946 648.186 386.207 651.99L386.918 651.848C387.429 643.482 388.166 633.507 391.776 625.841C393.853 621.427 394.251 621.427 398.069 620.064C405.663 643.296 434.735 657.758 458.091 654.602C458.598 654.394 459.105 654.193 459.611 653.984C493.968 677.841 527.188 663.765 553.591 635.83C553.606 649.369 553.332 664.212 553.836 677.647C555.258 684.994 556.627 691.239 552.089 697.73C544.307 708.858 519.297 728.33 506.497 733.913C499.618 736.913 490.995 738.409 483.566 739.54C464.971 742.369 431.506 735.878 416.367 724.318C411.714 720.768 388.337 699.256 386.141 694.887C384.07 690.763 381.675 685.21 376.828 683.84C362.444 679.784 347.643 705.62 309.21 684.607C308.5 684.49 309.7 684.873 309.7 684.873C309.156 683.92 309.039 684.87 309 684.49C309 684.49 308 684 310.785 682.173C289.122 665.693 274.583 652.846 261.71 628.066C229.881 566.791 245.312 486.879 297.326 441.597C310.018 430.547 322.639 423.586 337.349 415.999Z" fill="#465322"/>
<path d="M387.2 651.831C387.708 643.505 388.441 633.579 392.032 625.948C394.097 621.556 394.493 621.556 398.289 620.2C405.842 643.32 434.754 657.713 457.981 654.572C458.485 654.365 458.989 654.165 459.494 653.957C493.661 677.7 526.699 663.691 552.956 635.89C552.97 649.365 552.698 664.136 553.2 677.507L552.831 678.3C551.84 679.226 552.139 678.848 551.448 679.818C541.215 694.175 533.277 703.338 517.525 711.546C496.331 722.591 470.952 723.902 448.342 716.791C426.456 709.761 408.101 694.589 397.062 674.41C393.444 667.803 391.109 660.765 388.426 655.817L387.878 654.824L387.2 651.831Z" fill="#61B99E"/>
<path d="M272.969 526.2L273.468 527.324C274.995 530.854 276.375 536.473 277.505 540.226C284.597 563.792 300.493 583.279 320.518 597.104C324.565 599.894 331.869 604.462 336.902 604.837C347.759 615.654 354.13 620.469 369.2 623.837C366.426 634.436 364.685 642.215 365.289 653.264C365.073 657.614 365.536 659.962 366.171 664.2C347.314 663.847 333.665 660.81 317.641 650.008C291.65 632.501 276.275 604.687 272.046 573.836C270.517 562.682 270.545 549.653 268.2 538.925C269.713 533.782 270.822 531.127 272.969 526.2Z" fill="#6CBE99"/>
<path d="M388.2 654.2L388.747 655.204C391.427 660.211 393.759 667.332 397.373 674.017C408.397 694.434 426.729 709.785 448.587 716.898C471.168 724.093 496.514 722.766 517.681 711.591C533.413 703.286 541.341 694.015 551.561 679.489C552.251 678.507 551.953 678.889 552.943 677.952L553.2 691.444C550.396 695.963 547.176 700.198 543.584 704.103C527.421 721.867 504.913 732.323 481.09 733.14C436.077 734.789 389.578 702.409 388.2 654.2Z" fill="#CAF825"/>
<path d="M369.2 678.198C365.92 678.22 362.642 678.042 359.383 677.67C321.074 673.389 290.121 645.173 275.429 610.435C264.977 585.726 263.471 564.657 266.74 538.2L268.753 539.478C271.08 550.125 271.052 563.057 272.569 574.127C276.766 604.748 292.02 632.353 317.809 649.729C333.708 660.45 347.251 663.465 365.96 663.815C366.868 669.004 367.881 673.084 369.2 678.198Z" fill="#CAF825"/>
<path d="M267.2 537.923C275.431 496.068 295.758 462.449 334.039 441.102C336.066 439.972 336.125 439.991 338.149 440.677L339.147 443.181C340.184 448.786 341.9 453.653 344.2 458.867C314.255 467.763 287.039 499.273 274.012 526.587C271.86 531.47 270.75 534.102 269.233 539.2L267.2 537.923Z" fill="#FEFEFC"/>
<path d="M360.2 407.891C381.724 347.232 443.488 314.18 505.252 332.027C526.918 340.447 539.017 348.952 553.169 367.702L553.2 385.301L551.99 385.506C531.611 362.722 514.645 347.845 482.217 346.046C451.047 344.606 420.569 355.608 397.392 376.667C385.253 387.725 376.305 401.58 368.942 416.2C366.087 413.317 363.17 410.645 360.2 407.891Z" fill="#FEFEFC"/>
<path d="M337.718 604.424C327.385 590.053 322.103 576.451 324.978 557.418C325.926 546.171 334.367 525.285 347.852 538.369C351.703 542.107 345.982 559.675 345.319 565.195C342.032 592.539 376.883 615.628 398.122 594.648C400.839 591.962 406.229 587.507 410.866 589.128C431.947 598.859 407.515 615.798 398.037 619.521C394.215 620.875 393.817 620.875 391.738 625.263C388.124 632.885 387.386 642.802 386.875 651.12L386.163 651.26C385.902 647.479 386.711 639.716 386.019 637.511C382.802 636.97 371.111 635.35 368.724 636.785C366.787 642.077 367.232 646.894 366.071 652.2C365.467 641.299 367.206 633.625 369.977 623.169C354.925 619.846 348.562 615.095 337.718 604.424Z" fill="#060D3C"/>
<path d="M338.2 442.566L338.828 441.539C339.892 445.366 344.215 458.335 346.617 461.039C351.618 457.36 357.146 457.165 361.427 453.356C361.677 451.389 358.151 440.73 357.335 437.227L358.263 436.2C361.788 449.483 368.264 466.621 381.609 473.259C393.899 482.793 408.235 481.437 422.661 481.997C433.369 482.538 436.068 498.286 425.539 500.981C388.926 510.35 357.789 488.895 343.305 458.365C340.982 453.114 339.247 448.211 338.2 442.566Z" fill="#060D3C"/>
<path d="M358.982 436.716C357.44 425.102 358.294 418.563 360.529 407.2C363.4 409.984 366.22 412.684 368.98 415.598C367.739 434.717 367.069 446.758 375.809 464.301C377.524 467.743 379.642 470.951 381.2 474.2C368.5 467.486 362.337 450.152 358.982 436.716Z" fill="#6DAF96"/>
<path d="M467.418 518.277C486.484 517.013 502.946 531.487 504.132 550.555C505.319 569.63 490.779 586.032 471.704 587.14C452.737 588.248 436.447 573.807 435.268 554.845C434.088 535.881 448.461 519.533 467.418 518.277Z" fill="#060D3C"/>
<path d="M477.899 527.423C482.164 526.59 486.546 528.128 489.355 531.443C492.165 534.758 492.961 539.334 491.44 543.404C489.917 547.475 486.313 550.401 482.018 551.06C475.563 552.049 469.501 547.696 468.38 541.26C467.258 534.826 471.49 528.676 477.899 527.423Z" fill="#FEFEFC"/>
<path d="M418.249 389.2C430.486 390.377 429.43 399.777 434.346 409.5C444.344 429.275 470.655 438.628 490.649 428.195C496.159 425.32 501.859 418.198 508.654 417.6C525.236 418.135 519.243 432.811 511.142 439.796C493.209 453.128 473.985 456.469 452.444 450.022C431.588 443.78 406.78 418.882 410.591 396.049C411.103 392.982 415.741 390.374 418.249 389.2Z" fill="#060D3C"/>
<path d="M699.837 315.2C703.378 316.89 705.075 318.21 708.743 317.46C730.564 323.328 772.006 361.278 778.761 382.846C784.178 391.14 788.865 405.87 790.777 415.744C792.34 418.307 802.57 422.826 805.747 424.605C810.769 427.445 815.62 430.591 820.255 434.025C869.761 471.273 892.401 534.454 877.849 594.739C872.946 615.483 863.407 634.84 849.941 651.35C840.626 662.59 831.043 670.655 819.57 679.264C818.157 680.33 818.254 680.681 818.187 682.253L819.444 683.52L818.127 684.012L816.103 682.902C815.33 679.026 823.179 674.494 826.408 672.146C822.792 672.377 819.585 674.352 816.193 675.239C803.559 678.519 792.012 685.063 779.788 689.088C777.058 689.983 760.31 687.203 756.821 686.442C745.177 683.93 747.454 689.797 741.397 696.952C738.778 700.06 733.116 702.632 729.962 705.367C723.712 710.779 715.268 722.75 708.676 727.08C706.168 727.192 707.27 727.498 705.194 726.32C706.801 719.313 711.86 719.775 716.823 715.914C718.266 714.789 720.081 710.145 721.346 708.647C722.938 706.769 726.889 705.591 728.489 703.795C730.051 702.036 730.155 702.848 730.081 701C727.187 701.484 722.507 704.331 720.677 706.597L719.538 706.485C727.596 698.242 730.832 692.361 736.256 682.224L736.762 682.775C735.557 688.783 728.392 695.171 727.983 699.33L729.478 699.814C735.289 697.101 743.175 675.903 740.847 669.314C739.842 666.481 740.192 665.072 740.445 662.113L741.025 655.42C741.263 651.917 741.308 648.629 741.368 645.119C740.519 637.091 739.083 622.474 730.237 620.097C722.544 635.645 711.726 645.603 695.209 651.7C689.212 653.914 674.875 656.247 669.221 653.914C672.733 650.5 674.861 648.935 675.791 643.822C677.814 632.723 667.517 628.922 659.221 634.184C656.119 636.145 652.25 640.334 649.021 641.824C630.785 650.247 606.337 639.238 593.473 625.702C585.111 616.914 577.618 605.741 574.836 593.986C573.884 589.946 574.285 578.259 574.278 573.66L574.36 532.825L574.323 386.777L574.256 366.693C577.648 362.285 581.361 358.128 585.356 354.256C605.928 334.599 631.767 326.505 659.772 327.073C671.624 328.266 677.717 329.296 689.212 332.64C693.037 325.951 695.358 321.845 699.837 315.2Z" fill="#517FFE"/>
<path d="M779.167 382.2C784.562 390.509 789.231 405.267 791.136 415.16C792.692 417.727 802.882 422.255 806.047 424.037C811.049 426.882 815.881 430.035 820.498 433.475C869.81 470.793 892.361 534.092 877.866 594.49C872.982 615.273 863.481 634.667 850.067 651.208C840.789 662.469 831.244 670.549 819.816 679.174C818.408 680.242 818.504 680.593 818.438 682.169L819.69 683.438L818.378 683.931L816.363 682.819C815.592 678.935 823.41 674.395 826.627 672.043C823.025 672.274 819.831 674.253 816.452 675.142C803.868 678.428 792.366 684.984 780.19 689.017C777.47 689.913 760.788 687.128 757.313 686.366C745.715 683.849 747.982 689.726 741.95 696.895C739.341 700.009 733.702 702.586 730.559 705.326C724.334 710.748 715.923 722.741 709.357 727.08C706.859 727.192 707.956 727.498 705.888 726.318C707.489 719.299 712.529 719.761 717.472 715.893C718.909 714.766 720.718 710.113 721.978 708.612C723.563 706.73 727.499 705.55 729.092 703.751C730.648 701.988 730.752 702.802 730.678 700.95C727.795 701.436 723.134 704.288 721.311 706.559L720.177 706.447C728.203 698.187 731.426 692.295 736.829 682.139L737.333 682.692C736.132 688.711 728.996 695.111 728.588 699.278L730.078 699.763C735.865 697.045 743.721 675.807 741.401 669.205C740.401 666.367 740.749 664.956 741.001 661.991L741.579 655.285C741.816 651.775 741.861 648.482 741.92 644.965L742.758 645.211C743.269 639.394 740.757 632.837 739.045 627.363C737.303 621.8 741.327 617.431 743.514 611.793C738.659 610.427 735.621 608.5 733.709 603.429L735.302 601.704C743.758 600.644 752.073 608.47 762.478 601.346C763.99 600.308 768.177 602.07 772.075 598.904C771.253 597.246 771.556 598.097 771.156 596.35C772.824 594.401 773.127 593.759 775.558 592.848L776.989 593.729C781.072 601.592 774.506 600.48 785.23 605.991C787.653 613.242 763.597 619.858 758.565 621.695C758.417 622.084 761.567 642.695 761.959 644.733L762.693 641.35C762.145 634.465 760.863 629.395 758.958 622.816C774.165 619.597 781.242 614.638 791.61 603.145L793.485 603.467C816.919 594.617 837.373 568.727 846.54 545.799C848.422 541.1 851.112 531.26 853.224 527.841C854.536 531.002 857.011 536.544 857.975 539.594L859.902 540.225C851.602 481.899 811.479 435.296 751.792 429.791L750.606 428.87C735.94 428.225 724.149 432.653 711.128 438.74C708.379 433.783 702.279 427.35 706.844 422.066C712.247 415.811 727.447 412.455 735.11 411.376L734.198 410.132C741.283 408.542 748.879 408.841 756.127 408.936C759.573 408.808 764.516 410.011 766.702 408.81C767.369 405.859 766.65 405.617 765.494 402.189C765.82 401.673 766.65 400.754 767.08 400.251C772.164 399.356 776.618 395.779 781.569 393.666L782.651 393.211C783.332 389.936 778.745 386.879 779.167 382.2Z" fill="#37085C"/>
<path d="M854.402 529.2C855.727 532.344 858.227 537.856 859.2 540.89C856.61 550.956 857.493 563.583 855.6 574.042C846.267 625.635 814.69 659.29 761.782 664.2C763.137 655.777 763.735 650.57 762.972 642.102C762.418 635.254 761.123 630.211 759.2 623.667C774.558 620.465 781.706 615.533 792.176 604.102L794.07 604.421C817.736 595.619 838.393 569.867 847.651 547.062C849.552 542.388 852.269 532.601 854.402 529.2Z" fill="#5362DF"/>
<path d="M860.288 539.832C863.349 552.172 862.323 570.625 860.087 583.086C850.935 634.136 810.737 675.747 758.2 678.2C759.403 673.338 760.748 668.274 761.662 663.375C814.177 658.431 845.519 624.539 854.783 572.584C856.663 562.053 855.786 549.337 858.356 539.2L860.288 539.832Z" fill="#F31DED"/>
<path d="M779.218 382.2C784.619 390.817 789.293 406.122 791.2 416.381C791.118 416.883 790.74 417.686 790.532 418.2C788.856 415.729 788.462 409.726 786.645 405.213C782.468 403.915 774.233 406.268 769.796 407.311C768.335 409.108 768.965 408.392 768.52 411.328C767.177 411.923 740.536 411.84 735.112 412.457L734.2 411.166C741.292 409.518 748.897 409.828 756.153 409.927C759.603 409.794 764.551 411.041 766.74 409.796C767.407 406.736 766.688 406.485 765.53 402.93C765.857 402.394 766.688 401.441 767.118 400.92C772.207 399.992 776.666 396.282 781.622 394.091L782.705 393.619C783.388 390.222 778.795 387.053 779.218 382.2Z" fill="#05128D"/>
<path d="M699.738 315.2C703.278 316.894 704.974 318.218 708.64 317.466C730.455 323.35 771.882 361.402 778.635 383.03C778.211 387.713 782.815 390.772 782.13 394.05L781.045 394.505C776.076 396.62 771.606 400.2 766.504 401.096C766.073 401.599 765.24 402.519 764.913 403.035C766.073 406.466 766.794 406.708 766.125 409.661C763.931 410.863 758.97 409.66 755.512 409.788C752.395 408.445 740.339 389.088 736.286 384.645C708.395 354.067 663.948 337.958 623.585 349.999C601.31 356.644 588.473 369.568 574.267 386.971L574.2 366.832C577.591 362.412 581.303 358.245 585.297 354.362C605.861 334.652 631.692 326.536 659.687 327.105C671.535 328.302 677.626 329.335 689.117 332.687C692.94 325.98 695.26 321.863 699.738 315.2Z" fill="#FEFEFC"/>
<path d="M700.697 315.2C704.196 316.898 705.872 318.224 709.496 317.47C731.057 323.366 772.002 361.489 778.676 383.157C778.257 387.849 782.808 390.914 782.131 394.198L781.058 394.654C776.148 396.773 771.73 400.36 766.687 401.257C766.261 401.761 765.437 402.683 765.114 403.2C749.096 367.33 726.249 346.489 690.2 332.72C693.978 326 696.272 321.876 700.697 315.2Z" fill="#021CC8"/>
<path d="M751.594 431.2C811.555 436.634 851.862 482.632 860.2 540.2L858.264 539.577C857.296 536.567 854.81 531.097 853.492 527.977C837.56 492.233 800.879 459.146 761.809 451.39C752.272 448.904 741.261 451.568 732.171 447.553C725.872 444.773 726.297 439.026 729.379 434.216C737.27 432.248 743.509 431.779 751.594 431.2Z" fill="#FEFEFC"/>
<path d="M730.506 620.825C723.317 617.382 696.585 602.097 716.345 590.292C720.603 587.747 730.925 596.872 735.626 599.612C742.342 603.564 750.386 604.612 757.897 602.516C775.071 597.568 783.655 583.211 782.912 565.786C782.545 557.312 773.385 538.767 786.008 535.624C797.808 532.684 801.053 545.697 802.778 554.513C806.526 573.683 802.845 588.159 791.983 604.035C781.496 615.555 774.337 620.525 758.954 623.752C760.881 630.346 762.178 635.429 762.732 642.33L761.99 645.721C761.593 643.677 758.407 623.018 758.557 622.629C763.647 620.787 787.98 614.155 785.529 606.887C774.681 601.363 781.323 602.478 777.193 594.596L775.746 593.713C773.287 594.626 772.98 595.27 771.293 597.224C771.698 598.975 771.391 598.122 772.223 599.784C768.28 602.958 764.044 601.191 762.515 602.231C751.99 609.372 743.579 601.528 735.026 602.591L733.414 604.32C735.348 609.402 738.422 611.334 743.332 612.703C741.12 618.355 737.05 622.734 738.812 628.31C740.543 633.797 743.084 640.369 742.567 646.2L741.72 645.953C740.866 637.891 739.419 623.213 730.506 620.825Z" fill="#060D3C"/>
<path d="M728.848 432.976C718.226 435.327 707.44 441.547 699.26 448.862C694.369 452.671 687.807 464.78 681.664 465.941C669.35 468.27 665.979 454.335 672.361 446.318C687.972 426.708 708.953 414.57 733.417 410.2L734.339 411.447C726.593 412.529 711.23 415.894 705.769 422.167C701.155 427.465 707.32 433.914 710.099 438.885C723.26 432.782 735.178 428.342 750.001 428.989L751.2 429.912C743.065 430.501 736.788 430.977 728.848 432.976Z" fill="#060D3C"/>
<path d="M657.996 519.222C676.715 518.558 692.448 533.162 693.174 551.88C693.9 570.599 679.353 586.376 660.634 587.169C641.826 587.969 625.953 573.333 625.226 554.525C624.493 535.713 639.18 519.889 657.996 519.222Z" fill="#060D3C"/>
<path d="M667.765 529.583C673.829 527.984 680.049 531.532 681.76 537.563C683.471 543.594 680.042 549.886 674.043 551.703C670.063 552.913 665.74 551.875 662.74 548.998C659.734 546.121 658.524 541.846 659.569 537.82C660.607 533.795 663.742 530.645 667.765 529.583Z" fill="#FEFEFC"/>
<path d="M655.528 386.203C666.072 386.035 671.012 394.081 674.013 403.359C686.459 441.901 661.051 473.928 622.179 473.187C614.305 472.311 607.013 469.894 608.362 459.531C609.571 450.272 624.952 452.41 632.059 451.334C636.461 450.674 640.671 449.06 644.402 446.602C656.067 438.862 660.255 422.837 654.415 410.223C649.615 399.838 643.857 393.608 655.528 386.203Z" fill="#060D3C"/>
<path d="M761.085 472.342C788.488 469.137 774.697 521.373 730.916 527.177C725.808 527.271 720.998 527.297 717.861 522.692C706.122 505.444 736.506 507.239 745.301 500.076C756.58 490.888 750.617 479.652 761.085 472.342Z" fill="#060D3C"/>
<path d="M730.105 620.2C738.923 622.566 740.355 637.113 741.2 645.102C741.141 648.596 741.096 651.867 740.859 655.353L740.28 662.015C740.028 664.96 739.68 666.362 740.681 669.18C743.002 675.738 735.141 696.834 729.349 699.534L727.858 699.052C728.266 694.913 735.408 688.556 736.609 682.577L736.105 682.028C730.699 692.116 727.473 697.969 719.441 706.173L720.576 706.285C722.4 704.03 727.065 701.196 729.95 700.714C730.024 702.554 729.92 701.745 728.363 703.496C726.768 705.283 722.83 706.455 721.243 708.325C719.982 709.816 718.173 714.437 716.734 715.557C711.788 719.399 706.745 718.94 705.143 725.912C700.597 727.908 683.992 737.054 680.989 737.699C680.425 738.263 679.698 738.99 678.823 739.865C671.058 740.362 663.405 741.127 655.67 741.942C655.158 741.994 652.392 741.683 652.029 741.646C651.917 741.683 651.806 741.727 651.687 741.772C642.232 742.677 637.982 742.306 628.95 739.109C626.955 738.404 617.002 737.685 614.97 736.987C604.721 733.486 593.441 723.383 586.403 715.29C582.784 711.121 581.946 707.219 577.311 704.363C575.999 703.547 572.669 700.899 572.439 699.72C571.69 695.937 572.825 685.129 574.137 681.783L574.352 678.453C573.892 664.693 574.389 649.122 574.308 635.095C600.427 663.164 635.001 677.956 669.286 653.855C674.922 656.177 689.213 653.855 695.19 651.652C711.654 645.584 722.437 635.674 730.105 620.2Z" fill="#4B62D8"/>
<path d="M574.354 678.34L575.489 678.065C580.535 684.523 582.702 688.907 588.609 694.986C605.995 712.894 626.305 720.823 651.238 720.764C683.555 720.585 713.415 703.442 729.889 675.591C732.798 670.738 737.473 658.232 740.961 655.2L740.382 661.873C740.129 664.823 739.781 666.228 740.783 669.051C743.105 675.62 735.239 696.754 729.444 699.459L727.952 698.976C728.36 694.829 735.506 688.461 736.709 682.472L736.204 681.922C730.794 692.028 727.566 697.891 719.53 706.11L720.665 706.221C722.491 703.962 727.158 701.124 730.045 700.641C730.119 702.483 730.015 701.673 728.457 703.427C726.862 705.218 722.921 706.392 721.333 708.265C720.072 709.758 718.261 714.388 716.821 715.51C711.872 719.359 706.826 718.899 705.223 725.884C700.674 727.883 684.06 737.045 681.054 737.692C680.49 738.256 679.763 738.984 678.887 739.861C671.118 740.359 663.46 741.125 655.72 741.942C655.208 741.994 652.44 741.682 652.077 741.645C651.965 741.682 651.854 741.727 651.735 741.771C642.274 742.678 638.022 742.306 628.984 739.103C626.988 738.397 617.029 737.677 614.996 736.978C604.741 733.471 593.454 723.35 586.412 715.242C582.791 711.066 581.952 707.158 577.314 704.297C576.001 703.479 572.669 700.826 572.439 699.645C571.69 695.855 572.825 685.028 574.138 681.677L574.354 678.34Z" fill="#F31DED"/>
<path d="M652.653 741.65C652.54 741.686 652.428 741.731 652.309 741.775C642.779 742.674 638.497 742.305 629.393 739.13C627.383 738.43 617.352 737.716 615.305 737.023C604.975 733.546 593.607 723.513 586.514 715.476C582.867 711.335 582.023 707.461 577.351 704.624C576.028 703.814 572.673 701.184 572.441 700.013C571.686 696.256 572.83 685.522 574.152 682.2C574.399 697.552 581.44 702.554 592.135 713.067C593.391 716.22 600.177 723.306 603.309 724.124C611.328 726.209 620.768 731.697 628.055 733.878C638.093 736.891 663.438 739.123 672.548 734.113L671.121 733.605C675.463 728.08 712.438 726.275 721.735 706.532C723.574 704.293 728.275 701.479 731.183 701C731.257 702.827 731.153 702.024 729.583 703.762C727.976 705.538 724.008 706.702 722.408 708.558C721.137 710.039 719.314 714.628 717.864 715.741C712.879 719.557 707.796 719.1 706.182 726.025C701.6 728.006 684.866 737.09 681.839 737.731C681.271 738.29 680.538 739.012 679.656 739.882C671.831 740.375 664.118 741.134 656.322 741.944C655.807 741.996 653.019 741.686 652.653 741.65Z" fill="#4E0A5F"/>
<path d="M740.383 662.2C740.131 665.144 739.783 666.546 740.783 669.364C743.103 675.919 735.248 697.009 729.46 699.709L727.971 699.227C728.378 695.089 735.514 688.733 736.715 682.756L736.211 682.208C730.809 692.293 727.585 698.144 719.56 706.346L720.694 706.457C711.476 726.331 674.817 728.148 670.512 733.71L671.927 734.221C662.894 739.264 637.766 737.017 627.814 733.984C620.589 731.789 611.23 726.264 603.278 724.166C600.173 723.342 593.445 716.209 592.2 713.035C604.13 721.533 612.474 726.531 626.947 730.187C651.89 736.498 678.329 732.582 700.382 719.308C723.94 705.07 734.062 687.762 740.383 662.2Z" fill="#700F70"/>
<path d="M670.079 307.2C682.683 308.586 697.691 312.163 709.2 317.686C705.53 318.452 703.832 317.103 700.289 315.376C695.807 322.167 693.485 326.363 689.658 333.2C678.156 329.783 672.059 328.73 660.2 327.511C670.57 324.82 673.801 329.631 679.318 328.034C682.407 324.844 687.425 315.78 687.618 311.488C684.179 310.282 671.843 309.142 666.699 308.006L670.079 307.2Z" fill="#05128D"/>
<path d="M555.2 153.191C557.314 151.817 571.696 150.468 574.2 151.659C572.979 155.865 573.376 161.4 573.452 165.896C573.009 166.839 572.696 167.249 572.131 168.126C571.124 165.805 571.681 161.197 571.421 157.949C568.872 155.791 569.551 159.159 565.101 158.033C562.482 158.936 559.94 158.699 557.139 158.679C557.047 162.664 556.895 165.206 556.437 169.2L555.261 162.425L555.2 153.191Z" fill="#4E0A5F"/>
<path d="M599.31 211.326C606.653 201.592 618.556 193.462 630.215 190.247C640.933 187.288 656.841 185.098 666.879 190.516C668.737 193.166 668.115 192.54 668.041 196.566C666.538 209.26 665.199 218.779 658.877 230.1C644.812 255.368 617.29 266.484 590.057 256.637C597.429 249.382 610.939 239.412 619.563 232.57C624.744 229.029 633.376 224.656 629.859 216.596C624.13 212.098 617.12 219.575 612.479 223.189C603.721 229.999 594.972 236.807 586.2 243.595C588.606 232.231 591.441 220.181 599.31 211.326Z" fill="#7CD559"/>
<path d="M620.212 232.662C634.216 237.992 646.722 235.305 660.2 230.2C645.894 255.385 617.9 266.463 590.2 256.649C597.699 249.418 611.44 239.481 620.212 232.662Z" fill="#4F933E"/>
<path d="M600.2 211.11C607.448 201.464 619.198 193.406 630.706 190.219C641.286 187.288 656.988 185.116 666.896 190.487C668.73 193.113 668.116 192.492 668.043 196.482C646.788 193.675 636.405 193.05 615.741 202.64C612.052 204.355 602.889 212.116 600.2 211.11Z" fill="#8CF2C9"/>
<path d="M460.753 198.339C460.464 195.683 459.672 192.97 460.746 190.972C484.092 183.236 517.689 192.012 531.08 213.299C538.005 221.411 541.576 235.027 544.2 245.2C538.414 240.573 507.458 215.832 502.482 215.062C499.556 215.702 499.692 215.78 497.328 217.734C494.315 224.515 503.135 229.08 508.12 232.466C498.744 239.095 479.626 234.523 469.737 230.099C463.618 220.487 461.858 209.37 460.753 198.339Z" fill="#7CD559"/>
<path d="M460.746 197.895C460.461 195.356 459.679 192.761 460.739 190.85C483.795 183.454 516.975 191.845 530.2 212.2C526.554 211.831 522.938 208.097 519.341 206.074C498.84 194.544 483.311 192.808 460.746 197.895Z" fill="#8CF2C9"/>
<path d="M469.2 230.2C478.943 234.612 497.778 239.17 507.015 232.56C513.764 236.895 531.826 251.775 538.2 257.23C510.385 265.665 483.433 255.971 469.2 230.2Z" fill="#4F933E"/>
<path d="M556.053 153.2C542.964 138.059 517.937 122.347 514.717 102.289C510.032 73.1043 538.014 48.1803 564.922 69.2549C587.802 49.1206 616.063 69.8434 615.18 97.1859C614.593 115.359 603.706 123.017 592.084 134.701C586.392 140.422 580.522 146.21 574.525 151.625C572.091 150.402 558.109 151.789 556.053 153.2Z" fill="#700F70"/>
<path d="M578.583 74.4514C587.723 72.7296 600.144 80.0927 602.371 89.2338C605.95 103.81 597.393 114.225 587.237 123.407C576.08 133.496 566.835 142.563 551.623 133.422C548.574 132.341 543.918 126.635 541.489 124.342C514.6 98.9468 520.672 69.4712 562.157 78.2374C563.375 78.4949 575.728 75.137 578.583 74.4514Z" fill="#EF6063"/>
<path d="M540.109 79.8073C545.845 79.0608 546.437 78.7894 551.906 80.8779C555.328 82.185 561.462 94.1304 563.659 92.8441C569.467 89.444 573.292 79.892 581.098 79.2519C589.909 78.5292 596.235 85.458 596.198 94.0032C596.324 105.169 589.613 110.791 582.37 118.043C576.451 124.113 570.362 130.609 564.029 136.2C555.114 127.621 545.086 118.704 537.117 109.386C528.412 99.2064 529.231 87.5614 540.109 79.8073Z" fill="#FD6265"/>
</svg>
