<svg width="1126" height="1126" viewBox="0 0 1126 1126" fill="none" xmlns="http://www.w3.org/2000/svg">
<path d="M819.916 683.79L818.657 682.523L310.595 682.388C301.849 685.527 297.49 687.19 289.752 692.178C286.028 694.086 278.772 699.574 275.519 702.325C264.931 711.354 256.389 722.53 250.463 735.123C246.333 744.01 243.195 755.589 240.27 765.162L226.581 810.09L206.685 874.44C203.613 884.424 200.589 894.414 197.609 904.412C185.117 946.336 190.145 989.684 219.262 1023.44C240.312 1047.67 270.159 1062.5 302.183 1064.64C338.909 1067.22 373.866 1053.39 400.687 1028.57C425.505 1005.59 443.808 976.114 467.791 952.494C473.58 946.798 485.431 941.654 493.574 940.588C514.631 938.276 536.5 939.357 557.781 939.328C580.89 939.29 604.461 938.94 627.525 940.058C652.788 941.289 664.122 956.528 678.714 974.645C686.359 984.166 694.08 993.635 701.86 1003.04C730.55 1037.19 759.189 1060.34 805.563 1064.69C871.909 1070.9 933.441 1019.84 935.148 952.249C935.863 923.812 929.089 904.316 921.108 877.624L900.943 811.79L887.671 768.666C881.023 746.948 876.358 727.928 860.724 710.884C852.266 701.669 832.696 684.647 819.916 683.79Z" fill="#060D3C"/>
<path d="M214.711 916.753C225.98 878.502 237.527 840.34 249.348 802.253C255.258 783.061 260.918 762.711 268.316 744.048C271.729 735.444 278.946 726.512 285.512 720.08C300.575 705.334 321.063 696.118 342.288 696.201C349.107 696.171 354.818 697.432 361.221 697.544H361.874C368.415 698.163 372.548 698.29 379.159 698.103L379.376 698.491C381.914 703.023 383.929 706.62 386.938 710.916C392.43 716.684 736.017 705.797 742.249 710.953C745.42 706.968 747.836 702.543 750.41 698.148C757.862 698.491 763.941 697.581 771.132 697.686C795.151 694.26 813.747 698.014 834.096 712.498C863.859 733.668 865.194 767.323 877.189 798.94C879.77 803.395 882.269 811.969 883.91 817.066C887.901 829.655 893.301 842.81 896.449 855.608C903.543 884.435 916.425 911.619 918.089 941.602C918.825 954.956 915.777 967.263 912.608 980.056L912.584 980.152C913.934 977.451 913.643 976.928 915.791 975.548L916.485 976.279C915.963 981.465 915.739 987.264 912.822 991.368C912.014 992.512 912.116 993.549 912.246 994.876L912.255 994.972C909.428 998.793 904.237 1006.29 900.097 1008.42L899.806 1007.61C903.841 1003.34 904.871 999.091 906.78 993.644L906.594 993.345C894.077 1015.88 874.996 1032.01 850.209 1041.07C846.292 1042.49 838.714 1042.83 836.64 1046.01L837.371 1047.2C834.977 1047.09 833.5 1044.92 831.448 1045.31C817.753 1047.98 775.593 1044.65 763.688 1037.98C763.322 1037.78 763.031 1037.48 762.695 1037.22L764.598 1036.95C764.374 1036.25 763.568 1033.84 763.046 1033.42C756.959 1028.92 747.792 1022.25 741.22 1018.67C735.379 1015.49 726.592 1018.35 723.4 1008.78C723.042 1007.71 723.317 1005.69 723.362 1004.65C721.505 1001.81 721.408 1001.98 717.529 1001.04C716.932 998.599 716.895 999.793 717.798 997.33L719.64 996.136C718.469 990.674 710.495 985.95 706.929 979.548C704.967 980.995 706.012 980.734 703.781 980.607C700.246 978.287 694.591 974.57 690.854 972.063C690.586 971.183 690.31 970.302 690.041 969.421L690.22 969.645L690.317 964.705C688.423 962.929 686.491 961.594 685.64 959.318L687.692 958.512C687.52 953.99 669.304 935.334 664.344 933.663C662.352 933.954 662.747 933.663 661.121 934.573L660.196 933.506L661.099 931.588C658.197 926.611 631.53 919.887 624.899 920.141C619.416 920.35 612.322 920.425 606.698 920.425L558.809 920.372C547.43 920.365 535.999 920.447 524.625 920.335C504.672 920.156 483.891 919.544 466.351 930.737C460.222 934.655 452.805 939.55 449.333 946.162L449.599 947.192L455.422 942.878C453.706 951.303 443.731 957.818 440.996 962.049C439.777 961.609 440.307 961.997 439.519 960.743L439.5 963.75L438.17 964.467L437.234 964.123C437.79 962.899 438.921 959.952 438.753 958.646L437.625 958.534C437.463 958.803 437.301 959.071 437.138 959.34C434.233 966.116 420.207 974.921 421.084 981.764C421.128 982.093 421.659 983.616 421.77 983.924C421.771 983.923 421.771 983.922 421.771 983.921C421.799 984.001 421.795 983.993 421.77 983.924C420.003 989.281 401.002 1010.22 395.661 1013.79L395.353 1012.68C397.664 1010.39 405.478 1000.46 406.045 997.621C401.971 1000.93 396.817 1006.91 393.004 1010.82C386.073 1017.94 379.223 1024.01 370.853 1029.43C375.91 1029.77 373.776 1028.15 375.707 1027.43C378.099 1026.54 389.004 1019.1 389.992 1018.84L390.247 1019.73C384.821 1025.14 365.529 1041.04 358.073 1040.13C358.943 1035 363.713 1035.89 365.129 1033.4L362.49 1034.09C351.311 1036.92 337.731 1045.37 325.587 1046.3C302.68 1048.06 282.918 1045.27 262.334 1034.42L260.587 1036.1C257.667 1034.72 247.964 1029.95 246.003 1028.02C246.642 1026.29 246.637 1026.16 247.672 1024.66C243.119 1021.48 222.163 1002.34 219.48 998.009L219.331 996.42C220.918 996.3 220.764 996.293 222.415 996.42L221.779 995.173C218.455 988.599 215.425 981.727 212.84 974.884C209.89 967.063 212.516 959.183 207.285 951.908C205.234 949.057 206.658 940.491 207.001 936.662L207.674 936.342L209.112 939.573C212.074 937.237 209.239 922.29 214.711 916.753Z" fill="#6C7E82"/>
<path d="M214.711 916.753C225.98 878.502 237.527 840.34 249.348 802.253C255.258 783.061 260.918 762.711 268.316 744.048C271.729 735.444 278.946 726.512 285.512 720.08C300.575 705.334 321.063 696.118 342.288 696.201C349.107 696.171 354.818 697.432 361.221 697.544H361.874C368.415 698.163 372.548 698.29 379.159 698.103C381.801 702.819 383.844 706.498 386.938 710.916C381.118 711.237 375.836 711.229 370.001 711.207L370.5 712.938H370.001C369.055 711.058 370.549 714.826 369.651 712.938C354.26 712.856 339.762 711.789 324.895 716.02C319.55 717.535 311.362 722.281 307.84 722.639C294.848 728.892 279.829 748.622 275.381 762.375C271.732 773.651 268.259 785.262 264.611 796.552C255.807 823.521 247.142 850.541 238.614 877.599C234.295 891.255 229.87 906.56 224.948 919.858C226.85 923.096 227.463 927.917 228.676 931.879C232.234 943.513 236.246 949.893 243.485 959.407C262.336 978.734 285.051 987.577 312.003 987.973C340.267 988.383 362.69 979.301 387.154 966.526C397.15 959.079 407.737 953.579 417.598 944.901C441.007 924.305 454.463 902.881 487.822 897.747C500.066 895.867 511.73 896.187 524.211 896.173L567.424 896.202C590.645 896.24 615.507 895.396 638.497 897.456C670.729 900.344 688.758 926.38 711.144 945.901C719.886 953.527 728.711 958.348 738.042 965.049C745.509 968.123 752.804 972.944 760.637 976.033C807.929 994.689 858.667 993.562 890.989 950.102C892.906 945.117 895.368 941.729 897.494 935.409C898.978 930.991 901.029 923.716 902.626 919.932C896.472 903.321 891.041 884.688 885.715 867.689C878.569 844.952 871.289 822.259 863.859 799.612C859.831 787.232 853.245 764.614 848.105 753.824C844.196 745.6 838.826 738.168 832.246 731.877C813.247 713.573 794.398 710.841 769.386 711.244C766.94 712.968 762.636 712.17 759.645 711.662C755.945 710.789 746.292 710.961 742.249 710.953C745.42 706.968 747.836 702.543 750.41 698.148C757.862 698.491 763.941 697.581 771.132 697.686C795.151 694.26 813.747 698.014 834.096 712.498C863.859 733.668 865.194 767.323 877.189 798.94C879.77 803.395 882.269 811.969 883.91 817.066C887.901 829.655 893.301 842.81 896.449 855.608C903.543 884.435 916.425 911.619 918.089 941.602C918.827 954.99 915.761 967.325 912.584 980.152C913.934 977.451 913.643 976.928 915.791 975.548L916.485 976.279C915.963 981.465 915.739 987.264 912.822 991.368C911.994 992.539 912.121 993.599 912.255 994.972C909.428 998.793 904.237 1006.29 900.097 1008.42L899.806 1007.61C903.841 1003.34 904.871 999.091 906.78 993.644L906.594 993.345C894.077 1015.88 874.996 1032.01 850.209 1041.07C846.292 1042.49 838.714 1042.83 836.64 1046.01L837.371 1047.2C834.977 1047.09 833.5 1044.92 831.448 1045.31C817.753 1047.98 775.593 1044.65 763.688 1037.98C763.322 1037.78 763.031 1037.48 762.695 1037.22L764.598 1036.95C764.374 1036.25 763.568 1033.84 763.046 1033.42C756.959 1028.92 747.792 1022.25 741.22 1018.67C735.379 1015.49 726.592 1018.35 723.4 1008.78C723.041 1007.71 723.317 1005.69 723.362 1004.65C721.505 1001.81 721.408 1001.98 717.529 1001.04C716.932 998.599 716.895 999.793 717.798 997.33L719.64 996.136C718.469 990.674 710.495 985.95 706.929 979.548C704.967 980.995 706.012 980.734 703.781 980.607C700.246 978.287 694.591 974.57 690.854 972.063C690.586 971.183 690.31 970.302 690.041 969.421L690.22 969.645L690.317 964.705C688.423 962.929 686.491 961.594 685.64 959.318L687.692 958.512C687.52 953.99 669.304 935.334 664.344 933.663C662.352 933.954 662.747 933.663 661.121 934.573L660.196 933.506L661.099 931.588C658.197 926.611 631.53 919.887 624.899 920.141C619.416 920.35 612.322 920.425 606.698 920.425L558.809 920.372C547.429 920.365 535.999 920.447 524.625 920.335C504.672 920.156 483.891 919.544 466.351 930.737C460.222 934.655 452.805 939.55 449.333 946.162L449.599 947.192L455.422 942.878C453.706 951.303 443.731 957.818 440.996 962.049C439.777 961.609 440.307 961.997 439.519 960.743L439.5 963.75L438.17 964.467L437.234 964.123C437.79 962.899 438.921 959.952 438.753 958.646L437.625 958.534C437.463 958.803 437.301 959.071 437.138 959.34C434.233 966.116 420.207 974.921 421.084 981.764C421.137 982.167 421.922 984.361 421.771 983.921C420.012 989.271 401.003 1010.22 395.661 1013.79L395.353 1012.68C397.664 1010.39 405.478 1000.46 406.045 997.621C401.971 1000.93 396.817 1006.91 393.004 1010.82C386.073 1017.94 379.223 1024.01 370.853 1029.43C375.91 1029.77 373.776 1028.15 375.707 1027.43C378.099 1026.54 389.004 1019.1 389.992 1018.84L390.247 1019.73C384.821 1025.14 365.529 1041.04 358.073 1040.13C358.943 1035 363.713 1035.89 365.129 1033.4L362.49 1034.09C351.311 1036.92 337.731 1045.37 325.587 1046.3C302.68 1048.06 282.918 1045.27 262.334 1034.42L260.587 1036.1C257.667 1034.72 247.964 1029.95 246.003 1028.02C246.642 1026.29 246.637 1026.16 247.672 1024.66C243.119 1021.48 222.163 1002.34 219.48 998.009L219.331 996.42C220.918 996.3 220.764 996.293 222.415 996.42L221.779 995.173C218.455 988.599 215.425 981.727 212.84 974.884C209.89 967.063 212.516 959.183 207.285 951.908C205.234 949.057 206.658 940.491 207.001 936.662L207.674 936.342L209.112 939.573C212.074 937.237 209.239 922.29 214.711 916.753Z" fill="#3E646D"/>
<path d="M214.711 916.753C225.98 878.502 237.527 840.34 249.348 802.253C255.258 783.061 260.918 762.711 268.316 744.048C271.729 735.444 278.946 726.512 285.512 720.08C300.575 705.334 321.063 696.118 342.288 696.201C349.107 696.171 354.818 697.432 361.221 697.544H361.874C368.415 698.163 743.799 698.335 750.41 698.148C753.052 702.864 745.806 706.536 748.899 710.953C744.402 711.201 528.1 712.948 425.5 712.938C395.322 712.935 371.327 711.212 370.001 711.207L371 713.5H369.5C368.554 711.62 367.898 714.888 367 713C351.609 712.918 339.762 711.789 324.895 716.02C319.55 717.535 311.362 722.281 307.84 722.639C294.848 728.892 279.829 748.622 275.381 762.375C271.732 773.651 268.259 785.262 264.611 796.552C255.807 823.521 247.142 850.541 238.614 877.599C234.295 891.255 229.87 906.56 224.948 919.858C215.942 941.729 214.685 957.101 224.271 980.137C234.102 1003.57 252.932 1022.07 276.529 1031.47C310.502 1045.13 350.071 1035.82 378.335 1012.62C406.214 989.741 428.168 950.863 454.967 927.812C486.448 900.732 559.89 915.343 599.835 911.582C619.401 909.739 647.329 912.239 664.247 922.79C713.643 957.072 733.201 1027.23 800.305 1036.29C859.951 1045.69 913.718 999.972 909.197 938.61C908.869 934.364 904.416 924.312 902.626 919.932C896.472 903.321 891.041 884.688 885.715 867.689C878.569 844.952 871.289 822.259 863.859 799.612C859.831 787.232 853.245 764.614 848.105 753.824C844.196 745.6 838.826 738.168 832.246 731.877C813.247 713.573 794.398 710.841 769.386 711.244C766.94 712.968 762.636 712.17 759.645 711.662C755.945 710.789 746.292 710.961 742.249 710.953C745.42 706.968 747.836 702.543 750.41 698.148C757.862 698.491 763.941 697.581 771.132 697.686C795.151 694.26 813.747 698.014 834.096 712.498C863.859 733.668 865.194 767.323 877.189 798.94C879.77 803.395 882.269 811.969 883.91 817.066C887.901 829.655 893.301 842.81 896.449 855.608C903.543 884.435 916.425 911.619 918.089 941.602C918.827 954.99 915.761 967.325 912.584 980.152C913.934 977.451 913.643 976.928 915.791 975.548L916.485 976.279C915.963 981.465 915.739 987.264 912.822 991.368C911.994 992.539 912.121 993.599 912.255 994.972C909.428 998.793 904.237 1006.29 900.097 1008.42L899.806 1007.61C903.841 1003.34 904.871 999.091 906.78 993.644L906.594 993.345C894.077 1015.88 874.996 1032.01 850.209 1041.07C846.292 1042.49 838.714 1042.83 836.64 1046.01L837.371 1047.2C834.977 1047.09 833.5 1044.92 831.448 1045.31C817.753 1047.98 775.593 1044.65 763.688 1037.98C763.322 1037.78 763.031 1037.48 762.695 1037.22L764.598 1036.95C764.374 1036.25 763.568 1033.84 763.046 1033.42C756.959 1028.92 747.792 1022.25 741.22 1018.67C735.379 1015.49 726.592 1018.35 723.4 1008.78C723.041 1007.71 723.317 1005.69 723.362 1004.65C721.505 1001.81 721.408 1001.98 717.529 1001.04C716.932 998.599 716.895 999.793 717.798 997.33L719.64 996.136C718.469 990.674 710.495 985.95 706.929 979.548C704.967 980.995 706.012 980.734 703.781 980.607C700.246 978.287 694.591 974.57 690.854 972.063C690.586 971.183 690.31 970.302 690.041 969.421L690.22 969.645L690.317 964.705C688.423 962.929 686.491 961.594 685.64 959.318L687.692 958.512C687.52 953.99 669.304 935.334 664.344 933.663C662.352 933.954 662.747 933.663 661.121 934.573L660.196 933.506L661.099 931.588C658.197 926.611 631.53 919.887 624.899 920.141C619.416 920.35 612.322 920.425 606.698 920.425L558.809 920.372C547.429 920.365 535.999 920.447 524.625 920.335C504.672 920.156 483.891 919.544 466.351 930.737C460.222 934.655 452.805 939.55 449.333 946.162L449.599 947.192L455.422 942.878C453.706 951.303 443.731 957.818 440.996 962.049C439.777 961.609 440.307 961.997 439.519 960.743L439.5 963.75L438.17 964.467L437.234 964.123C437.79 962.899 438.921 959.952 438.753 958.646L437.625 958.534C437.463 958.803 437.301 959.071 437.138 959.34C434.233 966.116 420.207 974.921 421.084 981.764C421.137 982.167 421.922 984.361 421.771 983.921C420.012 989.271 401.003 1010.22 395.661 1013.79L395.353 1012.68C397.664 1010.39 405.478 1000.46 406.045 997.621C401.971 1000.93 396.817 1006.91 393.004 1010.82C386.073 1017.94 379.223 1024.01 370.853 1029.43C375.91 1029.77 373.776 1028.15 375.707 1027.43C378.099 1026.54 389.004 1019.1 389.992 1018.84L390.247 1019.73C384.821 1025.14 365.529 1041.04 358.073 1040.13C358.943 1035 363.713 1035.89 365.129 1033.4L362.49 1034.09C351.311 1036.92 337.731 1045.37 325.587 1046.3C302.68 1048.06 282.918 1045.27 262.334 1034.42L260.587 1036.1C257.667 1034.72 247.964 1029.95 246.003 1028.02C246.642 1026.29 246.637 1026.16 247.672 1024.66C243.119 1021.48 222.163 1002.34 219.48 998.009L219.331 996.42C220.918 996.3 220.764 996.293 222.415 996.42L221.779 995.173C218.455 988.599 215.425 981.727 212.84 974.884C209.89 967.063 212.516 959.183 207.285 951.908C205.234 949.057 206.658 940.491 207.001 936.662L207.674 936.342L209.112 939.573C212.074 937.237 209.239 922.29 214.711 916.753Z" fill="#42F5FA"/>
<path d="M877.189 799.2C879.77 803.65 882.269 812.215 883.91 817.307C887.901 829.882 893.301 843.024 896.449 855.809C903.543 884.605 916.425 911.761 918.089 941.713C918.827 955.086 915.761 967.408 912.584 980.222C913.934 977.524 913.643 977.002 915.791 975.623L916.485 976.354C915.963 981.534 915.739 987.326 912.822 991.426C911.994 992.597 912.121 993.655 912.256 995.027C909.428 998.843 904.237 1006.34 900.097 1008.46L899.806 1007.65C903.841 1003.38 904.871 999.142 906.78 993.7L906.594 993.402C894.077 1015.91 874.996 1032.03 850.209 1041.07C846.292 1042.5 838.714 1042.83 836.64 1046.01L837.371 1047.2C834.977 1047.09 833.5 1044.92 831.448 1045.31C817.753 1047.98 775.593 1044.65 763.688 1037.99C763.322 1037.79 763.031 1037.49 762.695 1037.23L764.598 1036.96C764.374 1036.26 763.568 1033.86 763.046 1033.43C756.959 1028.94 747.792 1022.27 741.22 1018.7C735.379 1015.53 726.592 1018.38 723.4 1008.82C723.041 1007.75 723.317 1005.73 723.362 1004.7C721.505 1001.85 721.408 1002.03 717.529 1001.09C716.932 998.65 716.895 999.842 717.798 997.382L719.64 996.19C718.469 990.733 710.495 986.014 706.929 979.619C704.967 981.065 706.012 980.804 703.781 980.677C700.246 978.359 694.591 974.646 690.854 972.142C690.586 971.262 690.31 970.382 690.041 969.503L690.22 969.727L690.317 964.792C688.423 963.018 686.491 961.683 685.64 959.41L687.692 958.605C687.52 954.087 669.304 935.451 664.344 933.782C662.352 934.072 662.747 933.781 661.121 934.691L660.196 933.625L661.099 931.709C658.197 926.737 631.53 920.021 624.899 920.274C619.416 920.483 612.322 920.557 606.698 920.557L558.809 920.505C547.429 920.498 535.999 920.58 524.625 920.468C504.672 920.289 483.891 919.678 466.351 930.859C460.222 934.773 452.805 939.663 449.333 946.268L449.599 947.296L455.422 942.988C453.706 951.404 443.731 957.911 440.996 962.138C439.777 961.698 440.307 962.086 439.519 960.833L439.5 963.838L438.17 964.553L437.234 964.21C437.79 962.988 438.921 960.043 438.753 958.739L437.625 958.627C437.463 958.895 437.301 959.164 437.138 959.432C434.233 966.201 420.207 974.997 421.084 981.832C421.137 982.235 421.922 984.427 421.771 983.987C420.012 989.332 401.003 1010.26 395.661 1013.83L395.353 1012.72C397.664 1010.43 405.478 1000.51 406.045 997.673C401.971 1000.98 396.817 1006.95 393.004 1010.86C386.073 1017.97 379.223 1024.04 370.853 1029.45C375.91 1029.79 373.776 1028.17 375.707 1027.45C378.099 1026.56 389.004 1019.13 389.992 1018.87L390.247 1019.76C384.821 1025.16 365.529 1041.04 358.073 1040.14C358.943 1035.01 363.713 1035.91 365.129 1033.42L362.49 1034.1C351.311 1036.94 337.731 1045.37 325.587 1046.31C302.68 1048.06 282.918 1045.27 262.334 1034.43L260.587 1036.12C257.667 1034.74 247.964 1029.97 246.003 1028.04C246.642 1026.31 246.637 1026.19 247.672 1024.69C243.119 1021.5 222.163 1002.38 219.48 998.061L219.331 996.473C220.918 996.354 220.764 996.346 222.415 996.473L221.779 995.228C218.455 988.661 215.425 981.795 212.84 974.96C209.89 967.147 212.516 959.275 207.285 952.007C205.234 949.16 206.658 940.602 207.001 936.778L207.674 936.458L209.112 939.685C212.074 937.352 209.239 922.421 214.711 916.89C211.103 935.824 209.067 948.929 213.222 968.005C218.71 993.208 235.895 1016.28 257.73 1029.86C275.317 1040.72 295.808 1045.94 316.451 1044.82C371.58 1041.9 403.063 999.306 434.563 959.849C466.237 920.177 479.421 918.753 528.679 918.753L574.205 918.783C589.385 918.806 624.973 917.941 637.856 920.416C649.127 922.578 659.741 927.348 668.842 934.333C678.009 941.482 683.567 949.6 691.018 957.978C717.171 987.364 736.923 1021.91 775.548 1036.74C796.248 1044.69 818.35 1047.21 840.183 1041.97C866.172 1035.79 888.617 1019.49 902.536 996.711C926.824 956.219 914.001 920.565 902.021 879.998C894.711 855.257 883.328 823.389 877.189 799.2Z" fill="#0B446D"/>
<path d="M890.2 950.2C889.902 957.533 873.47 968.851 868.461 973.663C867.084 974.983 865.975 980.69 864.583 982.533C855.615 988.859 845.003 987.718 835.707 991.515C829.82 993.925 832.953 998.11 823.435 998.199C812.45 998.296 808.572 984.89 804.233 989.128C803.749 989.65 803.258 990.172 802.775 990.687L801.182 990.672L798.919 987.39C792.958 988.971 783.603 992.589 778.245 989.575C774.68 987.576 773.392 982.831 771.063 981.705C762.75 977.684 753.61 975.371 745.55 970.693C742.588 968.978 740.184 967.694 737.2 965.814L737.602 965.143C745.052 968.217 752.33 973.036 760.145 976.125C807.329 994.775 857.952 993.649 890.2 950.2Z" fill="#40494E"/>
<path d="M243.816 960.2C262.588 979.278 285.208 988.007 312.047 988.398C340.194 988.803 362.523 979.838 386.884 967.227L387.2 967.772C386.039 969.327 371.902 975.942 368.816 978.019C359.058 984.589 344.139 984.361 332.967 988.206C328.404 989.775 323.658 997.79 317.598 995.919C314.566 994.917 307.449 992.921 305.77 990.32C308.038 989.149 308.876 989.657 311.854 989.724C307.752 987.867 281.409 987.271 275.903 987.271C274.124 987.271 271.024 986.482 269.583 985.363C268.04 984.17 267.544 980.089 266.218 979.072C258.582 973.223 249.359 968.774 243.2 961.231L243.816 960.2Z" fill="#40494E"/>
<path d="M333.378 806.307C333.312 793.909 330.915 772.561 340.148 763.439C350.234 753.479 380.305 753.86 390.018 764.194C398.603 773.331 396.213 794.365 396.029 806.598C439.288 806.965 444.25 803.465 444.134 851.516C445.078 878.068 436.003 883.758 410.773 883.452L396.2 883.227C396.284 890.922 396.527 897.614 395.58 905.293C397.167 922.185 391.106 932.661 373.006 933.85C351.759 935.241 330.505 933.7 333.897 906.183L333.747 904.404C332.593 900.134 332.989 888.2 333.025 883.257C307.013 883.055 283.179 889.336 285.336 853.063C285.204 806.89 286.673 805.776 333.378 806.307Z" fill="#060D3C"/>
<path d="M394.959 906.2C396.539 922.562 390.506 932.709 372.488 933.861C351.337 935.208 330.181 933.716 333.557 907.062C340.821 921.533 350.826 922.562 365.958 922.489C380.617 922.424 388.967 920.056 394.959 906.2Z" fill="#40494E"/>
<path d="M285.334 853.2C291.767 876.534 314.221 872.051 332.915 871.702C332.994 882.495 333.35 894.514 333.128 905.2C331.989 900.876 332.38 888.788 332.416 883.782C306.735 883.578 283.205 889.939 285.334 853.2Z" fill="#40494E"/>
<path d="M395.291 871.522C415.004 871.558 439.253 876.245 444.132 852.2C445.096 877.965 435.842 883.486 410.114 883.189L395.254 882.971C395.126 879.322 395.261 875.208 395.291 871.522Z" fill="#40494E"/>
<path d="M347.012 780.61C347.932 771.424 355.127 771.521 363.05 771.26C370.093 771.021 381.569 771.043 381.563 780.64C381.146 790.715 380.853 804.644 381.501 814.637C386.161 820.335 385.491 818.916 391.958 820.53C403.249 823.345 428.149 813.375 429.2 830.388C428.954 835.736 428.898 841.091 429.032 846.445C429.66 871.077 384.026 843.675 381.689 866.103C380.792 874.707 381.76 885.416 381.683 895.103C381.55 911.691 368.149 906.134 356.439 906.881C354.174 906.747 349.701 905.148 348.503 903.154C340.998 890.667 357.37 862.831 337.749 857.073C325.758 853.548 299.808 865.535 299.27 846.543C299.476 840.657 299.499 836.378 299.202 830.515C298.976 814.577 322.325 822.524 332.577 820.888C340.598 819.604 341.491 821.179 346.583 814.45C347.865 808.811 347.712 786.831 347.012 780.61Z" fill="#FEC863"/>
<path d="M371.484 897.367C371.034 837.896 375.873 849.463 429.194 847.268C429.817 871.566 384.454 844.534 382.131 866.659C381.239 875.146 382.201 885.711 382.125 895.267C381.993 911.63 368.671 906.149 357.031 906.885C354.779 906.753 350.332 905.176 349.142 903.209C341.681 890.891 357.956 863.432 338.451 857.751C326.531 854.274 300.735 866.099 300.2 847.363C354.654 847.297 358.288 842.007 357.861 897.426L371.484 897.367Z" fill="#C0944A"/>
<path d="M381.12 816.2C385.817 821.61 385.142 820.263 391.661 821.795C403.042 824.468 428.141 815.002 429.2 831.154C417.378 830.927 405.371 831.381 393.531 831.112C390.032 831.034 383.371 830.225 381.086 827.261C379.316 824.964 380.67 819.093 381.12 816.2Z" fill="#FEFEFC"/>
<path d="M346.851 814.2C352.59 830.289 338.831 832.4 327.912 831.947C318.634 831.567 308.425 832.681 299.202 831.939C298.974 814.34 322.455 823.115 332.766 821.309C340.832 819.89 341.73 821.63 346.851 814.2Z" fill="#FEFEFC"/>
<path d="M347.2 781.066C348.105 771.435 355.185 771.537 362.982 771.262C369.912 771.012 381.205 771.035 381.2 781.098C369.867 781.246 358.532 781.231 347.2 781.066Z" fill="#FEFEFC"/>
<path d="M666.371 849.963C664.371 837.415 664.109 827.366 672.37 816.413C678.153 808.819 686.766 803.835 696.286 802.574C705.911 801.172 715.7 803.746 723.355 809.686C730.912 815.523 735.811 824.111 736.957 833.536C737.713 840.107 736.62 845.951 734.845 852.233C735.197 884.33 697.23 895.298 675.381 874.785C667.591 867.473 666.461 860.064 666.371 849.963Z" fill="#060D3C"/>
<path d="M666.2 850.2C671.755 860.896 677.642 868.417 690.132 872.336C699.34 875.194 709.325 874.428 717.967 870.2C726.148 866.111 730.918 860.167 735.198 852.454C735.552 884.336 697.295 895.23 675.279 874.855C667.43 867.592 666.291 860.233 666.2 850.2Z" fill="#40494E"/>
<path d="M679.775 826.67C683.847 818.422 692.123 813.207 701.17 813.2C710.218 813.185 718.508 818.37 722.602 826.611C725.021 831.475 725.778 837.024 724.758 842.38C722.245 855.56 709.81 864.218 696.872 861.793C683.935 859.376 675.317 846.768 677.553 833.536C677.961 831.148 678.704 828.835 679.775 826.67Z" fill="#517FFE"/>
<path d="M677.556 834.2C677.637 840.078 678.762 844.692 683.512 848.405C698.378 860.022 714.51 854.762 725.2 842.839C722.663 855.714 710.113 864.171 697.055 861.803C683.997 859.441 675.299 847.126 677.556 834.2Z" fill="#3E56B7"/>
<path d="M679.2 826.2C683.384 818.239 691.886 813.207 701.181 813.2C710.477 813.186 718.994 818.189 723.2 826.143C721.03 825.64 715.334 821.247 712.557 820.055C697.559 813.645 690.838 822.833 679.2 826.2Z" fill="#FEFEFC"/>
<path d="M728.44 915.664C722.869 900.62 727.939 883.703 740.872 874.196C753.797 864.689 771.464 864.891 784.18 874.681C796.889 884.479 801.578 901.5 795.672 916.417C795.956 924.969 794.305 932.095 788.825 938.819C772.592 958.706 736.332 954.34 729.828 927.85C728.753 923.462 728.589 920.081 728.44 915.664Z" fill="#060D3C"/>
<path d="M729.2 916.2C734.354 929.966 747.571 939.168 762.424 939.329C777.278 939.498 790.703 930.591 796.17 916.942C796.452 925.365 794.809 932.384 789.349 939.006C773.179 958.592 737.062 954.293 730.583 928.202C729.512 923.88 729.349 920.551 729.2 916.2Z" fill="#40494E"/>
<path d="M741.163 891.132C745.516 883.165 753.987 878.2 763.209 878.2C772.431 878.207 780.903 883.187 785.248 891.154C787.683 895.606 788.646 900.69 788.009 905.706C786.469 917.969 775.844 927.185 763.232 927.2C750.628 927.215 739.98 918.029 738.395 905.766C737.75 900.727 738.713 895.613 741.163 891.132Z" fill="#7CD559"/>
<path d="M738.2 906.258C752.925 923.511 772.849 924.695 787.2 906.2C785.679 918.181 775.186 927.185 762.73 927.2C750.281 927.215 739.765 918.239 738.2 906.258Z" fill="#4F933E"/>
<path d="M741.2 891.178C745.446 883.182 753.709 878.2 762.704 878.2C771.699 878.207 779.961 883.205 784.2 891.2C764.161 879.9 761.172 879.266 741.2 891.178Z" fill="#FEFEFC"/>
<path d="M729.967 787.898C723.661 772.719 728.4 755.16 741.463 745.318C754.526 735.475 772.55 735.878 785.17 746.295C797.79 756.713 801.76 774.465 794.796 789.338C796.725 807.605 779.899 820.911 762.903 821.194C753.602 821.366 744.642 817.642 738.159 810.904C731.66 804.128 729.849 796.987 729.967 787.898Z" fill="#060D3C"/>
<path d="M730.205 788.2C735.626 801.126 748.145 809.652 762.165 809.955C776.177 810.265 789.059 802.301 795.048 789.627C796.978 807.729 780.148 820.913 763.148 821.194C753.846 821.364 744.884 817.675 738.398 810.997C731.899 804.283 730.087 797.207 730.205 788.2Z" fill="#40494E"/>
<path d="M740.48 763.304C749.595 744.204 777.479 744.552 786.04 764.053C788.392 768.917 788.323 771.512 788.093 776.769C787.155 781.604 785.702 785.519 782.428 789.412C778.14 794.476 771.891 797.62 765.135 798.117C758.334 798.658 751.578 796.545 746.398 792.252C740.779 787.506 738.789 782.167 738.259 775.22C738.028 770.378 738.42 767.701 740.48 763.304Z" fill="#EBF94E"/>
<path d="M738.2 776.2C752.014 794.067 772.418 795.416 787.2 777.684C786.278 782.312 784.85 786.06 781.63 789.787C777.414 794.635 771.27 797.645 764.627 798.12C757.939 798.638 751.296 796.615 746.203 792.505C740.679 787.962 738.721 782.851 738.2 776.2Z" fill="#D3CE4C"/>
<path d="M740.2 763.444C749.403 744.154 777.556 744.506 786.2 764.2C772.45 756.435 765.512 749.913 748.286 758.943C745.678 760.314 743.009 762.95 740.2 763.444Z" fill="#FEFEFC"/>
<path d="M789.03 851.682C786.388 840.272 785.876 830.354 792.514 819.789C797.511 811.807 805.587 806.127 814.919 804.031C824.349 801.978 834.238 803.766 842.29 808.989C850.343 814.206 855.874 822.416 857.583 831.715C858.9 838.749 857.937 845.201 856.311 852.065C857.568 894.184 790.911 898.392 789.03 851.682Z" fill="#060D3C"/>
<path d="M789.2 852.2C794.662 861.979 800.441 869.012 811.962 872.561C820.966 875.285 830.709 874.321 838.967 869.881C847.743 865.173 850.511 860.313 855.183 852.577C856.415 894.045 791.045 898.189 789.2 852.2Z" fill="#40494E"/>
<path d="M800.289 828.131C803.449 821.609 807.566 817.276 814.539 814.706C820.722 812.38 827.596 812.76 833.475 815.763C839.217 818.712 843.205 823.35 845.385 829.385L846.707 832.609C847.778 840.081 847.368 846.444 842.81 852.852C838.898 858.364 832.89 862.013 826.198 862.94C811.88 864.947 798.58 855.141 798.2 840.271L798.344 838.409C798.701 833.452 798.724 832.958 800.289 828.131Z" fill="#FC6362"/>
<path d="M846.707 833.2C847.778 840.528 847.368 846.768 842.81 853.052C838.898 858.457 832.89 862.036 826.198 862.945C811.88 864.913 798.58 855.296 798.2 840.715C812.488 861.73 847.064 857.51 846.707 833.2Z" fill="#AE3C42"/>
<path d="M801.2 828.883C804.283 822.032 808.3 817.481 815.103 814.782C821.136 812.339 827.843 812.738 833.579 815.892C839.182 818.99 843.073 823.86 845.2 830.2C827.843 815.948 819.231 816.315 801.2 828.883Z" fill="#FEFEFC"/>
<path d="M495.695 858.425C491.714 833.121 512.452 832.835 531.884 835.07C544.144 836.477 548.752 846.16 546.748 858.049C547.29 867.544 543.365 872.608 535.291 877.213C521.833 878.003 496.322 882.54 495.683 862.367C495.653 861.051 495.656 859.734 495.695 858.425Z" fill="#060D3C"/>
<path d="M496.232 857.592C505.093 871.926 519.123 869.777 533.7 868.021C540.177 867.237 543.844 862.642 547.151 857.2C547.691 867.095 543.776 872.373 535.724 877.171C522.301 877.995 496.858 882.723 496.22 861.701C496.19 860.329 496.194 858.956 496.232 857.592Z" fill="#40494E"/>
<path d="M506.559 849.269C510.128 845.618 513.07 845.313 518.032 845.352C524.895 845.407 531.933 843.874 536.733 849.473C536.949 850.278 537.088 851.826 537.2 852.717C534.726 861.083 521.028 859.168 514.264 858.62C508.553 858.167 505.026 855.54 506.559 849.269Z" fill="#3E56B7"/>
<path d="M507.2 849.128C510.63 845.603 513.457 845.309 518.226 845.347C524.823 845.4 531.587 843.92 536.2 849.325C533.395 850.917 511.186 850.019 507.2 849.128Z" fill="#AFCDFC"/>
<path d="M580.457 858.228C578.089 834.505 592.366 833.745 611.439 834.309C626.87 834.768 634.402 842.779 631.637 858.258C632.566 868.405 628.684 872.151 620.702 877.085C611.132 877.25 601.562 877.235 591.991 877.055C591.811 876.949 591.631 876.844 591.459 876.739L590.582 876.197C582.78 871.481 580.105 867.502 580.457 858.228Z" fill="#060D3C"/>
<path d="M580.231 859.2C587.608 869.648 596.405 869.648 608.784 869.569C620.048 869.505 626.044 868.292 632.063 859.229C633.004 868.855 629.072 872.409 620.989 877.091C611.297 877.248 601.604 877.233 591.912 877.062C591.73 876.962 591.547 876.862 591.373 876.762L590.485 876.249C582.584 871.774 579.874 867.999 580.231 859.2Z" fill="#40494E"/>
<path d="M593.181 847.442C596.755 844.318 615.85 844.266 620.148 848.511C621.662 851.388 621.364 852.285 620.371 855.08C614.014 861.568 583.174 861.351 593.181 847.442Z" fill="#CAF825"/>
<path d="M593.2 847.257C596.779 844.391 615.897 844.343 620.2 848.237C617.764 849.636 597.287 849.259 593.91 848.676L593.2 847.257Z" fill="#F4FCAE"/>
</svg>
