<svg width="225" height="225" viewBox="0 0 225 225" fill="none" xmlns="http://www.w3.org/2000/svg">
<path d="M98.8045 42.7289C105.627 42.4244 162.692 41.97 164.025 48.3983C165.185 53.9952 161.474 78.4035 160.7 85.5824L153.598 151.543C152.936 157.567 152.623 163.801 151.888 169.827C151.456 173.368 151.523 178.618 150.23 181.789C146.896 182.789 130.87 182.411 126.673 182.404L93.6677 182.41C89.3763 182.411 77.9087 182.888 74.4237 181.628C73.7106 179.268 73.5661 174.34 73.2718 171.703C72.561 165.336 72.1036 158.906 71.498 152.534C71.1264 148.624 70.3851 144.637 69.9124 140.721L67.0485 114.967C65.9712 105.308 65.3085 95.5962 64.2663 85.9313C63.9172 82.6923 63.3351 79.4944 62.9374 76.2642C62.4031 71.9224 62.0511 67.5475 61.5958 63.1956C61.1607 59.0386 60.4921 54.6216 60.6283 50.4402C60.6529 49.6828 60.7142 48.4387 61.2486 47.8417C65.1413 43.4925 92.3718 42.9746 98.8045 42.7289ZM71.984 112.115C86.3267 108.379 96.7347 108.373 111.178 112.362C116.792 113.912 121.042 115.482 126.99 115.929C133.538 116.421 139.627 116.347 146.135 115.173C148.407 114.763 150.654 113.942 152.786 113.608L153.364 109.236C154.756 99.3573 155.57 89.2384 156.696 79.3173C157.078 75.9575 157.754 72.6047 158.126 69.2605C158.658 64.4816 159.008 59.6123 159.504 54.8299C144.059 59.3862 81.2312 59.306 65.5794 54.8686C65.9811 60.1658 66.4933 65.5901 67.0088 70.8779C67.2272 73.1184 67.8395 75.5805 68.1085 77.968L71.984 112.115ZM113.544 53.6252C124.641 53.4199 135.555 53.0809 146.584 51.7871C149.341 51.4637 154.255 51.1543 156.806 50.5846C152.333 49.3266 147.829 48.8244 143.22 48.395C132.691 47.4144 122.24 47.3311 111.675 47.3513C104.446 47.397 75.1378 47.6928 69.7683 50.2998L69.6677 50.5789C70.5828 51.177 87.7505 52.7041 90.1616 52.8623C97.5725 53.349 106.07 53.5423 113.544 53.6252Z" fill="#74EBAF"/>
</svg>
