<svg width="225" height="225" viewBox="0 0 225 225" fill="none" xmlns="http://www.w3.org/2000/svg">
<path d="M87.6087 21.1409C88.572 21.1243 90.3786 21.1125 91.168 21.9333C93.3477 24.1997 103.173 38.7199 95.7399 39.5072C94.5964 39.5202 93.1177 39.5465 92.0498 39.2011C90.929 37.8375 84.8138 27.6864 84.5868 26.3924C84.5789 26.3467 84.5721 26.301 84.5639 26.2553C84.3789 25.2081 84.5534 24.2272 84.7142 23.1894C85.7434 22.38 86.4584 21.7858 87.6087 21.1409Z" fill="#74EBAF"/>
<path d="M135.36 21.1612C137.886 20.9689 138.327 21.6338 140.318 23.2172C140.433 24.0493 140.638 25.7959 140.266 26.5803C138.426 30.4615 135.914 34.4711 133.643 38.1509C133.04 39.1287 133.012 39.3145 132.111 39.5086C130.521 39.507 129.658 39.4714 128.086 39.2658C126.042 36.1553 125.705 34.5832 127.933 31.2673C130.223 27.8578 131.54 22.9407 135.36 21.1612Z" fill="#74EBAF"/>
<path d="M110.255 11.7249C112.023 11.6812 112.99 11.7001 114.745 11.8804C116.545 14.2107 116.816 15.8528 116.775 18.8342C116.722 22.703 117.494 28.5625 114.642 31.5134C112.826 31.6118 111.956 31.5734 110.139 31.4075C107.427 27.0007 108.38 24.1284 108.25 19.1454C108.164 15.8683 108.389 14.4365 110.255 11.7249Z" fill="#74EBAF"/>
<path d="M188.06 198.837C187.329 195.697 186.105 192.785 185.246 189.69L178.033 163.356C175.902 155.755 174.084 146.691 171.503 139.502C170.347 139.264 165.979 139.585 164.093 139.426C152.095 138.598 142.816 131.641 135.774 122.311C132.165 117.53 129.389 111.482 126.887 105.974C124.509 100.742 123.578 94.8228 122.247 89.2765C120.524 82.2984 119.494 75.4539 119.541 68.235C119.557 65.9099 118.623 58.9155 120.59 57.3188C123.48 54.9723 128.016 54.766 131.628 53.7133C135.985 52.3598 140.684 51.545 145.023 50.284C154.658 47.4836 164.379 44.9135 174.162 42.6593C178.694 41.6151 182.132 38.7266 185.451 43.6274C187.379 46.4748 188.835 49.4132 190.355 52.5061C198.473 69.1155 204.315 87.9862 202.038 106.647C200.621 117.131 195.458 127.418 186.772 133.511C184.644 135.003 182.555 135.628 180.041 137.488C181.184 141.041 181.702 144.847 182.764 148.379C183.759 151.686 184.705 154.9 185.641 158.224C187.082 163.338 188.472 168.391 189.665 173.573C190.111 175.696 191.161 177.918 191.612 180.007C192.827 185.634 194.778 191.168 196.124 196.727C203.694 194.718 211.37 192.62 218.999 190.86C222.069 190.152 223.325 191.192 225 193.605V195.353C221.875 200.454 220.746 198.922 215.248 200.526C210.003 202.249 204.103 203.011 198.918 204.604C190.356 207.235 181.837 209.564 173.07 211.472C169.784 212.188 166.683 213.964 163.271 213.22C162.316 212.455 161.584 210.663 161.218 209.512C162.265 205.607 163.311 205.031 167.204 204.293C174.278 202.954 181.065 200.342 188.06 198.837ZM127.853 63.5368C127.977 66.6846 128.056 70.4369 128.368 73.5271C128.847 78.2596 129.726 83.1292 130.396 87.8436C141.075 89.5832 145.537 89.5065 156.138 89.0113C162.637 88.5769 169.011 87.3604 175.821 86.9104C175.538 84.9426 175.179 82.8558 174.796 80.9049C174.189 77.8039 174.179 76.7094 175.656 73.976C177.988 73.2771 178.877 73.0574 181.211 74.0151C182.63 76.7114 184.352 83.1114 184.37 86.0531C186.806 86.0709 190.526 85.9942 192.855 86.1836C190.306 74.8209 187.707 65.4309 182.088 55.1736C181.419 53.9532 180.421 50.8887 179.55 50.2319L178.764 50.1245C173.629 51.2866 169.065 52.7135 164.043 54.0512C155.895 56.2217 147.629 57.985 139.577 60.5299C135.761 61.7359 131.685 62.2965 127.853 63.5368ZM133.068 97.264C134.093 99.4834 134.472 101.554 135.334 103.731C137.906 110.227 142.894 118.848 148.197 123.376C155.703 129.44 160.425 131.882 170.343 130.891C175.904 130.336 179.095 128.478 183.324 125.216C192.054 118.482 194.043 107.13 193.578 96.7335C193.552 96.1376 193.567 95.3743 193.603 94.7674C191.314 94.5016 188.486 94.2537 186.177 94.3598C181.129 94.6024 176.09 95.0245 171.072 95.6255C163.851 96.4991 157.378 97.7232 150.015 97.9253C144.249 98.084 138.809 97.6129 133.068 97.264Z" fill="#74EBAF"/>
<path d="M173.727 61.8077C176.828 61.5407 179.808 61.8215 179.452 66.251C179.312 67.984 177.968 69.1894 176.594 70.1606C172.7 70.5741 172.058 68.7352 170.711 65.9071C171.109 64.9671 171.491 63.9509 171.87 62.9966C172.45 62.7059 173.17 62.1858 173.727 61.8077Z" fill="#74EBAF"/>
<path d="M42.5316 40.814C45.0938 40.8067 48.8527 42.1047 51.4791 42.7441C68.2486 46.8266 84.838 51.6445 101.594 55.7723C102.686 56.0415 104.01 56.9485 104.852 57.6908C106.407 61.1655 105.558 70.5316 105.183 74.208C103.23 93.3335 97.8609 114.042 84.1357 128.194C82.5805 129.797 80.8053 130.937 79.1334 132.41L78.8581 131.671C77.7072 131.907 77.3881 132.063 76.7204 132.952C76.8632 133.449 76.9731 133.378 77.5217 133.71C72.3423 137.349 65.4917 139.337 59.2016 139.483C58.173 139.749 53.7704 138.765 53.3764 139.784C52.0475 143.22 51.293 146.678 50.3657 150.219C50.1425 151.071 49.9291 151.973 49.6569 152.799C48.4334 156.512 47.7231 160.372 46.6715 164.122L39.7292 189.515C38.8514 192.746 37.6545 195.727 36.971 199.014C40.8557 199.439 45.3852 201.194 49.186 202.201C53.0435 203.224 57.2906 203.965 61.0772 205.237C61.6724 205.437 62.3841 206.341 62.7847 206.839C62.9912 207.097 63.1942 207.357 63.3935 207.62C63.4911 209.45 63.2854 211.561 62.0877 213.104C61.9178 213.323 61.5441 213.407 61.2837 213.398C57.7354 213.461 54.3584 212.028 50.9041 211.223C44.9451 209.833 39.0043 208.324 33.0902 206.759C30.6299 206.109 28.1834 205.138 25.7008 204.494L9.54202 200.468C6.78863 199.776 3.82696 199.438 1.4347 197.908C0.905882 196.849 0.755415 196.54 0 195.645V193.475C1.31018 191.756 2.55839 190.321 4.9478 190.724C10.5446 191.668 16.0703 193.265 21.5164 194.847C23.9366 195.55 26.4094 196.024 28.8101 196.795C30.7085 189.309 33.3617 180.984 35.3797 173.475L42.253 148.446C43.2277 144.826 43.8875 141.184 44.9602 137.548C42.9403 135.772 41.0353 135.399 39.0298 134.102C34.0207 130.863 27.9747 123.586 25.8014 117.935C22.1265 107.861 21.7237 96.9098 23.442 86.4002C25.4487 74.1265 29.6796 61.9778 35.483 51.0036C37.5987 47.0024 38.6288 43.5056 42.5316 40.814ZM31.5442 90.2958C30.5282 104.029 31.3948 119.181 44.3457 127.245C50.3347 130.953 57.5585 132.111 64.4062 130.46C73.3254 128.382 81.0549 119.985 85.4635 112.36C88.5118 107.088 93.9511 94.2027 94.1348 88.3446C90.6803 88.2947 87.9609 88.182 84.5134 88.4211C79.8656 88.7381 74.8413 89.5777 70.1266 90.1338C58.8522 91.4638 42.599 92.3952 31.5442 90.2958ZM32.9643 82.087C46.9978 83.6479 60.763 83.0964 74.6354 80.8192C81.9945 79.6111 88.1319 80.0892 95.48 80.0224C95.9326 79.6526 95.7913 79.8144 95.8885 79.0548C96.5597 74.9867 97.1868 67.6279 97.0323 63.4118C85.3512 60.5318 73.1002 57.2324 61.4544 54.0995C59.133 59.0375 54.4285 71.572 49.1489 61.2369C49.7925 58.1287 51.3892 54.4217 53.1745 51.7816C51.3277 51.3018 46.9942 50.1669 45.2098 50.0335C42.1255 57.1559 38.2403 63.8374 36.0134 71.2496C34.9141 74.9079 33.7289 78.3257 32.9643 82.087Z" fill="#74EBAF"/>
<path d="M47.3226 67.9491C49.6229 67.8818 49.9123 67.9023 51.6701 69.3988L52.4862 72.2001C51.798 74.0502 51.4673 76.1855 49.2595 76.3861C47.4121 76.3593 46.7553 76.2558 45.1073 75.4349C44.7876 74.475 44.2315 73.2513 43.8301 72.2955C44.2219 70.9683 44.5389 70.1659 45.0722 68.8937L47.3226 67.9491Z" fill="#74EBAF"/>
<path d="M77.522 133.71C76.9734 133.378 76.8635 133.449 76.7207 132.952C77.3885 132.063 77.7075 131.907 78.8584 131.671L79.1337 132.41C78.575 133.178 78.3748 133.261 77.522 133.71Z" fill="#74EBAF"/>
</svg>
