<svg width="225" height="225" viewBox="0 0 225 225" fill="none" xmlns="http://www.w3.org/2000/svg">
<path d="M74.294 18.7645C76.4423 18.676 77.2206 18.5906 79.2935 18.9819C80.6384 20.2783 81.9627 21.0454 83.2266 22.5656C83.3202 23.8945 83.4245 25.7044 82.995 26.9641L82.9431 27.1135C82.2222 29.249 80.5797 30.6983 79.7799 32.9253C78.4159 36.7226 81.7036 38.3191 83.5698 40.9958C84.2373 41.9534 85.361 43.5769 85.8158 44.613C89.0715 52.0279 86.589 63.5633 78.9496 67.4518C78.286 67.9106 76.9626 67.9521 76.1999 67.7541C66.0321 65.1174 73.0385 57.2433 74.4155 51.738C73.4681 48.3841 72.7054 48.5313 70.5655 45.9845C68.5027 43.5462 67.1766 40.5709 66.7427 37.4068C65.9998 31.7117 67.6605 25.7914 71.681 21.6211C72.5382 20.732 73.4178 19.9264 74.1668 18.9354L74.294 18.7645Z" fill="#74EBAF"/>
<path d="M23.057 84.4486C24.4195 83.5071 25.3969 82.7541 27.1173 82.6501C30.7993 82.428 34.5303 82.4805 38.2173 82.4862L55.3935 82.5091L109.991 82.5144L142.802 82.5029C146.997 82.5001 151.182 82.4533 155.377 82.5394C158.906 82.6119 159.515 82.6822 162.296 84.9628C164.402 89.8334 162.69 102.435 163.236 108.121C163.302 108.808 163.218 110.299 163.164 111.008C166.853 110.958 170.542 110.944 174.231 110.966C182.995 110.983 189.641 111.234 196.225 117.717C201.053 122.47 203.273 127.963 203.205 134.73C203.098 145.455 203.466 156.36 203.028 167.059C202.659 171.548 200.212 176.46 197.208 179.678C192.283 184.956 186.46 187.738 179.198 187.516C174.035 187.358 168.326 187.843 163.216 187.494C163.352 203.811 151.364 220.043 134.888 223.651C133.187 224.022 129.976 224.405 128.497 225H57.2625C53.9629 224.143 50.6782 223.893 47.2913 222.871C35.2158 219.23 23.5323 206.094 22.192 193.396C21.5167 186.998 21.8643 178.747 21.8687 172.248L21.8768 134.702L21.8593 104.425C21.8405 99.4289 21.7639 94.4455 21.9165 89.4502C21.992 86.9757 21.9356 86.6995 23.057 84.4486ZM143.478 204.288C151.391 196.07 150.765 186.043 150.665 175.503C150.641 173.085 150.655 170.633 150.653 168.213L150.662 119.566L150.648 104.516C150.647 101.88 150.552 97.7423 150.855 95.2007C143.297 94.7331 132.945 95.0531 125.159 95.0539L77.462 95.0603L48.3965 95.0515C45.6284 95.0504 36.8181 94.8656 34.3277 95.206C34.8113 102.038 34.4995 112.787 34.498 119.934L34.4977 165.564C34.4993 170.815 34.4222 176.247 34.4815 181.426C34.5896 190.855 34.7249 196.719 41.1535 203.794C49.3842 212.853 57.1854 211.913 68.2638 211.9L87.7239 211.877L113.564 211.894C120.516 211.901 128.06 212.524 134.697 210.314C138.072 209.189 140.789 206.565 143.478 204.288ZM187.357 171.328C190.875 167.161 190.523 162.691 190.549 157.478C190.572 150.081 190.657 142.233 190.401 134.886C190.261 130.862 187.564 125.365 183.645 124.465C177.783 123.119 169.266 124.094 163.205 123.844C163.364 126.775 163.24 130.196 163.221 133.178L163.205 147.595C163.206 155.82 163.551 166.698 163.144 174.728C167.374 174.73 171.659 174.739 175.884 174.756C181.031 174.775 183.339 174.772 187.357 171.328Z" fill="#74EBAF"/>
<path d="M103.497 0H106.137C107.864 1.29096 109.664 0.975768 110.925 3.95462C113.264 9.48399 106.866 12.8208 105.478 17.6871C104.391 21.4986 104.72 24.1787 106.484 27.6691C106.625 27.7488 106.763 27.8312 106.9 27.9163C120.121 36.1263 121.775 50.7615 112.86 63.1576C111.562 64.9633 109.49 66.5271 108.434 68.3154C107.493 68.5584 106.147 68.9361 105.21 68.9898L105.072 68.9968C103.863 69.0653 102.942 68.6635 101.804 68.2671C101.23 67.2339 99.2081 65.2463 98.9271 64.5429C97.0724 59.9038 103.666 55.4739 105.052 50.2306C107.672 40.3139 97.961 39.5451 94.5873 32.7999C91.4916 26.6111 90.9299 21.7552 92.7084 15.2947C94.3612 9.29081 97.9335 3.00248 103.497 0Z" fill="#74EBAF"/>
</svg>
