<svg width="224" height="225" viewBox="0 0 224 225" fill="none" xmlns="http://www.w3.org/2000/svg">
<path d="M72.761 145.64C70.2666 143.083 68.3464 141.511 65.6365 139.209C64.7042 138.418 63.2471 136.182 62.4277 135.157C58.5834 130.347 56.6984 125.987 55.5823 119.874C54.022 111.328 55.1958 100.046 60.1754 92.7045C61.0598 91.4005 64.261 86.9201 65.2233 85.8887C71.8567 78.7776 82.398 73.4169 91.8253 71.6533C103.357 69.4068 115.309 71.0975 125.765 76.4545C131.246 79.2378 135.068 82.2102 139.393 86.5773C140.163 87.4681 140.712 88.8403 141.467 89.6969C150.827 100.312 151.156 119.208 144.316 131.166C143.065 133.353 140.477 136.422 138.95 138.642L138.553 138.026C137.325 138.02 135.791 140.347 135.605 141.466C133.871 142.691 132.491 144.41 130.542 145.642C120.576 151.941 109.783 154.76 97.9463 153.818C93.8623 153.493 89.6831 152.279 85.7412 152.133C81.8693 154.62 78.912 156.906 75.3556 159.791C73.8449 161.016 72.2382 161.898 70.5405 163.331L70.3281 163.298C70.2126 161.095 72.3311 148.73 72.761 145.64ZM103.797 134.172C115.992 133.142 125.019 122.386 123.919 110.197C122.818 98.0088 112.01 89.0433 99.828 90.214C87.7451 91.3754 78.8683 102.077 79.9598 114.166C81.0514 126.256 91.7017 135.194 103.797 134.172Z" fill="#FFD166"/>
<path d="M99.2756 93.2432C109.716 91.7612 119.382 99.0219 120.867 109.462C122.352 119.902 115.093 129.57 104.654 131.058C94.2098 132.546 84.5376 125.284 83.052 114.84C81.5667 104.396 88.831 94.7257 99.2756 93.2432ZM95.6245 120.055C95.8255 120.773 95.981 121.677 96.5196 122.146C98.4649 122.564 99.247 119.758 103.795 120.409C105.394 120.86 106.803 124.047 108.304 121.647C108.504 118.17 102.962 117.037 100.234 117.346C98.5995 118.153 97.0877 118.952 95.6245 120.055ZM98.2359 108.929C98.5308 108.174 98.7069 107.874 98.5667 107.076C97.6429 105.476 93.4967 105.582 91.5621 105.135C89.0976 109.929 95.5459 108.449 98.2359 108.929ZM107.571 108.753C109.182 108.76 112.819 108.977 113.134 106.687C112.577 105.225 111.703 105.337 110.347 105.515C108.716 105.765 106.499 105.715 105.501 106.778C104.615 108.679 106.237 108.826 107.571 108.753Z" fill="#FFD166"/>
<path d="M119.589 64.623C124.935 64.2286 130.048 65.0911 135.197 66.3642C147.283 69.2401 157.694 76.8804 164.063 87.5484C173.036 102.561 169.442 122.843 156.441 134.258C154.624 135.853 153.291 137.546 151.154 138.81C150.871 143.948 153.182 151.422 153.436 156.904L153.106 157.258L152.718 157.199C151.464 155.36 147.997 153.652 145.862 151.633C141.032 149.501 141.735 145.762 134.66 145.881C134.887 145.772 135.112 145.658 135.334 145.538C138.551 143.798 144.9 136.233 146.788 132.861C163.292 103.385 140.703 72.0598 109.691 68.2803C108.287 68.109 106.282 68.1164 104.983 67.7419L104.841 67.4584C106.01 66.1595 117.307 64.7715 119.589 64.623Z" fill="#FFD166"/>
<path d="M135.605 141.466C135.791 140.347 137.325 138.02 138.554 138.026L138.951 138.642C138.102 139.816 136.812 140.687 135.605 141.466Z" fill="#FFD166"/>
</svg>
