<svg width="1126" height="1126" viewBox="0 0 1126 1126" fill="none" xmlns="http://www.w3.org/2000/svg">
<g clip-path="url(#clip0_1_6)">
<rect x="0.199997" y="0.200012" width="1126" height="1126" rx="81" fill="white"/>
<path d="M555.255 153.255C557.319 151.837 571.359 150.444 573.803 151.673C572.611 156.016 572.998 161.73 573.073 166.372C573.073 183.609 572.67 202.529 573.073 219.614C578.58 210.32 582.783 203.002 590.183 194.973C609.998 173.446 638.897 165.985 667.126 171.933C685.637 175.834 687.559 176.165 686.322 194.913C685.07 213.991 681.866 229.809 670.8 245.793C659.189 262.287 641.543 273.536 621.698 277.101C604.595 280.157 589.348 277.095 573.281 270.982C572.536 292.254 572.953 315.502 573.058 336.916C600.817 314.896 630.67 302.865 666.775 306.989C667.811 307.107 668.84 307.234 669.875 307.37C682.492 308.726 697.515 312.227 709.036 317.632C730.893 323.502 772.401 361.461 779.168 383.036C784.593 391.332 789.288 406.066 791.203 415.942C792.768 418.506 803.015 423.026 806.197 424.806C811.227 427.646 816.086 430.793 820.728 434.228C870.315 471.486 892.991 534.684 878.415 594.985C873.504 615.734 863.951 635.097 850.462 651.611C841.132 662.854 831.534 670.921 820.043 679.533C818.627 680.599 818.724 680.949 818.657 682.523L819.916 683.79C832.696 684.647 852.266 701.669 860.724 710.884C876.358 727.928 881.023 746.947 887.671 768.666L900.943 811.79L921.108 877.624C929.089 904.315 935.863 923.812 935.148 952.248C933.441 1019.84 871.909 1070.9 805.563 1064.69C759.189 1060.34 730.55 1037.19 701.86 1003.04C694.08 993.635 686.36 984.166 678.714 974.645C664.122 956.528 652.788 941.288 627.525 940.058C604.461 938.94 580.89 939.29 557.781 939.328C536.5 939.357 514.631 938.276 493.574 940.588C485.431 941.654 473.58 946.798 467.791 952.494C443.808 976.114 425.505 1005.59 400.687 1028.57C373.866 1053.39 338.909 1067.22 302.183 1064.64C270.159 1062.5 240.312 1047.67 219.262 1023.44C190.145 989.684 185.117 946.336 197.609 904.412C200.589 894.414 203.613 884.424 206.685 874.44L226.581 810.09L240.27 765.162C243.196 755.589 246.333 744.01 250.464 735.123C256.389 722.53 264.931 711.354 275.519 702.325C278.772 699.574 286.028 694.086 289.752 692.178C297.49 687.19 301.85 685.527 310.595 682.388C288.903 665.881 274.345 653.013 261.455 628.193C229.584 566.817 245.035 486.775 297.117 441.418C309.826 430.35 322.464 423.378 337.193 415.778C340.899 394.549 352.184 373.094 365.943 356.707C389.952 327.893 424.508 309.917 461.874 306.801C462.206 306.744 463.355 306.534 463.619 306.522C501.585 304.722 526.617 314.609 554.837 337.363C555.836 317.099 555.202 291.834 555.21 271.163C536.449 276.051 526.378 280.903 506.047 276.875C486.158 273.12 468.636 261.47 457.473 244.579C446.641 228.165 444.589 214.378 442.599 195.516C440.448 175.133 443.669 175.204 462.641 171.555C490.552 166.187 519.202 174.13 538.728 195.1C546.171 203.04 550.06 210.548 555.202 219.957C555.679 201.556 555.255 181.379 555.314 162.788L555.255 153.255Z" fill="#060D3C"/>
<path d="M337.349 415.999C341.049 394.804 352.32 373.385 366.061 357.024C390.038 328.258 424.549 310.311 461.866 307.2L473.463 307.79C464.699 307.937 454.299 309.069 445.584 310.535C441.065 311.295 437.963 314.003 432.068 314.339L431.386 315.143L431.523 314.437L431.2 315.109C437.576 317.972 446.544 318.609 453.06 321.61C453.687 321.899 455.04 325.088 455.369 325.93C459.114 328.537 495.666 322.173 505.452 332.655C527.141 341.018 539.252 349.465 553.418 368.089L553.45 385.569L553.464 534.623C553.475 547.573 554.938 585.638 552.678 596.297C546.641 624.739 499.229 662.522 471.982 636.038C457.045 623.28 442.756 639.693 459.612 653.984C493.968 677.841 527.189 663.765 553.591 635.83C553.606 649.369 553.332 664.212 553.837 677.647C555.258 684.994 556.627 691.239 552.089 697.73C544.307 708.858 519.298 728.33 506.497 733.913C499.618 736.913 490.995 738.409 483.566 739.54C464.972 742.369 431.506 735.878 416.367 724.318C411.714 720.768 388.337 699.256 386.141 694.887C384.07 690.763 381.675 685.21 376.828 683.84C362.444 679.784 347.643 705.62 309.21 684.607C299.704 687.711 298.782 689.222 290.48 692.996C289.936 692.043 290.008 692.326 289.97 691.946C297.698 686.967 302.052 685.307 310.785 682.173C289.122 665.693 274.583 652.846 261.71 628.066C229.881 566.791 245.312 486.879 297.326 441.597C310.018 430.547 322.639 423.586 337.349 415.999Z" fill="#8CF2C9"/>
<path d="M337.349 415.999C341.049 394.804 352.32 373.385 366.061 357.024C390.038 328.258 424.549 310.311 461.866 307.2L473.463 307.79C464.699 307.937 454.299 309.069 445.584 310.535C441.065 311.295 437.963 314.003 432.068 314.339L431.386 315.143L431.523 314.437L431.2 315.109C437.576 317.972 446.544 318.609 453.06 321.61C453.687 321.899 455.04 325.088 455.369 325.93C459.114 328.537 495.666 322.173 505.452 332.655C443.625 314.929 381.798 347.757 360.251 408.006C357.937 419.173 357.053 425.6 358.65 437.014L357.735 438.035C358.54 441.517 362.014 452.112 361.767 454.068C357.549 457.853 352.101 458.048 347.174 461.704C344.806 459.016 340.546 446.125 339.498 442.321L338.879 443.342C339.911 448.953 341.62 453.826 343.91 459.047C314.095 467.953 286.997 499.499 274.026 526.844L274.524 527.96C276.047 531.463 277.424 537.038 278.551 540.763C285.627 564.148 301.487 583.487 321.466 597.205C325.505 599.974 332.792 604.507 337.813 604.879C348.646 615.613 355.002 620.392 370.038 623.734C367.27 634.252 365.533 641.971 366.136 652.935C367.296 647.598 366.851 642.752 368.786 637.43C371.171 635.986 382.849 637.616 386.063 638.159C386.755 640.378 385.946 648.186 386.207 651.99L386.918 651.848C387.429 643.482 388.166 633.507 391.776 625.84C393.853 621.426 394.251 621.426 398.069 620.064C405.663 643.296 434.735 657.758 458.091 654.602C458.598 654.394 459.105 654.193 459.612 653.984C493.968 677.841 527.189 663.765 553.591 635.83C553.606 649.369 553.332 664.212 553.837 677.647C555.258 684.994 556.627 691.239 552.089 697.73C544.307 708.858 519.298 728.33 506.497 733.913C499.618 736.913 490.995 738.409 483.566 739.54C464.972 742.369 431.506 735.878 416.367 724.318C411.714 720.768 388.337 699.256 386.141 694.887C384.07 690.763 381.675 685.21 376.828 683.84C362.444 679.784 347.643 705.62 309.21 684.607C299.704 687.711 298.782 689.222 290.48 692.996C289.936 692.043 290.008 692.326 289.97 691.946C297.698 686.967 302.052 685.307 310.785 682.173C289.122 665.693 274.583 652.846 261.71 628.066C229.881 566.791 245.312 486.879 297.326 441.597C310.018 430.547 322.639 423.586 337.349 415.999Z" fill="#465322"/>
<path d="M387.2 651.831C387.708 643.505 388.441 633.579 392.032 625.948C394.097 621.556 394.493 621.556 398.289 620.2C405.842 643.32 434.754 657.713 457.981 654.572C458.485 654.365 458.99 654.165 459.494 653.957C493.661 677.7 526.699 663.691 552.956 635.89C552.971 649.365 552.698 664.136 553.2 677.507L552.831 678.3C551.84 679.226 552.139 678.848 551.448 679.818C541.215 694.175 533.277 703.338 517.525 711.546C496.331 722.591 470.952 723.902 448.342 716.791C426.456 709.761 408.101 694.589 397.062 674.41C393.444 667.803 391.109 660.765 388.426 655.817L387.878 654.824L387.2 651.831Z" fill="#61B99E"/>
<path d="M272.969 526.2L273.468 527.324C274.995 530.854 276.375 536.473 277.505 540.226C284.597 563.792 300.493 583.279 320.518 597.104C324.565 599.894 331.869 604.462 336.902 604.837C347.759 615.654 354.13 620.469 369.2 623.837C366.426 634.436 364.685 642.215 365.289 653.264C365.073 657.614 365.536 659.962 366.171 664.2C347.314 663.847 333.665 660.81 317.641 650.008C291.65 632.501 276.275 604.687 272.046 573.836C270.517 562.682 270.545 549.653 268.2 538.925C269.713 533.782 270.822 531.127 272.969 526.2Z" fill="#6CBE99"/>
<path d="M388.2 654.2L388.747 655.204C391.427 660.211 393.759 667.332 397.373 674.017C408.397 694.434 426.729 709.785 448.587 716.898C471.168 724.093 496.514 722.766 517.681 711.591C533.413 703.286 541.341 694.015 551.561 679.489C552.251 678.507 551.953 678.889 552.943 677.952L553.2 691.444C550.396 695.963 547.176 700.198 543.584 704.103C527.421 721.867 504.913 732.323 481.09 733.14C436.077 734.789 389.578 702.409 388.2 654.2Z" fill="#CAF825"/>
<path d="M369.2 678.198C365.92 678.22 362.642 678.042 359.383 677.67C321.074 673.389 290.121 645.173 275.429 610.435C264.977 585.726 263.471 564.657 266.74 538.2L268.754 539.478C271.08 550.125 271.052 563.057 272.569 574.127C276.766 604.748 292.02 632.353 317.809 649.729C333.708 660.45 347.251 663.465 365.961 663.815C366.868 669.004 367.881 673.084 369.2 678.198Z" fill="#CAF825"/>
<path d="M267.2 537.923C275.431 496.068 295.758 462.449 334.039 441.102C336.066 439.972 336.125 439.991 338.149 440.677L339.147 443.181C340.184 448.786 341.9 453.653 344.2 458.867C314.255 467.763 287.039 499.273 274.012 526.587C271.86 531.47 270.75 534.102 269.233 539.2L267.2 537.923Z" fill="#FEFEFC"/>
<path d="M360.2 407.891C381.724 347.232 443.488 314.18 505.252 332.027C526.918 340.447 539.017 348.952 553.169 367.702L553.2 385.301L551.99 385.506C531.611 362.722 514.645 347.845 482.217 346.046C451.047 344.606 420.569 355.608 397.392 376.667C385.253 387.725 376.305 401.58 368.942 416.2C366.088 413.317 363.17 410.645 360.2 407.891Z" fill="#FEFEFC"/>
<path d="M337.718 604.424C327.385 590.053 322.103 576.451 324.978 557.418C325.926 546.171 334.367 525.285 347.852 538.369C351.703 542.107 345.982 559.675 345.319 565.195C342.032 592.539 376.883 615.628 398.122 594.648C400.839 591.962 406.229 587.507 410.866 589.128C431.947 598.859 407.515 615.798 398.037 619.521C394.215 620.875 393.817 620.875 391.738 625.263C388.124 632.885 387.386 642.802 386.875 651.12L386.163 651.26C385.902 647.479 386.711 639.716 386.019 637.511C382.802 636.97 371.112 635.35 368.724 636.785C366.787 642.077 367.232 646.894 366.071 652.2C365.467 641.299 367.206 633.625 369.977 623.169C354.925 619.846 348.562 615.095 337.718 604.424Z" fill="#060D3C"/>
<path d="M338.2 442.566L338.828 441.539C339.892 445.366 344.215 458.335 346.617 461.039C351.618 457.36 357.146 457.165 361.427 453.356C361.677 451.389 358.151 440.73 357.335 437.227L358.263 436.2C361.788 449.483 368.264 466.621 381.609 473.259C393.899 482.793 408.235 481.437 422.661 481.997C433.369 482.538 436.069 498.286 425.539 500.981C388.926 510.35 357.789 488.895 343.305 458.365C340.982 453.114 339.248 448.211 338.2 442.566Z" fill="#060D3C"/>
<path d="M358.982 436.716C357.44 425.102 358.294 418.563 360.529 407.2C363.4 409.984 366.221 412.684 368.98 415.598C367.739 434.717 367.069 446.758 375.809 464.301C377.524 467.743 379.642 470.951 381.2 474.2C368.5 467.486 362.337 450.152 358.982 436.716Z" fill="#6DAF96"/>
<path d="M467.418 518.277C486.484 517.013 502.946 531.487 504.132 550.555C505.319 569.63 490.779 586.032 471.704 587.14C452.737 588.248 436.448 573.807 435.268 554.845C434.088 535.881 448.461 519.533 467.418 518.277Z" fill="#060D3C"/>
<path d="M477.9 527.423C482.165 526.59 486.546 528.128 489.356 531.443C492.165 534.758 492.961 539.334 491.44 543.404C489.917 547.475 486.313 550.401 482.019 551.06C475.563 552.049 469.501 547.696 468.38 541.26C467.258 534.826 471.49 528.676 477.9 527.423Z" fill="#FEFEFC"/>
<path d="M418.249 389.2C430.486 390.377 429.43 399.777 434.346 409.5C444.344 429.275 470.655 438.628 490.649 428.195C496.159 425.32 501.859 418.198 508.654 417.6C525.236 418.135 519.243 432.811 511.142 439.796C493.209 453.128 473.985 456.469 452.444 450.022C431.588 443.78 406.78 418.882 410.591 396.049C411.103 392.982 415.741 390.374 418.249 389.2Z" fill="#060D3C"/>
<path d="M699.837 315.2C703.378 316.89 705.075 318.21 708.743 317.46C730.565 323.328 772.006 361.278 778.761 382.846C784.178 391.14 788.865 405.87 790.777 415.744C792.34 418.307 802.57 422.826 805.747 424.605C810.769 427.445 815.62 430.591 820.255 434.025C869.761 471.273 892.402 534.454 877.849 594.739C872.946 615.483 863.407 634.84 849.941 651.35C840.626 662.59 831.043 670.655 819.57 679.264C818.157 680.33 818.254 680.681 818.187 682.253L819.444 683.52L818.127 684.012L816.103 682.902C815.33 679.026 823.179 674.494 826.408 672.146C822.792 672.377 819.585 674.352 816.193 675.239C803.559 678.519 792.012 685.063 779.788 689.088C777.058 689.983 760.31 687.203 756.821 686.442C745.177 683.93 747.454 689.797 741.397 696.952C738.778 700.06 733.116 702.632 729.962 705.367C723.712 710.779 715.268 722.75 708.676 727.08C706.168 727.192 707.27 727.498 705.194 726.32C706.801 719.313 711.86 719.775 716.823 715.914C718.266 714.789 720.081 710.145 721.346 708.647C722.938 706.769 726.889 705.591 728.489 703.795C730.051 702.036 730.155 702.848 730.081 701C727.187 701.484 722.507 704.331 720.677 706.597L719.538 706.485C727.596 698.242 730.832 692.361 736.256 682.224L736.762 682.775C735.557 688.783 728.392 695.171 727.983 699.33L729.478 699.814C735.289 697.101 743.176 675.903 740.847 669.314C739.842 666.481 740.192 665.072 740.445 662.113L741.025 655.42C741.263 651.917 741.308 648.629 741.368 645.119C740.519 637.091 739.083 622.474 730.237 620.097C722.544 635.645 711.726 645.603 695.209 651.701C689.213 653.914 674.875 656.247 669.221 653.914C672.733 650.5 674.861 648.935 675.791 643.822C677.814 632.723 667.517 628.922 659.221 634.184C656.119 636.145 652.25 640.334 649.021 641.824C630.785 650.247 606.337 639.238 593.473 625.702C585.111 616.914 577.618 605.741 574.836 593.986C573.884 589.946 574.285 578.259 574.278 573.66L574.36 532.825L574.323 386.777L574.256 366.693C577.648 362.285 581.361 358.128 585.356 354.256C605.928 334.599 631.768 326.505 659.772 327.073C671.624 328.266 677.718 329.296 689.212 332.64C693.037 325.951 695.358 321.845 699.837 315.2Z" fill="#517FFE"/>
<path d="M779.167 382.2C784.563 390.509 789.231 405.267 791.136 415.16C792.692 417.727 802.882 422.255 806.047 424.037C811.049 426.882 815.881 430.035 820.498 433.475C869.81 470.793 892.361 534.092 877.866 594.49C872.982 615.273 863.481 634.667 850.067 651.208C840.789 662.469 831.244 670.549 819.816 679.174C818.408 680.242 818.505 680.593 818.438 682.169L819.69 683.438L818.378 683.931L816.363 682.819C815.592 678.935 823.41 674.395 826.627 672.043C823.025 672.274 819.831 674.253 816.452 675.142C803.868 678.428 792.366 684.984 780.19 689.017C777.47 689.913 760.788 687.128 757.313 686.366C745.715 683.849 747.982 689.726 741.95 696.895C739.341 700.009 733.702 702.586 730.559 705.326C724.334 710.748 715.923 722.741 709.357 727.08C706.859 727.192 707.956 727.498 705.888 726.318C707.489 719.299 712.529 719.761 717.472 715.893C718.909 714.766 720.718 710.113 721.978 708.612C723.564 706.73 727.499 705.55 729.092 703.751C730.648 701.988 730.752 702.802 730.678 700.95C727.795 701.436 723.134 704.288 721.311 706.559L720.177 706.447C728.203 698.187 731.426 692.295 736.829 682.139L737.333 682.692C736.132 688.711 728.996 695.111 728.588 699.277L730.078 699.763C735.866 697.045 743.721 675.807 741.402 669.205C740.401 666.367 740.749 664.956 741.001 661.991L741.579 655.285C741.817 651.775 741.861 648.482 741.92 644.965L742.758 645.211C743.269 639.394 740.757 632.837 739.045 627.363C737.303 621.8 741.327 617.431 743.514 611.793C738.659 610.427 735.621 608.5 733.709 603.429L735.302 601.704C743.758 600.644 752.073 608.47 762.478 601.346C763.99 600.308 768.177 602.07 772.075 598.904C771.253 597.246 771.556 598.097 771.156 596.35C772.824 594.401 773.128 593.759 775.558 592.848L776.989 593.729C781.072 601.592 774.506 600.48 785.23 605.991C787.653 613.242 763.597 619.858 758.565 621.695C758.417 622.084 761.567 642.695 761.959 644.733L762.693 641.35C762.145 634.465 760.863 629.395 758.958 622.816C774.165 619.597 781.242 614.638 791.61 603.145L793.485 603.467C816.919 594.617 837.373 568.727 846.54 545.799C848.422 541.1 851.112 531.26 853.225 527.841C854.536 531.002 857.012 536.544 857.975 539.594L859.902 540.225C851.602 481.899 811.479 435.296 751.792 429.791L750.606 428.87C735.94 428.225 724.149 432.653 711.128 438.74C708.379 433.783 702.279 427.35 706.844 422.066C712.247 415.811 727.447 412.455 735.11 411.376L734.198 410.132C741.283 408.542 748.879 408.841 756.127 408.936C759.573 408.808 764.516 410.011 766.702 408.81C767.369 405.859 766.65 405.617 765.494 402.189C765.82 401.673 766.65 400.754 767.08 400.251C772.164 399.356 776.618 395.779 781.569 393.666L782.651 393.211C783.332 389.936 778.745 386.879 779.167 382.2Z" fill="#37085C"/>
<path d="M854.402 529.2C855.727 532.344 858.227 537.856 859.2 540.89C856.61 550.956 857.493 563.583 855.6 574.042C846.267 625.635 814.69 659.29 761.782 664.2C763.137 655.777 763.736 650.57 762.972 642.102C762.418 635.254 761.124 630.211 759.2 623.667C774.558 620.465 781.706 615.533 792.177 604.102L794.07 604.421C817.736 595.619 838.393 569.867 847.651 547.062C849.552 542.388 852.269 532.601 854.402 529.2Z" fill="#5362DF"/>
<path d="M860.288 539.832C863.349 552.172 862.323 570.625 860.087 583.086C850.935 634.136 810.737 675.747 758.2 678.2C759.403 673.338 760.748 668.274 761.662 663.375C814.177 658.431 845.519 624.539 854.783 572.584C856.663 562.053 855.786 549.337 858.356 539.2L860.288 539.832Z" fill="#F31DED"/>
<path d="M779.218 382.2C784.619 390.817 789.293 406.122 791.2 416.381C791.118 416.883 790.74 417.686 790.532 418.2C788.856 415.729 788.462 409.726 786.645 405.213C782.468 403.915 774.233 406.268 769.796 407.311C768.335 409.108 768.965 408.392 768.52 411.328C767.177 411.923 740.536 411.84 735.113 412.457L734.2 411.166C741.293 409.518 748.897 409.828 756.153 409.927C759.603 409.794 764.551 411.041 766.74 409.796C767.407 406.736 766.688 406.485 765.53 402.93C765.857 402.394 766.688 401.441 767.118 400.92C772.207 399.992 776.666 396.282 781.622 394.091L782.705 393.619C783.388 390.222 778.795 387.053 779.218 382.2Z" fill="#05128D"/>
<path d="M699.738 315.2C703.278 316.894 704.974 318.218 708.64 317.466C730.455 323.35 771.882 361.402 778.635 383.03C778.211 387.713 782.815 390.772 782.13 394.05L781.045 394.505C776.076 396.62 771.606 400.2 766.504 401.096C766.073 401.599 765.24 402.519 764.913 403.035C766.073 406.466 766.794 406.708 766.125 409.661C763.931 410.863 758.97 409.66 755.512 409.788C752.395 408.445 740.339 389.088 736.286 384.645C708.395 354.067 663.948 337.958 623.585 349.999C601.31 356.644 588.473 369.568 574.267 386.971L574.2 366.832C577.592 362.412 581.303 358.245 585.297 354.362C605.862 334.652 631.692 326.536 659.687 327.105C671.535 328.302 677.626 329.335 689.117 332.687C692.94 325.98 695.26 321.863 699.738 315.2Z" fill="#FEFEFC"/>
<path d="M700.697 315.2C704.196 316.898 705.872 318.224 709.496 317.47C731.057 323.366 772.002 361.489 778.676 383.157C778.257 387.849 782.808 390.914 782.131 394.198L781.058 394.654C776.148 396.773 771.73 400.36 766.687 401.257C766.261 401.761 765.437 402.683 765.114 403.2C749.096 367.33 726.249 346.489 690.2 332.72C693.978 326 696.272 321.876 700.697 315.2Z" fill="#021CC8"/>
<path d="M751.594 431.2C811.555 436.634 851.862 482.632 860.2 540.2L858.264 539.577C857.297 536.567 854.81 531.097 853.492 527.977C837.56 492.233 800.879 459.146 761.809 451.39C752.272 448.904 741.261 451.568 732.171 447.553C725.872 444.773 726.297 439.026 729.379 434.216C737.27 432.248 743.509 431.779 751.594 431.2Z" fill="#FEFEFC"/>
<path d="M730.506 620.825C723.317 617.382 696.585 602.097 716.345 590.292C720.603 587.747 730.926 596.872 735.626 599.612C742.342 603.564 750.386 604.612 757.897 602.516C775.071 597.568 783.655 583.211 782.912 565.786C782.545 557.312 773.385 538.767 786.008 535.624C797.808 532.684 801.054 545.697 802.778 554.513C806.526 573.683 802.845 588.159 791.983 604.035C781.496 615.555 774.337 620.525 758.954 623.752C760.881 630.346 762.178 635.429 762.732 642.33L761.99 645.721C761.593 643.677 758.407 623.018 758.557 622.629C763.647 620.787 787.98 614.155 785.529 606.887C774.681 601.363 781.323 602.478 777.193 594.596L775.746 593.713C773.287 594.626 772.98 595.27 771.293 597.224C771.698 598.975 771.391 598.122 772.223 599.784C768.28 602.958 764.044 601.191 762.515 602.231C751.99 609.372 743.579 601.528 735.026 602.591L733.414 604.32C735.348 609.402 738.422 611.334 743.332 612.703C741.12 618.355 737.05 622.734 738.812 628.31C740.543 633.797 743.084 640.369 742.567 646.2L741.72 645.953C740.866 637.891 739.419 623.213 730.506 620.825Z" fill="#060D3C"/>
<path d="M728.848 432.976C718.226 435.327 707.44 441.547 699.26 448.862C694.369 452.671 687.807 464.78 681.665 465.941C669.35 468.27 665.979 454.335 672.361 446.318C687.972 426.708 708.953 414.57 733.417 410.2L734.339 411.447C726.593 412.529 711.23 415.894 705.769 422.167C701.155 427.465 707.32 433.914 710.099 438.885C723.26 432.782 735.178 428.342 750.002 428.989L751.2 429.912C743.065 430.501 736.788 430.977 728.848 432.976Z" fill="#060D3C"/>
<path d="M657.996 519.222C676.715 518.558 692.448 533.162 693.174 551.88C693.9 570.599 679.353 586.376 660.634 587.169C641.826 587.969 625.953 573.333 625.226 554.525C624.493 535.713 639.181 519.889 657.996 519.222Z" fill="#060D3C"/>
<path d="M667.766 529.583C673.829 527.984 680.049 531.532 681.76 537.563C683.471 543.594 680.042 549.886 674.043 551.703C670.063 552.913 665.74 551.875 662.74 548.998C659.734 546.121 658.524 541.846 659.569 537.82C660.607 533.795 663.743 530.645 667.766 529.583Z" fill="#FEFEFC"/>
<path d="M655.528 386.203C666.072 386.035 671.012 394.081 674.013 403.359C686.459 441.901 661.051 473.928 622.179 473.187C614.305 472.311 607.013 469.894 608.362 459.531C609.571 450.272 624.952 452.41 632.059 451.334C636.461 450.674 640.671 449.06 644.402 446.602C656.067 438.862 660.255 422.837 654.415 410.223C649.615 399.838 643.857 393.608 655.528 386.203Z" fill="#060D3C"/>
<path d="M761.085 472.342C788.488 469.137 774.697 521.373 730.916 527.177C725.808 527.271 720.998 527.297 717.861 522.692C706.122 505.444 736.507 507.239 745.302 500.076C756.58 490.888 750.617 479.652 761.085 472.342Z" fill="#060D3C"/>
<path d="M730.105 620.2C738.923 622.566 740.355 637.113 741.2 645.102C741.141 648.596 741.096 651.867 740.859 655.353L740.28 662.015C740.028 664.96 739.68 666.362 740.681 669.18C743.002 675.738 735.141 696.834 729.349 699.534L727.858 699.052C728.266 694.913 735.408 688.556 736.609 682.577L736.105 682.028C730.699 692.116 727.473 697.969 719.441 706.173L720.576 706.285C722.4 704.03 727.065 701.196 729.95 700.714C730.024 702.553 729.92 701.745 728.363 703.496C726.768 705.283 722.83 706.455 721.243 708.325C719.982 709.816 718.173 714.437 716.734 715.557C711.788 719.399 706.745 718.94 705.143 725.912C700.597 727.908 683.992 737.054 680.989 737.699C680.425 738.263 679.698 738.99 678.823 739.865C671.058 740.362 663.405 741.127 655.67 741.942C655.158 741.994 652.392 741.683 652.029 741.646C651.917 741.683 651.806 741.727 651.688 741.772C642.232 742.677 637.983 742.306 628.95 739.109C626.955 738.404 617.002 737.685 614.97 736.987C604.721 733.486 593.441 723.383 586.404 715.29C582.784 711.121 581.946 707.219 577.311 704.363C575.999 703.547 572.669 700.899 572.439 699.72C571.69 695.937 572.825 685.129 574.137 681.783L574.352 678.453C573.893 664.693 574.389 649.122 574.308 635.095C600.427 663.164 635.001 677.956 669.286 653.855C674.922 656.177 689.213 653.855 695.19 651.652C711.654 645.584 722.437 635.674 730.105 620.2Z" fill="#4B62D8"/>
<path d="M574.354 678.34L575.489 678.065C580.535 684.523 582.702 688.907 588.609 694.986C605.995 712.894 626.305 720.823 651.238 720.764C683.555 720.585 713.415 703.442 729.889 675.591C732.798 670.738 737.473 658.232 740.961 655.2L740.382 661.873C740.13 664.823 739.781 666.228 740.783 669.051C743.105 675.62 735.239 696.754 729.444 699.459L727.952 698.976C728.36 694.829 735.507 688.461 736.709 682.472L736.204 681.922C730.794 692.028 727.566 697.891 719.53 706.11L720.665 706.221C722.491 703.962 727.158 701.124 730.045 700.641C730.119 702.483 730.015 701.673 728.457 703.427C726.862 705.218 722.921 706.392 721.333 708.265C720.072 709.758 718.261 714.388 716.821 715.51C711.872 719.359 706.826 718.899 705.223 725.884C700.674 727.883 684.06 737.045 681.054 737.692C680.49 738.256 679.763 738.984 678.887 739.861C671.118 740.359 663.46 741.125 655.72 741.942C655.208 741.994 652.44 741.682 652.077 741.645C651.966 741.682 651.854 741.727 651.736 741.771C642.274 742.678 638.022 742.306 628.984 739.103C626.988 738.397 617.029 737.677 614.996 736.978C604.741 733.471 593.454 723.35 586.412 715.242C582.791 711.066 581.952 707.158 577.314 704.297C576.001 703.479 572.669 700.826 572.439 699.645C571.69 695.855 572.825 685.028 574.138 681.677L574.354 678.34Z" fill="#F31DED"/>
<path d="M652.653 741.65C652.54 741.686 652.428 741.731 652.309 741.775C642.779 742.674 638.497 742.305 629.393 739.13C627.383 738.43 617.353 737.716 615.305 737.023C604.975 733.546 593.607 723.513 586.515 715.476C582.867 711.335 582.023 707.461 577.351 704.624C576.028 703.814 572.673 701.184 572.441 700.013C571.686 696.256 572.83 685.522 574.152 682.2C574.399 697.552 581.44 702.554 592.135 713.067C593.391 716.22 600.177 723.306 603.309 724.124C611.328 726.209 620.768 731.697 628.055 733.878C638.093 736.891 663.438 739.123 672.549 734.113L671.121 733.605C675.463 728.08 712.438 726.275 721.735 706.532C723.574 704.293 728.275 701.479 731.183 701C731.257 702.827 731.153 702.024 729.583 703.762C727.976 705.538 724.008 706.702 722.408 708.558C721.138 710.039 719.314 714.628 717.864 715.741C712.879 719.557 707.796 719.1 706.182 726.025C701.6 728.006 684.866 737.09 681.839 737.731C681.271 738.29 680.538 739.012 679.656 739.882C671.831 740.375 664.118 741.134 656.322 741.944C655.807 741.996 653.019 741.686 652.653 741.65Z" fill="#4E0A5F"/>
<path d="M740.383 662.2C740.131 665.144 739.783 666.546 740.783 669.364C743.103 675.919 735.248 697.009 729.46 699.709L727.971 699.227C728.378 695.089 735.514 688.733 736.715 682.756L736.211 682.208C730.809 692.293 727.585 698.144 719.56 706.346L720.694 706.457C711.476 726.331 674.817 728.148 670.512 733.71L671.927 734.221C662.894 739.264 637.766 737.017 627.814 733.984C620.589 731.789 611.23 726.264 603.278 724.166C600.173 723.342 593.445 716.209 592.2 713.035C604.131 721.533 612.474 726.531 626.947 730.187C651.89 736.498 678.329 732.582 700.382 719.308C723.94 705.07 734.062 687.762 740.383 662.2Z" fill="#700F70"/>
<path d="M670.079 307.2C682.683 308.586 697.691 312.163 709.2 317.686C705.53 318.452 703.832 317.103 700.289 315.376C695.807 322.167 693.485 326.363 689.658 333.2C678.156 329.783 672.059 328.73 660.2 327.511C670.57 324.82 673.801 329.631 679.318 328.034C682.407 324.844 687.425 315.78 687.618 311.488C684.179 310.282 671.843 309.142 666.699 308.006L670.079 307.2Z" fill="#05128D"/>
<path d="M555.2 153.191C557.314 151.817 571.696 150.468 574.2 151.659C572.979 155.865 573.376 161.4 573.452 165.896C573.009 166.839 572.696 167.249 572.131 168.126C571.124 165.805 571.681 161.197 571.421 157.949C568.872 155.791 569.551 159.159 565.101 158.033C562.482 158.936 559.94 158.699 557.139 158.679C557.047 162.664 556.895 165.206 556.437 169.2L555.261 162.425L555.2 153.191Z" fill="#4E0A5F"/>
<path d="M214.711 916.753C225.98 878.502 237.527 840.34 249.348 802.253C255.258 783.061 260.919 762.711 268.316 744.048C271.729 735.444 278.946 726.512 285.512 720.08C300.575 705.334 321.063 696.118 342.288 696.201C349.107 696.171 354.818 697.432 361.221 697.544H361.874C368.415 698.163 372.548 698.29 379.159 698.103C381.801 702.819 383.844 706.498 386.938 710.916C392.43 716.684 397.018 722.169 403.25 727.325C446.686 763.286 515.207 762.278 555.78 722.482C561.509 723.251 567.32 723.251 573.056 722.49C621.438 767.666 694.204 763.301 738.729 714.871C739.915 713.58 741.086 712.274 742.249 710.953C745.42 706.968 747.836 702.543 750.41 698.148C757.862 698.491 763.941 697.581 771.132 697.686C795.151 694.26 813.747 698.014 834.096 712.498C863.859 733.668 865.194 767.323 877.189 798.94C879.77 803.395 882.269 811.969 883.91 817.066C887.901 829.655 893.301 842.81 896.449 855.608C903.543 884.435 916.425 911.619 918.089 941.602C918.827 954.99 915.762 967.325 912.584 980.152C913.934 977.451 913.643 976.928 915.791 975.548L916.485 976.279C915.963 981.465 915.739 987.264 912.822 991.368C911.994 992.539 912.121 993.599 912.256 994.972C909.428 998.793 904.237 1006.29 900.097 1008.42L899.806 1007.61C903.841 1003.34 904.871 999.091 906.78 993.644L906.594 993.345C894.077 1015.88 874.996 1032.01 850.209 1041.07C846.293 1042.49 838.714 1042.83 836.64 1046.01L837.371 1047.2C834.977 1047.09 833.5 1044.92 831.448 1045.31C817.753 1047.98 775.593 1044.65 763.688 1037.98C763.322 1037.78 763.031 1037.48 762.695 1037.22L764.598 1036.95C764.374 1036.25 763.568 1033.84 763.046 1033.42C756.959 1028.92 747.792 1022.25 741.22 1018.67C735.379 1015.49 726.592 1018.35 723.4 1008.78C723.041 1007.71 723.317 1005.69 723.362 1004.65C721.505 1001.81 721.408 1001.98 717.529 1001.04C716.932 998.599 716.895 999.793 717.798 997.33L719.64 996.136C718.469 990.674 710.495 985.95 706.929 979.548C704.967 980.995 706.012 980.734 703.781 980.607C700.246 978.287 694.592 974.57 690.854 972.063C690.586 971.183 690.31 970.302 690.041 969.421L690.22 969.645L690.317 964.705C688.423 962.929 686.491 961.594 685.64 959.318L687.692 958.512C687.52 953.99 669.304 935.334 664.344 933.663C662.352 933.954 662.748 933.663 661.121 934.573L660.196 933.506L661.099 931.588C658.197 926.611 631.53 919.887 624.899 920.141C619.416 920.35 612.322 920.425 606.698 920.425L558.809 920.372C547.43 920.365 535.999 920.447 524.625 920.335C504.672 920.156 483.891 919.544 466.351 930.737C460.222 934.655 452.805 939.55 449.333 946.162L449.599 947.192L455.422 942.878C453.706 951.303 443.731 957.818 440.996 962.049C439.778 961.609 440.307 961.997 439.519 960.743L439.5 963.75L438.17 964.467L437.234 964.123C437.79 962.9 438.921 959.952 438.753 958.646L437.626 958.534C437.463 958.803 437.301 959.071 437.138 959.34C434.233 966.116 420.207 974.921 421.084 981.764C421.137 982.167 421.922 984.361 421.771 983.921C420.012 989.271 401.003 1010.22 395.661 1013.79L395.353 1012.68C397.664 1010.39 405.478 1000.46 406.045 997.621C401.971 1000.93 396.817 1006.91 393.004 1010.82C386.073 1017.94 379.223 1024.01 370.853 1029.43C375.911 1029.77 373.776 1028.15 375.707 1027.43C378.099 1026.54 389.004 1019.1 389.992 1018.84L390.247 1019.73C384.821 1025.14 365.529 1041.04 358.073 1040.13C358.943 1035 363.713 1035.89 365.129 1033.4L362.49 1034.09C351.311 1036.92 337.731 1045.37 325.587 1046.3C302.68 1048.06 282.918 1045.27 262.334 1034.42L260.587 1036.1C257.667 1034.72 247.964 1029.95 246.003 1028.02C246.642 1026.29 246.637 1026.16 247.672 1024.66C243.119 1021.48 222.163 1002.34 219.48 998.009L219.331 996.42C220.918 996.3 220.764 996.293 222.416 996.42L221.779 995.173C218.455 988.599 215.425 981.727 212.84 974.884C209.89 967.063 212.516 959.183 207.285 951.908C205.234 949.057 206.658 940.491 207.002 936.662L207.674 936.342L209.113 939.573C212.074 937.237 209.239 922.29 214.711 916.753Z" fill="#6C7E82"/>
<path d="M214.711 916.753C225.98 878.502 237.527 840.34 249.348 802.253C255.258 783.061 260.919 762.711 268.316 744.048C271.729 735.444 278.946 726.512 285.512 720.08C300.575 705.334 321.063 696.118 342.288 696.201C349.107 696.171 354.818 697.432 361.221 697.544H361.874C368.415 698.163 372.548 698.29 379.159 698.103C381.801 702.819 383.844 706.498 386.938 710.916C381.118 711.237 375.836 711.229 370.001 711.207L373.901 719.072L372.543 718.706C371.597 716.826 370.549 714.826 369.651 712.938C354.26 712.856 339.762 711.789 324.895 716.02C319.55 717.535 311.362 722.281 307.84 722.639C294.848 728.892 279.829 748.622 275.381 762.375C271.732 773.651 268.259 785.262 264.611 796.552C255.807 823.521 247.142 850.541 238.614 877.599C234.295 891.255 229.87 906.56 224.948 919.858C226.85 923.096 227.463 927.917 228.676 931.879C232.234 943.513 236.246 949.893 243.485 959.407C262.336 978.734 285.051 987.577 312.003 987.973C340.267 988.383 362.69 979.301 387.154 966.526C397.15 959.079 407.737 953.579 417.598 944.901C441.007 924.305 454.463 902.881 487.822 897.747C500.066 895.867 511.73 896.187 524.212 896.173L567.424 896.202C590.645 896.24 615.507 895.396 638.497 897.456C670.729 900.344 688.758 926.38 711.144 945.901C719.886 953.527 728.711 958.348 738.042 965.049C745.509 968.123 752.804 972.944 760.637 976.033C807.929 994.689 858.668 993.562 890.989 950.102C892.906 945.117 895.368 941.729 897.494 935.409C898.978 930.991 901.029 923.716 902.626 919.932C896.472 903.321 891.041 884.688 885.715 867.689C878.569 844.952 871.289 822.259 863.859 799.612C859.831 787.232 853.245 764.614 848.105 753.824C844.196 745.6 838.826 738.168 832.246 731.877C813.247 713.573 794.398 710.841 769.386 711.244C766.94 712.968 762.636 712.17 759.645 711.662C755.945 710.789 746.292 710.961 742.249 710.953C745.42 706.968 747.836 702.543 750.41 698.148C757.862 698.491 763.941 697.581 771.132 697.686C795.151 694.26 813.747 698.014 834.096 712.498C863.859 733.668 865.194 767.323 877.189 798.94C879.77 803.395 882.269 811.969 883.91 817.066C887.901 829.655 893.301 842.81 896.449 855.608C903.543 884.435 916.425 911.619 918.089 941.602C918.827 954.99 915.762 967.325 912.584 980.152C913.934 977.451 913.643 976.928 915.791 975.548L916.485 976.279C915.963 981.465 915.739 987.264 912.822 991.368C911.994 992.539 912.121 993.599 912.256 994.972C909.428 998.793 904.237 1006.29 900.097 1008.42L899.806 1007.61C903.841 1003.34 904.871 999.091 906.78 993.644L906.594 993.345C894.077 1015.88 874.996 1032.01 850.209 1041.07C846.293 1042.49 838.714 1042.83 836.64 1046.01L837.371 1047.2C834.977 1047.09 833.5 1044.92 831.448 1045.31C817.753 1047.98 775.593 1044.65 763.688 1037.98C763.322 1037.78 763.031 1037.48 762.695 1037.22L764.598 1036.95C764.374 1036.25 763.568 1033.84 763.046 1033.42C756.959 1028.92 747.792 1022.25 741.22 1018.67C735.379 1015.49 726.592 1018.35 723.4 1008.78C723.041 1007.71 723.317 1005.69 723.362 1004.65C721.505 1001.81 721.408 1001.98 717.529 1001.04C716.932 998.599 716.895 999.793 717.798 997.33L719.64 996.136C718.469 990.674 710.495 985.95 706.929 979.548C704.967 980.995 706.012 980.734 703.781 980.607C700.246 978.287 694.592 974.57 690.854 972.063C690.586 971.183 690.31 970.302 690.041 969.421L690.22 969.645L690.317 964.705C688.423 962.929 686.491 961.594 685.64 959.318L687.692 958.512C687.52 953.99 669.304 935.334 664.344 933.663C662.352 933.954 662.748 933.663 661.121 934.573L660.196 933.506L661.099 931.588C658.197 926.611 631.53 919.887 624.899 920.141C619.416 920.35 612.322 920.425 606.698 920.425L558.809 920.372C547.43 920.365 535.999 920.447 524.625 920.335C504.672 920.156 483.891 919.544 466.351 930.737C460.222 934.655 452.805 939.55 449.333 946.162L449.599 947.192L455.422 942.878C453.706 951.303 443.731 957.818 440.996 962.049C439.778 961.609 440.307 961.997 439.519 960.743L439.5 963.75L438.17 964.467L437.234 964.123C437.79 962.9 438.921 959.952 438.753 958.646L437.626 958.534C437.463 958.803 437.301 959.071 437.138 959.34C434.233 966.116 420.207 974.921 421.084 981.764C421.137 982.167 421.922 984.361 421.771 983.921C420.012 989.271 401.003 1010.22 395.661 1013.79L395.353 1012.68C397.664 1010.39 405.478 1000.46 406.045 997.621C401.971 1000.93 396.817 1006.91 393.004 1010.82C386.073 1017.94 379.223 1024.01 370.853 1029.43C375.911 1029.77 373.776 1028.15 375.707 1027.43C378.099 1026.54 389.004 1019.1 389.992 1018.84L390.247 1019.73C384.821 1025.14 365.529 1041.04 358.073 1040.13C358.943 1035 363.713 1035.89 365.129 1033.4L362.49 1034.09C351.311 1036.92 337.731 1045.37 325.587 1046.3C302.68 1048.06 282.918 1045.27 262.334 1034.42L260.587 1036.1C257.667 1034.72 247.964 1029.95 246.003 1028.02C246.642 1026.29 246.637 1026.16 247.672 1024.66C243.119 1021.48 222.163 1002.34 219.48 998.009L219.331 996.42C220.918 996.3 220.764 996.293 222.416 996.42L221.779 995.173C218.455 988.599 215.425 981.727 212.84 974.884C209.89 967.063 212.516 959.183 207.285 951.908C205.234 949.057 206.658 940.491 207.002 936.662L207.674 936.342L209.113 939.573C212.074 937.237 209.239 922.29 214.711 916.753Z" fill="#3E646D"/>
<path d="M214.711 916.753C225.98 878.502 237.527 840.34 249.348 802.253C255.258 783.061 260.919 762.711 268.316 744.048C271.729 735.444 278.946 726.512 285.512 720.08C300.575 705.334 321.063 696.118 342.288 696.201C349.107 696.171 354.818 697.432 361.221 697.544H361.874C368.415 698.163 372.548 698.29 379.159 698.103C381.801 702.819 383.844 706.498 386.938 710.916C381.118 711.237 375.836 711.229 370.001 711.207L373.901 719.072L372.543 718.706C371.597 716.826 370.549 714.826 369.651 712.938C354.26 712.856 339.762 711.789 324.895 716.02C319.55 717.535 311.362 722.281 307.84 722.639C294.848 728.892 279.829 748.622 275.381 762.375C271.732 773.651 268.259 785.262 264.611 796.552C255.807 823.521 247.142 850.541 238.614 877.599C234.295 891.255 229.87 906.56 224.948 919.858C215.942 941.729 214.685 957.101 224.271 980.137C234.102 1003.57 252.933 1022.07 276.529 1031.47C310.502 1045.13 350.071 1035.82 378.335 1012.62C406.214 989.741 428.168 950.863 454.967 927.812C486.449 900.732 559.89 915.343 599.835 911.582C619.401 909.739 647.329 912.239 664.247 922.79C713.643 957.072 733.201 1027.23 800.306 1036.29C859.951 1045.69 913.718 999.972 909.197 938.61C908.869 934.364 904.416 924.312 902.626 919.932C896.472 903.321 891.041 884.688 885.715 867.689C878.569 844.952 871.289 822.259 863.859 799.612C859.831 787.232 853.245 764.614 848.105 753.824C844.196 745.6 838.826 738.168 832.246 731.877C813.247 713.573 794.398 710.841 769.386 711.244C766.94 712.968 762.636 712.17 759.645 711.662C755.945 710.789 746.292 710.961 742.249 710.953C745.42 706.968 747.836 702.543 750.41 698.148C757.862 698.491 763.941 697.581 771.132 697.686C795.151 694.26 813.747 698.014 834.096 712.498C863.859 733.668 865.194 767.323 877.189 798.94C879.77 803.395 882.269 811.969 883.91 817.066C887.901 829.655 893.301 842.81 896.449 855.608C903.543 884.435 916.425 911.619 918.089 941.602C918.827 954.99 915.762 967.325 912.584 980.152C913.934 977.451 913.643 976.928 915.791 975.548L916.485 976.279C915.963 981.465 915.739 987.264 912.822 991.368C911.994 992.539 912.121 993.599 912.256 994.972C909.428 998.793 904.237 1006.29 900.097 1008.42L899.806 1007.61C903.841 1003.34 904.871 999.091 906.78 993.644L906.594 993.345C894.077 1015.88 874.996 1032.01 850.209 1041.07C846.293 1042.49 838.714 1042.83 836.64 1046.01L837.371 1047.2C834.977 1047.09 833.5 1044.92 831.448 1045.31C817.753 1047.98 775.593 1044.65 763.688 1037.98C763.322 1037.78 763.031 1037.48 762.695 1037.22L764.598 1036.95C764.374 1036.25 763.568 1033.84 763.046 1033.42C756.959 1028.92 747.792 1022.25 741.22 1018.67C735.379 1015.49 726.592 1018.35 723.4 1008.78C723.041 1007.71 723.317 1005.69 723.362 1004.65C721.505 1001.81 721.408 1001.98 717.529 1001.04C716.932 998.599 716.895 999.793 717.798 997.33L719.64 996.136C718.469 990.674 710.495 985.95 706.929 979.548C704.967 980.995 706.012 980.734 703.781 980.607C700.246 978.287 694.592 974.57 690.854 972.063C690.586 971.183 690.31 970.302 690.041 969.421L690.22 969.645L690.317 964.705C688.423 962.929 686.491 961.594 685.64 959.318L687.692 958.512C687.52 953.99 669.304 935.334 664.344 933.663C662.352 933.954 662.748 933.663 661.121 934.573L660.196 933.506L661.099 931.588C658.197 926.611 631.53 919.887 624.899 920.141C619.416 920.35 612.322 920.425 606.698 920.425L558.809 920.372C547.43 920.365 535.999 920.447 524.625 920.335C504.672 920.156 483.891 919.544 466.351 930.737C460.222 934.655 452.805 939.55 449.333 946.162L449.599 947.192L455.422 942.878C453.706 951.303 443.731 957.818 440.996 962.049C439.778 961.609 440.307 961.997 439.519 960.743L439.5 963.75L438.17 964.467L437.234 964.123C437.79 962.9 438.921 959.952 438.753 958.646L437.626 958.534C437.463 958.803 437.301 959.071 437.138 959.34C434.233 966.116 420.207 974.921 421.084 981.764C421.137 982.167 421.922 984.361 421.771 983.921C420.012 989.271 401.003 1010.22 395.661 1013.79L395.353 1012.68C397.664 1010.39 405.478 1000.46 406.045 997.621C401.971 1000.93 396.817 1006.91 393.004 1010.82C386.073 1017.94 379.223 1024.01 370.853 1029.43C375.911 1029.77 373.776 1028.15 375.707 1027.43C378.099 1026.54 389.004 1019.1 389.992 1018.84L390.247 1019.73C384.821 1025.14 365.529 1041.04 358.073 1040.13C358.943 1035 363.713 1035.89 365.129 1033.4L362.49 1034.09C351.311 1036.92 337.731 1045.37 325.587 1046.3C302.68 1048.06 282.918 1045.27 262.334 1034.42L260.587 1036.1C257.667 1034.72 247.964 1029.95 246.003 1028.02C246.642 1026.29 246.637 1026.16 247.672 1024.66C243.119 1021.48 222.163 1002.34 219.48 998.009L219.331 996.42C220.918 996.3 220.764 996.293 222.416 996.42L221.779 995.173C218.455 988.599 215.425 981.727 212.84 974.884C209.89 967.063 212.516 959.183 207.285 951.908C205.234 949.057 206.658 940.491 207.002 936.662L207.674 936.342L209.113 939.573C212.074 937.237 209.239 922.29 214.711 916.753Z" fill="#42F5FA"/>
<path d="M877.189 799.2C879.77 803.65 882.269 812.215 883.91 817.307C887.901 829.882 893.301 843.024 896.449 855.809C903.543 884.605 916.425 911.761 918.089 941.713C918.827 955.086 915.762 967.408 912.584 980.222C913.934 977.524 913.643 977.002 915.791 975.623L916.485 976.354C915.963 981.534 915.739 987.326 912.822 991.426C911.994 992.597 912.121 993.655 912.256 995.027C909.428 998.843 904.237 1006.34 900.097 1008.46L899.806 1007.65C903.841 1003.38 904.871 999.142 906.78 993.7L906.594 993.402C894.077 1015.91 874.996 1032.03 850.209 1041.07C846.293 1042.5 838.714 1042.83 836.64 1046.01L837.371 1047.2C834.977 1047.09 833.5 1044.92 831.448 1045.31C817.753 1047.98 775.593 1044.65 763.688 1037.99C763.322 1037.79 763.031 1037.49 762.695 1037.23L764.598 1036.96C764.374 1036.26 763.568 1033.86 763.046 1033.43C756.959 1028.94 747.792 1022.27 741.22 1018.7C735.379 1015.53 726.592 1018.38 723.4 1008.82C723.041 1007.75 723.317 1005.73 723.362 1004.7C721.505 1001.85 721.408 1002.03 717.529 1001.09C716.932 998.65 716.895 999.842 717.798 997.382L719.64 996.19C718.469 990.733 710.495 986.014 706.929 979.619C704.967 981.065 706.012 980.804 703.781 980.677C700.246 978.359 694.592 974.646 690.854 972.142C690.586 971.262 690.31 970.382 690.041 969.503L690.22 969.727L690.317 964.792C688.423 963.018 686.491 961.683 685.64 959.41L687.692 958.605C687.52 954.087 669.304 935.451 664.344 933.782C662.352 934.072 662.748 933.781 661.121 934.691L660.196 933.625L661.099 931.709C658.197 926.737 631.53 920.021 624.899 920.274C619.416 920.483 612.322 920.557 606.698 920.557L558.809 920.505C547.43 920.498 535.999 920.58 524.625 920.468C504.672 920.289 483.891 919.678 466.351 930.859C460.222 934.773 452.805 939.663 449.333 946.268L449.599 947.296L455.422 942.988C453.706 951.404 443.731 957.911 440.996 962.138C439.778 961.698 440.307 962.086 439.519 960.833L439.5 963.838L438.17 964.553L437.234 964.21C437.79 962.988 438.921 960.043 438.753 958.739L437.626 958.627C437.463 958.895 437.301 959.164 437.138 959.432C434.233 966.201 420.207 974.997 421.084 981.832C421.137 982.235 421.922 984.427 421.771 983.987C420.012 989.332 401.003 1010.26 395.661 1013.83L395.353 1012.72C397.664 1010.43 405.478 1000.51 406.045 997.673C401.971 1000.98 396.817 1006.95 393.004 1010.86C386.073 1017.97 379.223 1024.04 370.853 1029.45C375.911 1029.79 373.776 1028.17 375.707 1027.45C378.099 1026.56 389.004 1019.13 389.992 1018.87L390.247 1019.76C384.821 1025.16 365.529 1041.04 358.073 1040.14C358.943 1035.01 363.713 1035.91 365.129 1033.42L362.49 1034.1C351.311 1036.94 337.731 1045.37 325.587 1046.31C302.68 1048.06 282.918 1045.27 262.334 1034.43L260.587 1036.12C257.667 1034.74 247.964 1029.97 246.003 1028.04C246.642 1026.31 246.637 1026.19 247.672 1024.69C243.119 1021.5 222.163 1002.38 219.48 998.061L219.331 996.473C220.918 996.354 220.764 996.346 222.416 996.473L221.779 995.228C218.455 988.661 215.425 981.795 212.84 974.96C209.89 967.147 212.516 959.275 207.285 952.007C205.234 949.16 206.658 940.602 207.002 936.778L207.674 936.458L209.113 939.685C212.074 937.352 209.239 922.421 214.711 916.89C211.103 935.824 209.067 948.929 213.222 968.005C218.71 993.208 235.895 1016.28 257.73 1029.86C275.317 1040.72 295.808 1045.94 316.451 1044.82C371.58 1041.9 403.063 999.306 434.563 959.849C466.237 920.177 479.421 918.753 528.679 918.753L574.205 918.783C589.385 918.806 624.973 917.941 637.856 920.416C649.127 922.578 659.741 927.348 668.842 934.333C678.009 941.482 683.567 949.6 691.018 957.978C717.171 987.364 736.923 1021.91 775.548 1036.74C796.248 1044.69 818.35 1047.21 840.183 1041.97C866.172 1035.79 888.617 1019.49 902.536 996.711C926.824 956.219 914.001 920.565 902.021 879.998C894.711 855.257 883.328 823.389 877.189 799.2Z" fill="#0B446D"/>
<path d="M361.851 697.2C368.466 697.842 372.646 697.973 379.333 697.78C382.005 702.666 384.071 706.477 387.2 711.054C381.314 711.387 375.972 711.379 370.07 711.356L374.015 719.504L372.641 719.126C371.685 717.177 370.625 715.105 369.717 713.149C354.15 713.064 339.487 711.959 324.45 716.342C319.043 717.912 310.762 722.829 307.2 723.2C322.923 709.817 350.854 711.201 369.673 711.433C368.549 708.024 367.458 704.421 366.321 701.042C365.305 698.019 364.264 698.151 361.851 697.2Z" fill="#6DAF96"/>
<path d="M749.676 698.651C757.416 698.98 763.731 698.108 771.2 698.208C761.6 699.845 762.654 702.803 760.12 711.079L769.387 711.193C766.846 712.844 762.375 712.079 759.268 711.593C755.425 710.757 745.399 710.921 741.2 710.914C744.493 707.098 747.003 702.86 749.676 698.651Z" fill="#736FA1"/>
<path d="M890.2 950.2C889.902 957.533 873.47 968.851 868.461 973.663C867.084 974.983 865.975 980.69 864.583 982.533C855.615 988.859 845.003 987.718 835.707 991.515C829.82 993.925 832.953 998.11 823.435 998.199C812.45 998.296 808.572 984.89 804.233 989.128C803.75 989.65 803.258 990.172 802.775 990.687L801.182 990.672L798.92 987.39C792.958 988.971 783.603 992.589 778.245 989.575C774.68 987.576 773.392 982.831 771.063 981.705C762.75 977.684 753.61 975.371 745.55 970.693C742.588 968.978 740.184 967.694 737.2 965.814L737.602 965.143C745.052 968.217 752.33 973.036 760.145 976.125C807.329 994.775 857.952 993.649 890.2 950.2Z" fill="#40494E"/>
<path d="M243.816 960.2C262.588 979.278 285.208 988.007 312.047 988.398C340.194 988.803 362.523 979.838 386.884 967.227L387.2 967.772C386.039 969.327 371.902 975.942 368.816 978.019C359.058 984.589 344.139 984.361 332.967 988.206C328.404 989.775 323.658 997.79 317.599 995.919C314.566 994.917 307.449 992.921 305.77 990.32C308.038 989.149 308.876 989.657 311.854 989.724C307.752 987.867 281.409 987.271 275.903 987.271C274.124 987.271 271.024 986.482 269.583 985.363C268.04 984.17 267.544 980.089 266.219 979.072C258.582 973.223 249.359 968.774 243.2 961.231L243.816 960.2Z" fill="#40494E"/>
<path d="M386.152 711.2C391.649 716.98 396.241 722.475 402.479 727.642C445.955 763.674 514.538 762.665 555.149 722.789C560.883 723.56 566.699 723.56 572.441 722.797C620.866 768.063 693.699 763.689 738.265 715.163C739.452 713.869 740.624 712.561 741.789 711.237C745.836 711.245 755.497 711.073 759.2 711.948C724.96 782.464 630.565 810.368 563.989 768.616C505.949 804.409 426.072 789.642 385.089 736.532C382.47 733.138 375 721.144 373.103 719.372L369.2 711.492C375.04 711.514 380.327 711.522 386.152 711.2Z" fill="#494F51"/>
<path d="M333.378 806.307C333.312 793.909 330.915 772.561 340.148 763.439C350.234 753.479 380.305 753.86 390.018 764.194C398.603 773.331 396.213 794.365 396.029 806.598C439.288 806.965 444.25 803.465 444.134 851.516C445.078 878.068 436.003 883.758 410.773 883.452L396.2 883.227C396.284 890.922 396.527 897.614 395.58 905.293C397.167 922.185 391.106 932.661 373.007 933.85C351.759 935.241 330.505 933.7 333.897 906.183L333.747 904.404C332.593 900.134 332.989 888.2 333.026 883.257C307.013 883.055 283.179 889.336 285.336 853.063C285.204 806.89 286.673 805.776 333.378 806.307Z" fill="#060D3C"/>
<path d="M394.959 906.2C396.539 922.562 390.506 932.709 372.488 933.861C351.338 935.208 330.181 933.716 333.557 907.062C340.821 921.533 350.826 922.562 365.958 922.489C380.618 922.424 388.967 920.056 394.959 906.2Z" fill="#40494E"/>
<path d="M285.334 853.2C291.767 876.534 314.221 872.051 332.915 871.702C332.994 882.495 333.35 894.514 333.128 905.2C331.989 900.876 332.38 888.788 332.416 883.782C306.735 883.578 283.205 889.939 285.334 853.2Z" fill="#40494E"/>
<path d="M395.291 871.522C415.004 871.558 439.253 876.245 444.133 852.2C445.096 877.965 435.842 883.486 410.114 883.189L395.254 882.971C395.126 879.322 395.262 875.208 395.291 871.522Z" fill="#40494E"/>
<path d="M347.012 780.61C347.932 771.424 355.127 771.521 363.05 771.26C370.093 771.021 381.569 771.043 381.563 780.64C381.146 790.715 380.853 804.644 381.501 814.637C386.161 820.335 385.491 818.916 391.958 820.53C403.249 823.345 428.149 813.375 429.2 830.388C428.954 835.736 428.898 841.091 429.032 846.445C429.66 871.077 384.026 843.675 381.689 866.103C380.792 874.707 381.76 885.416 381.683 895.103C381.55 911.691 368.149 906.134 356.439 906.881C354.174 906.747 349.701 905.148 348.503 903.154C340.998 890.667 357.37 862.831 337.749 857.073C325.758 853.548 299.808 865.535 299.27 846.543C299.476 840.657 299.499 836.378 299.202 830.515C298.976 814.577 322.325 822.524 332.577 820.888C340.598 819.604 341.491 821.179 346.583 814.45C347.865 808.811 347.712 786.831 347.012 780.61Z" fill="#FEC863"/>
<path d="M371.484 897.367C371.034 837.896 375.873 849.463 429.194 847.268C429.818 871.566 384.454 844.534 382.131 866.659C381.239 875.146 382.202 885.711 382.125 895.267C381.993 911.63 368.671 906.149 357.031 906.885C354.779 906.753 350.332 905.176 349.142 903.209C341.681 890.891 357.956 863.432 338.451 857.751C326.531 854.274 300.735 866.099 300.2 847.363C354.654 847.297 358.288 842.007 357.861 897.426L371.484 897.367Z" fill="#C0944A"/>
<path d="M381.12 816.2C385.817 821.61 385.142 820.263 391.661 821.795C403.042 824.468 428.141 815.002 429.2 831.154C417.378 830.927 405.371 831.381 393.531 831.112C390.032 831.034 383.371 830.225 381.086 827.261C379.316 824.964 380.67 819.093 381.12 816.2Z" fill="#FEFEFC"/>
<path d="M346.851 814.2C352.59 830.289 338.831 832.4 327.912 831.947C318.635 831.567 308.425 832.681 299.202 831.939C298.974 814.34 322.455 823.115 332.766 821.309C340.832 819.89 341.73 821.63 346.851 814.2Z" fill="#FEFEFC"/>
<path d="M347.2 781.066C348.105 771.435 355.185 771.537 362.982 771.262C369.913 771.012 381.205 771.035 381.2 781.098C369.867 781.246 358.532 781.231 347.2 781.066Z" fill="#FEFEFC"/>
<path d="M666.371 849.963C664.371 837.415 664.109 827.366 672.37 816.413C678.153 808.819 686.766 803.835 696.286 802.574C705.911 801.172 715.7 803.746 723.355 809.686C730.912 815.523 735.811 824.111 736.957 833.536C737.713 840.107 736.62 845.951 734.845 852.233C735.197 884.33 697.23 895.298 675.381 874.785C667.592 867.473 666.461 860.064 666.371 849.963Z" fill="#060D3C"/>
<path d="M666.2 850.2C671.755 860.896 677.642 868.417 690.133 872.336C699.34 875.194 709.325 874.428 717.967 870.2C726.148 866.111 730.918 860.167 735.198 852.454C735.552 884.336 697.295 895.23 675.279 874.855C667.43 867.592 666.291 860.233 666.2 850.2Z" fill="#40494E"/>
<path d="M679.775 826.67C683.847 818.422 692.123 813.207 701.17 813.2C710.218 813.185 718.508 818.37 722.602 826.611C725.021 831.475 725.778 837.024 724.758 842.38C722.245 855.56 709.81 864.218 696.872 861.793C683.935 859.376 675.317 846.768 677.553 833.536C677.961 831.148 678.704 828.835 679.775 826.67Z" fill="#517FFE"/>
<path d="M677.556 834.2C677.637 840.078 678.762 844.692 683.512 848.405C698.378 860.022 714.51 854.762 725.2 842.839C722.663 855.714 710.113 864.171 697.055 861.803C683.997 859.441 675.299 847.126 677.556 834.2Z" fill="#3E56B7"/>
<path d="M679.2 826.2C683.384 818.239 691.886 813.207 701.181 813.2C710.477 813.186 718.994 818.189 723.2 826.143C721.03 825.64 715.334 821.247 712.557 820.055C697.559 813.645 690.838 822.833 679.2 826.2Z" fill="#FEFEFC"/>
<path d="M728.44 915.664C722.869 900.62 727.939 883.703 740.872 874.196C753.797 864.689 771.464 864.891 784.18 874.681C796.889 884.479 801.578 901.5 795.672 916.417C795.956 924.969 794.305 932.095 788.825 938.819C772.592 958.706 736.332 954.34 729.828 927.85C728.753 923.462 728.589 920.081 728.44 915.664Z" fill="#060D3C"/>
<path d="M729.2 916.2C734.354 929.966 747.571 939.168 762.424 939.329C777.278 939.498 790.703 930.591 796.17 916.942C796.452 925.365 794.809 932.384 789.349 939.006C773.18 958.592 737.062 954.293 730.583 928.202C729.512 923.88 729.349 920.551 729.2 916.2Z" fill="#40494E"/>
<path d="M741.163 891.132C745.516 883.165 753.987 878.2 763.209 878.2C772.431 878.207 780.903 883.187 785.248 891.154C787.683 895.606 788.646 900.69 788.009 905.706C786.469 917.969 775.844 927.185 763.232 927.2C750.628 927.215 739.98 918.029 738.395 905.766C737.75 900.727 738.713 895.613 741.163 891.132Z" fill="#7CD559"/>
<path d="M738.2 906.258C752.925 923.511 772.849 924.695 787.2 906.2C785.68 918.181 775.186 927.185 762.73 927.2C750.281 927.215 739.765 918.239 738.2 906.258Z" fill="#4F933E"/>
<path d="M741.2 891.178C745.446 883.182 753.709 878.2 762.704 878.2C771.699 878.207 779.961 883.205 784.2 891.2C764.161 879.9 761.172 879.266 741.2 891.178Z" fill="#FEFEFC"/>
<path d="M729.967 787.898C723.661 772.719 728.4 755.16 741.463 745.318C754.526 735.475 772.55 735.878 785.17 746.295C797.79 756.713 801.76 774.465 794.796 789.338C796.725 807.605 779.899 820.911 762.903 821.194C753.602 821.366 744.642 817.642 738.159 810.904C731.66 804.128 729.849 796.987 729.967 787.898Z" fill="#060D3C"/>
<path d="M730.205 788.2C735.626 801.126 748.145 809.652 762.165 809.955C776.177 810.265 789.059 802.301 795.048 789.627C796.978 807.729 780.148 820.913 763.148 821.194C753.846 821.364 744.884 817.675 738.399 810.997C731.899 804.283 730.087 797.207 730.205 788.2Z" fill="#40494E"/>
<path d="M740.48 763.304C749.595 744.204 777.479 744.552 786.04 764.053C788.392 768.917 788.323 771.512 788.093 776.769C787.155 781.604 785.702 785.519 782.428 789.412C778.14 794.476 771.891 797.62 765.135 798.117C758.334 798.658 751.578 796.545 746.398 792.252C740.779 787.506 738.789 782.167 738.259 775.22C738.028 770.378 738.42 767.701 740.48 763.304Z" fill="#EBF94E"/>
<path d="M738.2 776.2C752.014 794.067 772.418 795.416 787.2 777.684C786.278 782.312 784.85 786.06 781.63 789.787C777.414 794.635 771.27 797.645 764.627 798.12C757.939 798.638 751.296 796.615 746.203 792.505C740.679 787.962 738.721 782.851 738.2 776.2Z" fill="#D3CE4C"/>
<path d="M740.2 763.444C749.403 744.154 777.556 744.506 786.2 764.2C772.45 756.435 765.512 749.913 748.286 758.943C745.678 760.314 743.009 762.95 740.2 763.444Z" fill="#FEFEFC"/>
<path d="M789.03 851.682C786.388 840.272 785.876 830.354 792.514 819.789C797.511 811.807 805.587 806.127 814.919 804.031C824.349 801.978 834.238 803.766 842.29 808.989C850.343 814.206 855.875 822.416 857.583 831.715C858.9 838.749 857.937 845.201 856.311 852.065C857.568 894.184 790.911 898.392 789.03 851.682Z" fill="#060D3C"/>
<path d="M789.2 852.2C794.662 861.979 800.441 869.012 811.962 872.561C820.966 875.285 830.709 874.321 838.967 869.881C847.743 865.173 850.511 860.313 855.183 852.577C856.415 894.045 791.045 898.189 789.2 852.2Z" fill="#40494E"/>
<path d="M800.289 828.131C803.449 821.609 807.566 817.276 814.539 814.706C820.722 812.38 827.596 812.76 833.475 815.763C839.217 818.712 843.205 823.35 845.385 829.385L846.707 832.609C847.778 840.081 847.368 846.444 842.81 852.852C838.898 858.364 832.89 862.013 826.198 862.94C811.88 864.947 798.58 855.141 798.2 840.271L798.344 838.409C798.701 833.452 798.724 832.958 800.289 828.131Z" fill="#FC6362"/>
<path d="M846.707 833.2C847.778 840.528 847.368 846.768 842.81 853.052C838.898 858.457 832.89 862.036 826.198 862.945C811.88 864.913 798.58 855.296 798.2 840.715C812.488 861.73 847.064 857.51 846.707 833.2Z" fill="#AE3C42"/>
<path d="M801.2 828.883C804.283 822.032 808.3 817.481 815.103 814.782C821.136 812.339 827.843 812.738 833.579 815.892C839.182 818.99 843.073 823.86 845.2 830.2C827.843 815.948 819.231 816.315 801.2 828.883Z" fill="#FEFEFC"/>
<path d="M495.695 858.425C491.714 833.121 512.452 832.835 531.884 835.07C544.144 836.477 548.752 846.16 546.748 858.049C547.29 867.544 543.365 872.608 535.291 877.213C521.833 878.003 496.323 882.54 495.683 862.367C495.653 861.051 495.657 859.734 495.695 858.425Z" fill="#060D3C"/>
<path d="M496.232 857.592C505.093 871.926 519.123 869.777 533.7 868.021C540.177 867.237 543.844 862.642 547.151 857.2C547.691 867.095 543.776 872.373 535.724 877.171C522.301 877.995 496.858 882.723 496.22 861.701C496.19 860.329 496.194 858.956 496.232 857.592Z" fill="#40494E"/>
<path d="M506.559 849.269C510.128 845.618 513.07 845.313 518.032 845.352C524.895 845.407 531.933 843.874 536.733 849.473C536.949 850.278 537.088 851.826 537.2 852.717C534.726 861.083 521.028 859.168 514.264 858.62C508.553 858.167 505.026 855.54 506.559 849.269Z" fill="#3E56B7"/>
<path d="M507.2 849.128C510.63 845.603 513.457 845.309 518.226 845.347C524.823 845.4 531.587 843.92 536.2 849.325C533.396 850.917 511.186 850.019 507.2 849.128Z" fill="#AFCDFC"/>
<path d="M580.457 858.228C578.089 834.505 592.366 833.745 611.439 834.309C626.87 834.768 634.402 842.779 631.637 858.258C632.566 868.405 628.684 872.151 620.703 877.085C611.132 877.25 601.562 877.235 591.991 877.055C591.811 876.949 591.631 876.844 591.459 876.739L590.582 876.197C582.78 871.481 580.105 867.502 580.457 858.228Z" fill="#060D3C"/>
<path d="M580.231 859.2C587.608 869.648 596.405 869.648 608.784 869.569C620.048 869.505 626.044 868.292 632.063 859.229C633.004 868.855 629.072 872.409 620.989 877.091C611.297 877.248 601.604 877.233 591.912 877.062C591.73 876.962 591.547 876.862 591.373 876.762L590.485 876.249C582.584 871.774 579.874 867.999 580.231 859.2Z" fill="#40494E"/>
<path d="M593.181 847.442C596.755 844.318 615.85 844.266 620.148 848.511C621.662 851.388 621.364 852.285 620.372 855.08C614.014 861.568 583.174 861.351 593.181 847.442Z" fill="#CAF825"/>
<path d="M593.2 847.257C596.779 844.391 615.897 844.343 620.2 848.237C617.764 849.636 597.287 849.259 593.91 848.676L593.2 847.257Z" fill="#F4FCAE"/>
<path d="M599.31 211.326C606.653 201.592 618.556 193.462 630.215 190.247C640.934 187.288 656.841 185.098 666.879 190.516C668.737 193.166 668.115 192.54 668.041 196.566C666.538 209.26 665.199 218.779 658.877 230.1C644.812 255.368 617.29 266.484 590.057 256.637C597.43 249.382 610.939 239.412 619.563 232.57C624.744 229.029 633.376 224.656 629.86 216.596C624.13 212.098 617.12 219.575 612.479 223.189C603.722 229.999 594.972 236.807 586.2 243.595C588.606 232.231 591.441 220.181 599.31 211.326Z" fill="#7CD559"/>
<path d="M620.212 232.662C634.216 237.992 646.723 235.305 660.2 230.2C645.894 255.385 617.9 266.463 590.2 256.649C597.699 249.418 611.44 239.481 620.212 232.662Z" fill="#4F933E"/>
<path d="M600.2 211.11C607.448 201.464 619.198 193.406 630.706 190.219C641.286 187.288 656.988 185.116 666.896 190.487C668.73 193.113 668.116 192.492 668.043 196.482C646.788 193.675 636.405 193.05 615.741 202.64C612.052 204.355 602.889 212.116 600.2 211.11Z" fill="#8CF2C9"/>
<path d="M460.753 198.339C460.464 195.683 459.672 192.97 460.746 190.972C484.092 183.236 517.689 192.012 531.08 213.299C538.005 221.411 541.576 235.027 544.2 245.2C538.414 240.573 507.458 215.832 502.482 215.062C499.556 215.702 499.692 215.78 497.328 217.734C494.315 224.515 503.135 229.08 508.12 232.466C498.744 239.095 479.626 234.523 469.737 230.099C463.618 220.487 461.858 209.37 460.753 198.339Z" fill="#7CD559"/>
<path d="M460.747 197.895C460.461 195.356 459.679 192.761 460.739 190.85C483.795 183.454 516.975 191.845 530.2 212.2C526.554 211.831 522.938 208.097 519.341 206.074C498.84 194.544 483.311 192.808 460.747 197.895Z" fill="#8CF2C9"/>
<path d="M469.2 230.2C478.943 234.612 497.778 239.17 507.015 232.56C513.764 236.895 531.826 251.775 538.2 257.23C510.385 265.665 483.433 255.971 469.2 230.2Z" fill="#4F933E"/>
<path d="M556.054 153.2C542.964 138.059 517.937 122.347 514.717 102.289C510.032 73.1043 538.014 48.1803 564.922 69.2549C587.802 49.1206 616.063 69.8434 615.18 97.1859C614.594 115.359 603.706 123.017 592.084 134.701C586.392 140.422 580.522 146.21 574.525 151.625C572.091 150.402 558.109 151.789 556.054 153.2Z" fill="#700F70"/>
<path d="M578.583 74.4514C587.723 72.7296 600.144 80.0927 602.371 89.2338C605.95 103.81 597.393 114.225 587.237 123.407C576.08 133.496 566.835 142.563 551.623 133.422C548.574 132.341 543.918 126.635 541.489 124.342C514.6 98.9468 520.672 69.4712 562.157 78.2374C563.375 78.4949 575.728 75.137 578.583 74.4514Z" fill="#EF6063"/>
<path d="M540.109 79.8073C545.845 79.0608 546.437 78.7894 551.906 80.8779C555.328 82.185 561.462 94.1304 563.659 92.8441C569.467 89.444 573.292 79.892 581.098 79.2519C589.91 78.5292 596.235 85.458 596.198 94.0032C596.324 105.169 589.614 110.791 582.37 118.043C576.451 124.113 570.362 130.609 564.029 136.2C555.114 127.621 545.086 118.704 537.117 109.386C528.412 99.2064 529.231 87.5614 540.109 79.8073Z" fill="#FD6265"/>
</g>
<defs>
<clipPath id="clip0_1_6">
<rect width="1126" height="1126" fill="white"/>
</clipPath>
</defs>
</svg>
