<svg width="225" height="225" viewBox="0 0 225 225" fill="none" xmlns="http://www.w3.org/2000/svg">
<path d="M145.457 55.4924C146.521 55.6996 147.566 55.7346 148.208 56.5137C148.245 58.6319 146.685 62.4092 146.419 64.1486C146.063 66.4818 142.835 78.0166 143.046 79.5956C143.3 81.4823 147.029 92.3476 147.992 94.5831C148.52 95.8116 150.56 101.775 151.033 101.901C154.887 102.933 171.86 102.104 174.8 104.524C174.706 105.062 174.582 105.127 174.194 105.551C173.821 106.953 175.4 108.499 174.735 109.124C173.575 110.211 174.181 111.638 171.98 111.63C170.834 111.627 170.697 111.163 169.803 111.568C169.205 113.476 169.659 125.16 169.632 127.811C169.591 131.833 169.547 136.687 169.465 140.78C169.442 141.978 169.809 143.942 169.785 145.015C169.757 146.262 168.842 150.872 169.373 151.903L170.276 152.336C169.89 152.761 169.408 153.288 169.401 153.868C169.338 158.741 169.03 164.484 169.256 169.297L169.269 169.544L163.113 169.512C163.38 167.776 163.772 161.717 162.994 160.287L162.572 160.038L158.803 161.038C158.407 162.567 158.4 167.777 158.403 169.663C155.453 169.44 151.328 169.556 148.256 169.556L130.72 169.564L117.444 169.558C115.418 169.552 111.768 169.437 109.844 169.628L109.841 149.756C109.829 143.027 107.996 130.712 117.789 130.322C131.358 129.782 145.051 130.387 158.649 130.154C158.251 132.439 158.359 136.711 158.364 139.128L158.428 152.218C158.451 153.848 158.65 157.462 158.419 158.861L158.66 159.278C158.72 159.889 158.612 159.691 159.002 160.08C160.723 160.357 163.563 159.24 163.424 157.148C162.87 156.34 163.155 156.579 162.235 156.242C162.879 155.281 163.174 154.79 163.228 153.588C163.656 144.077 163.001 134.411 163.418 124.91C158.316 124.508 151.36 124.88 146.077 124.774C132.605 124.504 118.55 125.09 105.122 124.764C105.43 128.625 105.224 134.085 105.202 138.064L105.174 158.436C105.16 161.222 104.957 166.885 105.224 169.494C104.036 169.52 100.462 169.78 99.7144 169.124C99.4773 168 99.3982 163.216 99.3929 161.745C99.3643 153.907 99.0607 145.939 100.003 138.156C97.024 143.344 96.0293 151.3 92.9268 156.345C92.6794 156.748 91.1575 157.844 90.6821 158.19C76.4833 159.515 84.1371 145.048 86.2253 138.05C86.6907 136.491 87.0717 134.956 87.4367 133.372C85.5714 133.542 84.1606 133.687 82.3256 134.029C82.3175 135.191 82.4307 136.369 82.5208 137.53C80.9653 137.608 79.4593 137.594 77.903 137.588C78.1429 142.275 77.8735 147.185 77.9599 151.886C78.0034 154.253 77.9746 156.835 77.8201 159.194C84.1931 160.642 90.3909 161.408 96.9249 163.243C97.4661 164.437 98.2947 166.217 98.4795 167.508C98.813 169.836 95.7714 169.526 94.2741 169.548C94.1041 168.67 93.9782 168.069 93.9599 167.16C93.9347 165.903 94.9731 164.707 94.5297 163.82C93.7578 163.291 92.475 163.663 91.2672 163.495C87.7168 163.001 81.5997 160.974 78.2712 160.863C76.5789 162.03 79.2464 165.699 80.0389 166.895C79.5439 167.839 79.3 168.426 78.9236 169.426C75.9784 169.374 76.3706 169.596 74.796 166.926C76.6947 164.96 76.6943 163.344 76.8758 160.777C72.9653 160.888 64.0653 163.999 60.2359 163.784C60.627 164.753 61.0016 165.756 61.3798 166.733C61.1135 167.804 61.0693 168.355 60.9792 169.465C60.2359 169.494 58.7004 169.617 58.0636 169.343C55.6464 168.303 57.8356 164.642 58.5993 163.13C64.425 161.86 70.8574 160.221 76.7701 159.461C76.5585 153.765 76.4767 143.313 76.7883 137.687C75.413 137.636 74.254 137.663 72.8809 137.708C72.9295 136.208 72.9418 134.707 72.9178 133.206C71.6702 135.489 69.3323 142.37 68.8621 144.976C66.5633 145.044 64.9165 145.275 63.5735 147.31C62.5542 147.744 60.9447 148.416 59.8465 148.31C58.7507 147.728 58.564 146.611 59.0337 145.505C60.8041 144.434 64.5168 144.721 67.745 143.595C68.4793 140.985 70.0497 136.367 70.5098 134.004C66.9149 132.928 63.0921 132.575 59.5253 130.695C59.0276 130.433 57.9698 129.824 57.6638 129.345C53.5074 122.823 51.7261 114.721 49.3871 107.49C47.0991 100.416 45.7269 93.7809 45.6186 86.3409C45.5836 83.945 43.3508 76.9916 46.8506 75.8604C47.223 75.8688 47.5484 75.9096 47.8672 76.119C51.9935 78.8283 56.9358 101.424 57.9848 107.007C61.4512 99.2299 65.2836 92.9811 72.0908 87.7674C76.6989 84.2379 79.503 81.2661 85.7802 82.4597C84.8861 87.9166 88.0829 89.2284 91.0565 93.0657C93.5836 95.5211 98.9662 96.8608 102.375 95.7637C107.377 94.1535 115.113 91.572 115.21 99.9088C115.222 100.953 114.158 101.761 113.422 102.404C115.354 102.415 122.638 102.164 123.947 102.725C124.18 103.357 124.214 103.507 124.706 103.994C125.545 104.463 126.733 104.242 127.728 104.165C129.068 104.155 132.398 104.054 133.575 104.224C134.72 103.336 134.198 102.711 134.996 102.499C136.554 102.084 142.244 102.835 143.308 102C142.148 99.4035 142.907 96.4183 142.349 94.1599C141.922 92.4298 141.978 87.0986 141.544 86.0764C140.266 87.1223 137.681 98.291 137.428 100.455C136.424 100.372 135.064 100.354 134.199 99.915C133.808 98.8115 136.83 89.7148 137.244 87.7872C138.725 80.8915 140.729 74.1013 142.33 67.2322C143.32 63.22 144.702 59.6989 145.457 55.4924ZM99.5008 111.377C97.5984 111.299 96.191 111.267 94.2959 111.365C94.2748 110.023 94.6308 107.856 94.0957 106.602C93.8149 105.944 91.7367 106.153 91.0169 106.012C89.9499 105.804 88.9256 105.387 87.8834 104.995C87.2695 103.998 85.8938 101.327 84.6499 101.643C81.953 102.328 78.5538 107.194 77.0942 109.46C75.7134 111.603 75.7321 113.251 73.9587 115.22C76.4077 115.722 80.2288 115.792 82.8156 115.92C86.2563 115.971 89.6961 116.074 93.134 116.23C94.718 116.303 98.008 116.564 99.3571 116.466C99.3395 114.613 99.3362 113.216 99.5008 111.377ZM143.569 156.564C144.795 154.514 143.773 138.526 144.09 135.12C144.137 134.618 143.963 133.8 143.568 133.425L143.187 133.242C142.967 133.536 142.525 134.154 142.513 134.525C142.286 141.383 142.286 148.374 142.642 155.227C142.678 155.925 142.919 156.294 143.569 156.564ZM155.385 156.345C156.452 152.61 154.837 139.362 155.636 134.907C155.827 133.843 155.346 133.584 154.347 133.411C153.901 135.216 153.915 154.93 154.441 156.03C154.856 156.218 154.94 156.272 155.385 156.345ZM148.486 133.448C148.078 135.788 148.196 153.561 148.585 155.848C149.11 156.287 148.866 156.156 149.636 156.271C149.124 150.511 149.639 140.184 149.657 133.949C149.576 133.832 149.495 133.715 149.414 133.598L148.486 133.448ZM145.727 133.224C145.221 134.862 145.208 155.612 145.748 156.353C145.924 156.37 146.263 156.414 146.423 156.402C146.813 154.234 147.032 134.642 146.318 133.538C146.216 133.38 145.901 133.3 145.727 133.224ZM151.872 133.23C151.23 135.299 151.47 153.002 151.819 156.17C151.841 156.373 152.215 156.517 152.41 156.599C152.994 154.897 153.123 136.783 152.488 133.627C152.46 133.487 152.062 133.329 151.872 133.23ZM49.881 102.585C50.3356 106.685 52.0458 112.358 53.6746 116.113C54.1532 117.216 54.1354 118.256 54.8923 119.392L55.2518 119.497C55.3766 119.179 55.4133 119.16 55.4434 118.817C55.5614 116.622 55.896 114.585 56.0193 112.45C56.0182 112.47 55.2276 111.484 55.1808 111.457C53.579 110.527 50.5275 103.036 49.881 102.585ZM139.404 133.425C139.174 135.6 139.035 154.44 139.439 155.936C139.859 156.277 139.9 156.266 140.447 156.368C140.74 154.873 140.604 133.975 140.446 133.721C140.085 133.604 139.779 133.494 139.404 133.425ZM137.169 133.246C135.915 135.464 136.859 152.037 136.743 155.693C136.73 156.11 137.201 156.324 137.504 156.501C138.585 154.529 137.595 139.265 137.932 136.161C138.013 135.412 138.014 133.63 137.169 133.246Z" fill="#FFD166"/>
<path d="M127.728 104.165C129.068 104.155 132.398 104.054 133.576 104.224C133.206 106.528 135.396 109.096 133.006 110.605C132.257 111.078 131.454 111.539 130.682 111.975C130.954 113.532 131.218 119.526 130.175 120.594C129.416 120.338 129.509 120.134 128.969 119.263C129.054 116.787 128.763 114.952 129.146 112.427C128.504 111.984 127.678 111.502 127.002 111.083C126.635 110.342 126.318 109.396 126.028 108.605C126.482 106.783 126.86 105.79 127.728 104.165Z" fill="#FFD166"/>
<path d="M99.3579 116.466L99.6138 115.417C99.9975 116.103 100.055 119.756 100.083 120.674C95.9079 120.423 94.8702 122.391 92.4995 118.078C92.3976 118.475 92.1743 119.58 91.9874 119.862C90.5776 121.927 87.6664 121.532 85.8075 120.355C83.9651 119.188 83.2759 117.992 82.8164 115.92C86.2571 115.971 89.6969 116.074 93.1348 116.23C94.7188 116.303 98.0087 116.564 99.3579 116.466Z" fill="#FFD166"/>
<path d="M79.9963 115.916C81.4432 116.481 80.5204 119.79 80.2299 121.01C78.7092 120.201 79.0526 117.081 79.9963 115.916Z" fill="#FFD166"/>
<path d="M98.5236 68.1855C99.2485 68.1653 100.17 68.1352 100.883 68.1855C103.71 68.3624 106.352 69.6518 108.232 71.7715C109.051 72.7088 111.225 76.0544 111.141 77.2222L110.84 77.3842C109.174 76.1946 109.112 72.7785 105.511 70.8939C102.664 69.1281 100.179 68.9491 96.9337 69.5329C94.6852 69.9374 90.439 73.232 91.1026 75.694C91.7194 75.6527 92.9318 74.3653 93.6002 73.9889C99.3397 70.7574 105.894 72.3241 109.371 77.8366C111.091 81.9896 111.416 86.0304 108.806 89.911C107.192 92.3568 104.649 94.0363 101.765 94.5602C98.8332 95.0869 95.587 94.5241 93.1438 92.7742C92.5363 92.339 91.793 91.927 91.6842 91.2882C92.8112 89.9477 94.8729 91.4234 95.9078 87.1286C97.2551 81.5359 94.7883 79.5074 89.8958 78.0427C89.3151 76.8219 90.185 73.7569 90.9202 72.5987C92.8274 69.5946 95.3158 68.9776 98.5236 68.1855ZM104.608 88.7034L104.806 88.7089C105.83 88.7427 107.371 89.1512 108.084 89.0156L108.413 88.628C107.918 87.6917 105.613 87.2668 104.647 87.5076C103.081 87.782 101.603 87.8089 101.281 89.6862L101.412 89.9857C101.979 89.9791 103.104 88.9119 104.608 88.7034Z" fill="#FFD166"/>
<path d="M89.9982 80.0073C91.7999 79.9759 92.2609 80.1688 93.8256 81.078C94.9668 83.6501 95.9382 88.5283 92.3426 89.5768C87.0092 89.844 86.0563 85.1039 88.0958 81.0073L89.9982 80.0073ZM91.852 87.9634C93.6658 87.2567 94.4511 85.7112 93.6896 83.8642C93.3189 82.9655 91.4235 81.1976 90.6169 80.9159L90.5185 81.1022C89.6998 82.6212 87.6102 83.4845 88.0327 85.7498C88.2685 87.0131 90.8041 87.8625 91.852 87.9634Z" fill="#FFD166"/>
<path d="M178.882 108.576C178.493 108.199 175.494 105.149 175.444 104.998C175.622 104.864 175.641 104.772 175.827 104.827C179.851 106.27 180.364 110.675 179.842 114.332C179.44 117.148 177.385 121.076 177.23 123.515C176.92 128.404 176.896 132.025 175.787 136.948C174.698 141.782 174.588 145.984 171.48 150.236C171.046 150.882 170.865 151.815 170.276 152.336L169.373 151.903C169.562 151.81 169.783 151.702 170.035 151.578C170.778 149.726 173.178 145.95 173.59 144.351C174.629 140.314 175.326 135.785 175.812 131.718C176.058 129.666 175.758 127.041 176.091 124.944C176.614 121.638 178.065 118.455 178.736 115.289C179.093 113.608 178.764 110.496 178.882 108.576Z" fill="#FFD166" fill-opacity="0.980392"/>
<path d="M175.185 109.805L175.509 110.197C176.329 114 173.6 119.945 173.233 123.809C172.744 128.952 172.612 133.851 171.383 138.911C171.077 140.171 171.293 141.055 170.811 142.423C169.697 140.706 171.724 134.031 171.716 131.714C171.687 123.995 174.419 117.458 175.185 109.805Z" fill="#FFD166"/>
<path d="M162.235 156.242C162.171 157.186 162.341 157.312 161.599 157.895C160.815 158.51 159.642 159.137 158.661 159.278L158.42 158.862C160.232 158.12 160.487 157.212 162.235 156.242Z" fill="#FFD166" fill-opacity="0.968627"/>
</svg>
