<svg width="225" height="225" viewBox="0 0 225 225" fill="none" xmlns="http://www.w3.org/2000/svg">
<path d="M108.79 50.1962C139.271 49.2303 174.077 63.0349 186.577 93.1699C188.741 98.3876 186.58 100.225 184.722 104.389C182.589 105.153 180.947 105.425 178.67 105.435C172.184 105.463 165.699 105.42 159.214 105.421L116.95 105.415L68.312 105.432L53.5097 105.434C48.5129 105.445 44.8911 105.925 40.0835 104.137C39.4758 102.17 37.8017 101.293 37.6582 97.6462C37.435 91.9691 44.9402 80.4185 48.5797 76.5333C64.0858 59.9807 86.3037 50.9908 108.79 50.1962ZM43.6062 100.16C52.1199 100.625 61.7859 100.301 70.3873 100.318L119.861 100.367C133.797 100.195 147.835 100.487 161.772 100.359C167.891 100.304 175.301 100.571 181.343 100.23C181.736 98.6492 182.154 96.9189 181.576 95.3147C176.981 82.5538 165.942 72.4798 154.32 65.9739C149.367 63.201 140.499 59.5885 135.051 58.2382C125.334 55.7391 115.28 54.8039 105.268 55.4673C101.204 56.0416 93.0313 57.1862 89.11 58.4432C83.5661 60.2204 74.3053 63.6872 69.3788 66.6285C63.3526 70.2267 55.0586 76.7625 50.7899 82.2917C48.2747 85.5496 42.6407 93.7219 43.1487 98.0105C43.1927 98.3796 43.4976 99.716 43.6062 100.16Z" fill="#FFD166" fill-opacity="0.980392"/>
<path d="M112.157 76.0838C113.095 76.008 114.157 76.5936 115.037 76.9845C116.248 80.7787 115.6 82.3507 112.659 84.8918C110.635 84.3231 109.604 81.5115 109.104 79.7229C109.673 77.2917 109.619 76.8639 112.157 76.0838Z" fill="#FFD166" fill-opacity="0.984314"/>
<path d="M65.217 82.6698C65.8569 82.4652 67.4068 82.7541 67.9759 83.1356C69.4953 84.1542 68.8882 86.7716 67.6652 87.7808C67.0849 88.2598 65.7931 89.1363 64.9865 89.2739C63.8743 89.3883 61.9848 89.7087 61.0888 89.0757C60.815 87.8158 61.8879 84.8108 62.5036 83.6513C63.1775 83.0506 64.3102 82.8866 65.217 82.6698Z" fill="#FFD166" fill-opacity="0.980392"/>
<path d="M99.0861 65.0978C103.994 64.8429 103.953 67.8158 101.615 71.1493L99.2071 71.3815C97.5941 71.2539 93.881 71.1205 95.1088 68.0562C95.6702 66.6557 97.6866 65.5986 99.0861 65.0978Z" fill="#FFD166" fill-opacity="0.984314"/>
<path d="M90.5622 84.8234L93.7339 84.697C94.1543 85.4168 94.8156 86.3162 95.3015 87.0193C94.9051 90.3148 94.5739 91.0774 91.1864 91.2664C89.9825 91.2965 88.4139 91.5129 87.4735 90.8364C86.2881 88.7822 89.2348 86.2204 90.5622 84.8234Z" fill="#FFD166" fill-opacity="0.980392"/>
<path d="M159.19 80.8794C161.215 80.8067 162.562 80.9328 163.318 83.2239C163.757 84.5522 163.219 85.7556 162.598 86.9186C161.995 88.0474 160.996 87.6758 160.269 88.6815C159.669 89.2389 159.579 89.4182 158.91 89.4543C155.859 87.1491 156.741 83.3307 159.19 80.8794Z" fill="#FFD166" fill-opacity="0.980392"/>
<path d="M129.22 85.0512C130.725 84.992 132.727 85.5748 133.006 87.3086C133.373 89.5883 131.53 91.7497 130.288 93.4821L129.998 93.7405C129.312 93.7857 128.668 93.2852 127.985 92.916C127.779 92.4274 127.582 91.935 127.394 91.439C126.424 88.8522 126.227 86.1206 129.22 85.0512Z" fill="#FFD166" fill-opacity="0.980392"/>
<path d="M143.069 75.4408C148.174 74.8814 150.29 80.0232 143.551 81.3552C141.847 80.9162 139.853 80.4517 138.843 78.9933C138.495 76.9857 141.444 75.8201 143.069 75.4408Z" fill="#FFD166" fill-opacity="0.976471"/>
<path d="M124.441 65.5347C127.712 65.9732 130.021 68.4731 129.791 71.8239C129.255 72.3851 129.271 72.2104 128.279 72.3064C127.258 72.2794 125.447 72.2805 124.549 71.9076C121.314 70.5633 120.705 66.7258 124.441 65.5347Z" fill="#FFD166" fill-opacity="0.980392"/>
<path d="M81.04 70.5046C84.7433 71.0601 84.3146 72.6962 83.6435 75.5783L81.9237 76.9846C81.2041 77.0356 80.4318 77.0501 79.7065 77.0762C78.565 76.9606 76.8968 76.4792 75.7441 76.1863C76.8032 72.3629 77.4637 72.1262 81.04 70.5046Z" fill="#FFD166" fill-opacity="0.980392"/>
<path d="M40.2238 127.828C45.5939 126.994 57.6872 127.293 63.6117 127.293L105.983 127.311L156.773 127.272L171.279 127.278C175.727 127.287 180.316 127.184 184.696 127.913C185.2 128.65 186.556 130.111 187.246 131.02C187.695 135.131 187.599 140.978 182.415 141.394C177.498 141.789 171.646 141.233 166.653 141.447C164.94 141.521 162.874 141.398 161.185 141.256C158.162 143.996 158.816 144.098 154.736 146.926C161.022 147.506 168.126 146.744 174.472 147.038C179.167 147.256 184.445 145.876 187.243 150.637C187.695 155.208 186.731 159.983 184.253 163.878C183.825 162.614 184.561 162.833 184.026 162.294C183.086 162.85 182.276 163.638 181.911 164.686L182.02 165.257L182.411 165.515C182.689 165.424 182.908 165.326 183.195 165.306C178.517 173.656 168.761 175.298 160.1 174.907C156.175 174.73 151.775 174.907 147.81 174.908L109.783 174.906L75.2396 174.908C72.9523 174.91 70.4707 174.875 68.2686 174.912C58.1306 175.08 49.2717 175.394 42.5401 166.456C38.3706 160.919 37.0918 157.043 37.8967 149.947C41.4927 146.656 43.3626 146.999 48.012 147.008C51.8282 147.015 55.718 147.087 59.5362 147.088L106.05 147.055L120.936 147.02C122.147 147.018 126.386 147.331 127.041 146.777C126.786 146.158 126.755 146.191 126.192 145.805C124.422 144.593 123.336 143.241 122.077 141.516C119.456 141.115 108.104 141.432 104.728 141.446L63.4357 141.465C56.7138 141.474 49.6977 141.561 42.9693 141.33C40.1552 141.233 39.5327 139.937 37.8837 137.832C37.4776 134.983 37.5796 133.61 37.8479 130.716L40.2238 127.828ZM178.094 163.106C181.477 159.496 181.755 157.08 182.132 152.234L160.705 152.237C155.423 152.23 148.124 151.365 143.993 155.244C143.251 155.301 141.406 155.457 140.752 155.35C136.895 154.716 134.863 152.31 130.706 152.296C110.49 152.227 90.2434 152.214 70.029 152.225L52.7363 152.248C49.9625 152.245 45.7042 152.343 43.0369 152.086C43.0134 157.863 44.1125 160.492 48.1898 164.74C54.116 170.915 61.7957 169.873 69.8374 169.872L136.987 169.86L156.29 169.869C166.492 169.871 170.742 171.032 178.094 163.106ZM143.745 149.602C147.848 146.896 150.062 144.315 153.547 140.935C157.666 137.649 159.026 136.287 162.577 132.376C159.676 132.725 155.991 132.612 153.018 132.599L139.367 132.541C134.389 132.521 124.448 132.875 120.109 132.263C120.435 133.922 135.828 147.434 137.634 148.642C139.451 149.856 141.658 149.857 143.745 149.602Z" fill="#FFD166" fill-opacity="0.988235"/>
<path d="M185.885 121.241C175.729 122.828 170.01 116.641 160.662 116.83C158.897 116.866 156.818 116.83 155.093 117.24C153.304 117.716 151.405 118.343 149.683 119.037C142.562 121.909 134.309 122.272 126.923 120.235C122.708 119.073 118.618 116.845 114.092 116.835C111.816 116.831 109.391 116.742 107.131 117.264C101.843 118.702 97.2199 121.106 91.5839 121.374C86.9639 121.593 82.6322 121.433 78.1845 120.037C74.1587 118.774 70.4003 116.849 66.1319 116.835C64.0453 116.828 61.0001 116.783 58.9385 117.218C57.274 117.587 56.0093 118.441 54.3868 118.877C51.23 119.727 39.002 124.344 37.7698 119.058C37.708 118.792 37.8946 117.435 38.1137 117.261C40.2892 115.526 43.8646 116.539 46.4606 115.803C50.8569 114.758 54.2335 112.479 58.7521 112.054C62.705 111.791 69.7026 111.311 73.4584 112.666C80.0566 115.046 83.1844 116.659 90.5466 116.208C95.8149 115.885 98.1974 114.531 103.083 112.78C106.82 111.442 112.638 111.803 116.632 111.894C118.426 111.963 120.451 112.33 122.159 112.848C124.417 113.479 126.922 114.878 129.157 115.422C133.19 116.405 139.832 116.688 143.799 115.507C148.495 114.109 151.677 111.886 156.907 111.867C161.58 111.85 166.442 111.448 170.96 113.109C173.559 114.054 175.868 115.306 178.604 115.86C181.191 116.384 184.957 115.64 186.991 117.459C186.571 117.619 186.392 117.69 185.954 117.782C185.474 118.773 185.093 120.312 185.885 121.241Z" fill="#FFD166" fill-opacity="0.976471"/>
<path d="M183.194 165.306C182.907 165.326 182.688 165.424 182.41 165.515L182.018 165.257L181.91 164.687C182.275 163.638 183.085 162.85 184.025 162.294C184.56 162.834 183.823 162.614 184.252 163.878C183.886 164.641 183.831 164.74 183.194 165.306Z" fill="#FFD166" fill-opacity="0.94902"/>
<path d="M186.992 117.459C187.195 119.013 187.357 120.253 185.885 121.241C185.093 120.312 185.475 118.773 185.954 117.782C186.393 117.691 186.571 117.62 186.992 117.459Z" fill="black" fill-opacity="0.917647"/>
</svg>
