<svg width="36" height="36" viewBox="0 0 36 36" fill="none" xmlns="http://www.w3.org/2000/svg">
<path d="M18 4.5C16.2098 6.29021 15.2041 8.71826 15.2041 11.25C15.2041 13.7817 16.2098 16.2098 18 18C19.7902 19.7902 22.2183 20.7959 24.75 20.7959C27.2817 20.7959 29.7098 19.7902 31.5 18C31.5 20.67 30.7082 23.2801 29.2248 25.5002C27.7414 27.7203 25.633 29.4506 23.1662 30.4724C20.6994 31.4942 17.985 31.7615 15.3663 31.2406C12.7475 30.7197 10.3421 29.4339 8.45406 27.5459C6.56606 25.6579 5.28031 23.2525 4.7594 20.6337C4.2385 18.015 4.50585 15.3006 5.52763 12.8338C6.54942 10.367 8.27974 8.25856 10.4998 6.77516C12.7199 5.29176 15.33 4.5 18 4.5Z" stroke="#74EBAF" stroke-width="3" stroke-linecap="round" stroke-linejoin="round"/>
</svg>
