<svg width="36" height="36" viewBox="0 0 36 36" fill="none" xmlns="http://www.w3.org/2000/svg">
<path d="M18 31.41C20.25 31.41 22.125 33 24 33C28.5 33 33 21 33 14.67C32.9489 12.7271 32.1318 10.8831 30.727 9.54007C29.3221 8.197 27.4432 7.4637 25.5 7.5C22.17 7.5 19.5 9.66 18 10.5C16.5 9.66 13.83 7.5 10.5 7.5C8.55563 7.45974 6.67455 8.19172 5.2688 9.53562C3.86304 10.8795 3.04721 12.7258 3 14.67C3 21 7.5 33 12 33C13.875 33 15.75 31.41 18 31.41Z" stroke="#74EBAF" stroke-width="3" stroke-linecap="round" stroke-linejoin="round"/>
<path d="M15 3C16.5 3.75 18 6 18 10.5" stroke="#74EBAF" stroke-width="3" stroke-linecap="round" stroke-linejoin="round"/>
</svg>
