<svg width="225" height="225" viewBox="0 0 225 225" fill="none" xmlns="http://www.w3.org/2000/svg">
<g clip-path="url(#clip0_104_113)">
<path d="M111.089 0H114.15C116.53 0.780675 119.199 0.948072 121.667 1.67881C130.028 4.10484 137.025 9.86179 141.016 17.5997C147.281 29.9065 144.86 45.0754 135.21 54.6653C132.926 56.9344 129.468 58.888 128.023 61.8438C127.359 63.7838 127.573 70.8504 127.797 72.9556C128.874 74.4225 129.948 75.7481 131.853 75.7586C142.809 75.8202 149.518 74.5937 156.497 84.6991C159.779 89.452 163.942 95.1763 167.553 100.191L186.002 125.334L193.139 135.17C195.262 138.135 198.605 143.715 202.551 144.022C209.686 144.578 216.94 142.587 221.928 149.277C224.325 152.213 224.018 154.536 225 156.287V159.266C224.468 160.26 224.143 161.632 223.802 162.727C219.984 174.973 205.634 171.35 195.979 171.672C195.489 171.689 195.262 171.735 194.921 172.074C195.232 172.851 198.822 174.984 199.934 176.031C214.575 189.808 210.267 213.742 192.263 222.093C190.734 222.803 187.211 224.11 185.62 223.337C182.201 221.755 179.073 219.76 175.784 217.942L151.659 204.441L134.857 195.263C133.128 194.323 128.14 191.774 126.786 190.727L126.799 190.37L143.427 180.478C145.385 179.309 147.19 177.897 149.238 176.841C159.965 171.312 168.273 169.191 180.28 168.868C175.995 165.639 171.651 157.983 168.459 153.289L155.812 134.973C154.8 133.487 150.91 126.78 149.785 126.33L149.485 126.497C149.195 128.291 149.271 133.205 149.272 135.265L149.351 152.195C149.365 155.037 149.721 159.494 148.391 161.961C140.398 166.103 132.97 171.452 124.967 175.625C122.485 176.919 119.924 179.294 117.25 180.505C115.65 181.358 114.305 182.09 112.607 182.758C104.375 178.715 96.6542 173.772 88.45 169.626C84.068 167.411 78.786 163.694 74.2401 162.036L72.9494 160.433L72.9883 135.627C72.9769 132.518 73.0795 128.328 72.9066 125.282C70.6909 129.735 68.1926 132.624 65.5137 136.741C61.5948 142.8 57.5919 148.805 53.5056 154.752C49.4848 160.698 47.8481 163.929 42.8008 169.18C52.6788 169.482 61.5887 170.475 70.4039 175.259C73.5493 176.965 76.5642 178.876 79.6882 180.584L108.091 196.281L144.753 216.673C150.212 219.76 154.154 221.427 159.547 225H40.6953C39.6365 224.626 35.904 224.134 34.358 223.767C26.7825 221.974 21.4725 217.106 17.3853 210.636C13.6249 204.685 13.3032 196.205 14.8537 189.477C16.1065 184.041 20.07 178.538 24.3439 175.014C25.2541 174.263 27.7862 172.794 28.9169 172.117C18.9951 172.058 6.6415 175.135 1.38613 164.375C0.797774 163.17 0.807029 161.295 0 160.136V156.438C0.304198 155.971 0.511376 154.983 0.735095 154.427C1.47216 152.597 2.2226 150.746 3.52176 149.269C8.32311 143.808 13.165 144.655 19.666 144.452C21.1896 144.405 23.0357 143.536 24.1682 142.435C27.0314 139.596 29.1447 136.137 31.469 132.87C32.3319 131.472 33.6298 130.158 34.5056 128.796C37.0549 124.83 40.0518 121.193 42.7805 117.388L57.6609 96.643C60.9941 92.0294 64.4181 87.2495 67.6712 82.5691C69.1976 80.8985 72.6396 77.7808 74.6547 76.9887C80.3015 74.7686 88.772 76.1939 94.6543 75.6789C95.9179 74.6594 96.4756 74.0525 97.3435 72.722C97.5955 70.311 97.7805 63.8846 97.0238 61.6309C96.38 59.7125 93.0628 57.5552 91.426 56.1384C86.4376 51.8722 82.9325 46.132 81.4166 39.7455C79.717 32.6048 80.8018 22.9438 84.6059 16.5305C85.1295 15.6476 88.69 10.5323 89.3384 9.93096C93.6136 5.96586 98.4733 2.73041 104.239 1.38405C106.677 0.814652 108.831 0.538539 111.089 0Z" fill="#74EBAF"/>
</g>
<defs>
<clipPath id="clip0_104_113">
<rect width="225" height="225" fill="white"/>
</clipPath>
</defs>
</svg>
