<svg width="221" height="172" viewBox="0 0 221 172" fill="none" xmlns="http://www.w3.org/2000/svg">
<path d="M60.0949 79.5301C60.764 79.0239 61.8392 78.3589 62.6802 78.239C68.3169 77.4347 74.0697 77.5708 79.7432 77.4087C82.0962 77.3415 84.3799 77.0284 86.6378 76.9612C103.488 76.4068 120.353 76.4991 137.196 77.238C141.867 77.4342 156.814 77.1663 160.053 79.5879L161.116 80.2062L161.194 80.2811C161.838 80.888 162.653 81.0383 162.633 82.0142C162.623 82.5237 162.52 83.0447 162.094 83.3256C160.007 84.7039 160.098 86.2946 160.024 88.6723C159.966 90.5549 160.076 92.626 160.384 94.6443C163.037 93.1962 165.966 92.4105 168.637 91.1697C173.465 88.9277 180.001 88.0241 177.624 95.9217C171.864 97.9899 164.742 101.124 160.321 105.359C159.871 107.557 159.988 111.489 159.989 113.869L160.009 129.859C159.997 136.57 160.343 143.382 156.504 149.279L155.904 148.714C155.521 148.841 153.983 151.135 153.465 151.626C152.637 152.411 151.232 153.151 150.52 153.901L150.912 153.879L150.933 154.025C150.642 154.209 150.26 154.494 149.946 154.556L150.008 154.942C146.619 156.663 144.325 157.92 140.515 157.976C133.798 158.073 127.103 158.058 120.387 158.041L98.5137 158.064C92.2839 158.052 82.4928 158.558 76.5647 157.609C71.2525 156.759 63.4662 151.035 61.8478 145.667C59.6104 138.245 60.1157 128.617 60.157 120.626C60.2166 115.55 60.18 110.473 60.0472 105.399C56.3854 101.325 48.7024 98.3873 43.7167 96.2162C41.4633 95.2349 41.854 92.1787 42.9431 90.5774C45.4917 86.8307 57.7992 94.6569 59.776 94.2069C60.6335 92.7748 60.1189 87.2243 59.743 85.4856C59.3985 83.8928 57.2414 82.163 58.9718 80.5299C59.2223 80.2539 59.7873 79.7938 60.0949 79.5301ZM81.9042 152.042L81.8839 151.601C77.5253 148.699 75.4076 148.265 73.0468 143.202C69.8889 136.431 70.6589 129.384 70.6586 122.024L70.6475 102.936C70.6463 98.7395 70.7101 93.7462 70.4666 89.5562C68.9062 89.4861 67.3467 89.397 65.7885 89.2886C66.0362 98.4036 65.7337 107.501 65.8532 116.682C65.9492 124.07 65.0399 132.939 66.9135 140.125C67.5819 142.688 70.5732 146.237 72.5054 148.082C75.3641 150.812 78.043 151.743 81.9042 152.042Z" fill="#74EBAF"/>
<path d="M60.0947 79.5301C60.7639 79.0239 61.8391 78.3589 62.6801 78.239C68.3168 77.4347 74.0696 77.5708 79.743 77.4087C82.0961 77.3415 84.3798 77.0284 86.6377 76.9612C103.488 76.4068 120.353 76.4991 137.196 77.238C141.867 77.4342 156.814 77.1663 160.053 79.5879C157.396 79.0533 146.345 80.0744 142.668 80.1508C127.844 80.3582 113.018 80.4394 98.1929 80.3942C90.6326 80.3161 83.0105 80.1918 75.4526 80.0854C71.9928 80.0367 62.9191 78.7697 60.0947 79.5301Z" fill="#74EBAF"/>
<path d="M107.543 17.6207C108.237 17.3842 108.938 17.0086 109.598 16.6794C108.985 18.218 108.149 19.7877 107.706 21.2695C105.344 29.1785 108.903 37.9469 112.951 44.6949C113.431 45.4963 113.696 47.5739 114.02 48.5177C116.145 55.3749 114.79 63.9075 108.987 68.6693C111.24 64.1872 111.338 57.9312 109.629 53.2247C107.656 47.7865 104.336 42.4436 102.594 36.9489C101.566 33.7086 101.836 27.2347 103.448 24.138C104.011 23.0565 106.655 18.1182 107.543 17.6207Z" fill="#74EBAF" fill-opacity="0.976471"/>
<path d="M90.432 36.8421C91.0224 36.8174 91.4678 36.7101 91.8565 37.2938C87.3213 45.9257 97.0652 52.2091 95.9465 61.1697C95.6064 63.8941 95.3899 65.8967 93.282 67.6847L93.0474 67.6274C92.8665 66.9351 93.4079 64.2126 93.4789 63.3093C93.7671 59.6439 92.5554 56.8672 90.6197 53.8021C88.335 50.1847 87.3902 46.1805 88.2148 41.9301C88.5893 39.9986 90.0723 38.7314 90.432 36.8421Z" fill="#74EBAF" fill-opacity="0.952941"/>
<path d="M120.996 39.9982C121.39 39.8044 121.705 39.6452 122.121 39.4932C122.328 39.714 122.579 40.9495 122.984 41.6344C122.943 45.8812 123.624 46.1654 125.327 49.967C127.597 55.0341 128.375 58.2926 127.619 63.815C126.538 64.928 126.391 67.2557 125.092 67.3348C128.1 54.6184 117.531 52.9411 120.996 39.9982Z" fill="#74EBAF" fill-opacity="0.956863"/>
<path d="M150.008 154.942L149.945 154.556C150.259 154.494 150.642 154.209 150.932 154.025L150.912 153.88L150.519 153.901C151.232 153.151 152.637 152.411 153.465 151.626C153.982 151.135 155.52 148.841 155.904 148.714L156.503 149.279C155.312 151.172 152.139 154.365 150.008 154.942Z" fill="#74EBAF" fill-opacity="0.941176"/>
<path d="M120.996 39.9982C121.729 38.9633 123.99 35.0006 124.774 34.6902L124.993 34.9478C124.893 35.8383 124.777 35.4756 124.3 36.154C123.365 37.4845 122.977 40.0926 122.984 41.6343C122.579 40.9494 122.328 39.714 122.121 39.4931C121.705 39.6451 121.39 39.8043 120.996 39.9982Z" fill="#74EBAF" fill-opacity="0.960784"/>
<path d="M107.543 17.6206C108.097 16.3419 109.474 15.8557 110.747 13.8191C110.463 14.9635 110.158 15.666 109.598 16.6793C108.938 17.0085 108.237 17.3841 107.543 17.6206Z" fill="#74EBAF" fill-opacity="0.94902"/>
<path d="M90.4316 36.8421C90.8568 36.7378 91.1857 36.6477 91.6052 36.5154C92.1884 35.5433 91.7094 35.4246 92.3962 34.6812L92.6334 34.7171C92.8269 35.3631 92.3302 36.7945 91.8562 37.2937C91.4675 36.71 91.0221 36.8174 90.4316 36.8421Z" fill="#74EBAF" fill-opacity="0.92549"/>
</svg>
