<svg width="36" height="36" viewBox="0 0 36 36" fill="none" xmlns="http://www.w3.org/2000/svg">
<path d="M21.6004 21.6L14.4004 14.4" stroke="#74EBAF" stroke-width="3" stroke-linecap="round" stroke-linejoin="round"/>
<path d="M27.9851 32.2275C27.4226 32.7902 26.6596 33.1064 25.8639 33.1066C25.0682 33.1067 24.3051 32.7908 23.7424 32.2283C23.1796 31.6657 22.8634 30.9027 22.8633 30.107C22.8631 29.3114 23.1791 28.5482 23.7416 27.9855L21.0911 30.6375C20.5284 31.2002 19.7652 31.5164 18.9694 31.5164C18.1735 31.5164 17.4103 31.2002 16.8476 30.6375C16.2849 30.0748 15.9688 29.3116 15.9688 28.5158C15.9688 27.7199 16.2849 26.9567 16.8476 26.394L26.3936 16.848C26.9563 16.2853 27.7195 15.9691 28.5154 15.9691C29.3112 15.9691 30.0744 16.2853 30.6371 16.848C31.1998 17.4107 31.516 18.1739 31.516 18.9698C31.516 19.7656 31.1998 20.5288 30.6371 21.0915L27.9851 23.742C28.5478 23.1795 29.311 22.8635 30.1066 22.8637C30.9023 22.8638 31.6653 23.18 32.2279 23.7428C32.7904 24.3055 33.1063 25.0686 33.1062 25.8643C33.106 26.66 32.7898 27.423 32.2271 27.9855L27.9851 32.2275Z" stroke="#74EBAF" stroke-width="3" stroke-linecap="round" stroke-linejoin="round"/>
<path d="M32.2504 32.25L30.1504 30.15" stroke="#74EBAF" stroke-width="3" stroke-linecap="round" stroke-linejoin="round"/>
<path d="M5.85 5.85L3.75 3.75" stroke="#74EBAF" stroke-width="3" stroke-linecap="round" stroke-linejoin="round"/>
<path d="M9.60613 19.152C9.04341 19.7147 8.28019 20.0309 7.48438 20.0309C6.68857 20.0309 5.92536 19.7147 5.36263 19.152C4.79991 18.5893 4.48377 17.8261 4.48377 17.0303C4.48377 16.2344 4.79991 15.4712 5.36263 14.9085L8.01463 12.258C7.736 12.5365 7.40523 12.7575 7.04122 12.9082C6.67721 13.0589 6.28708 13.1364 5.8931 13.1363C5.09743 13.1362 4.33441 12.82 3.77188 12.2573C3.49335 11.9786 3.27242 11.6479 3.12172 11.2838C2.97102 10.9198 2.89349 10.5297 2.89355 10.1357C2.8937 9.34005 3.20991 8.57703 3.77263 8.0145L8.01463 3.7725C8.57716 3.20978 9.34018 2.89357 10.1359 2.89343C10.5298 2.89336 10.92 2.97089 11.284 3.12159C11.648 3.27229 11.9788 3.49322 12.2574 3.77175C12.536 4.05029 12.7571 4.38097 12.9079 4.74493C13.0587 5.10889 13.1364 5.499 13.1365 5.89297C13.1365 6.28695 13.059 6.67708 12.9083 7.04109C12.7576 7.4051 12.5367 7.73587 12.2581 8.0145L14.9086 5.3625C15.4714 4.79978 16.2346 4.48364 17.0304 4.48364C17.8262 4.48364 18.5894 4.79978 19.1521 5.3625C19.7149 5.92523 20.031 6.68844 20.031 7.48425C20.031 8.28006 19.7149 9.04328 19.1521 9.606L9.60613 19.152Z" stroke="#74EBAF" stroke-width="3" stroke-linecap="round" stroke-linejoin="round"/>
</svg>
