<svg width="225" height="225" viewBox="0 0 225 225" fill="none" xmlns="http://www.w3.org/2000/svg">
<path d="M110.297 16.3383C117.228 15.9081 120.353 18.0303 126.411 20.0419C142.66 25.4376 157.646 32.8975 172.05 42.1911C184.803 50.3445 196.555 59.9669 207.063 70.8612C211.135 75.0345 214.471 77.6409 216.064 83.5304C217.42 88.3488 216.797 93.5086 214.335 97.8665C210.095 105.207 202.125 106.448 195.092 109.786C189.567 112.407 184.064 114.687 178.419 117.047C173.622 119.052 168.11 122.127 163.117 123.452C163.244 127.023 163.562 132.854 162.417 136.22C160.537 141.746 154.703 143.601 149.472 141.678C144.376 139.805 145.655 135.311 144.266 132.038C142.955 131.527 141.13 133.342 139.846 133.88L122.138 141.336L62.2631 166.983C60.4462 167.475 57.4067 169.28 55.322 170.165C55.1482 174.892 55.5347 179.936 54.9774 184.66C54.6659 187.454 52.9223 189.667 50.6411 191.199C43.9175 195.716 36.1201 192.13 33.7835 184.779C33.1935 182.923 33.9171 177.089 33.1397 175.987C32.2749 175.621 30.9824 175.733 30.0077 175.746C30.064 181.572 29.8335 187.431 29.9671 193.328C30.0993 199.166 29.9416 205.727 23.3302 208.215C18.6686 209.969 15.5455 208.247 11.4729 206.301C10.4842 204.204 8.4069 202.551 8.36476 199.913C8.01252 177.34 5.4331 154.627 18.5724 134.745C24.5086 125.762 31.8917 118.818 38.8475 110.697C40.6352 108.61 42.684 106.593 44.5492 104.557L64.8306 82.2307C67.8407 78.8733 70.5125 75.4403 73.8366 72.3077C75.1806 71.0409 76.5862 69.0456 77.8903 67.631C81.5571 63.6535 85.3612 59.8024 88.7419 55.5768C91.3853 52.4538 95.0364 49.3654 97.5853 45.8258C97.5853 45.7251 97.5846 45.2147 97.5846 45.2147C95.8721 43.208 95.0852 41.3631 94.5884 38.8027C92.9009 30.1035 96.6114 22.0674 104.502 17.9558C106.256 17.0421 108.338 16.7149 110.297 16.3383ZM62.2658 93.9863L62.0504 93.2733C60.6767 93.3225 58.1927 96.8496 57.5278 98.0295L57.6858 98.1253C58.1503 97.6889 58.3469 97.3411 58.8787 97.2607L59.0279 97.5826C55.3617 101.934 50.6345 106.708 46.8194 111.012C45.1721 112.87 42.308 116.375 40.6746 117.864C50.8099 127.683 45.1533 145.635 30.3353 145.471C26.9487 145.434 23.6315 144.94 21.1153 142.516C19.7612 145.745 17.6943 149.898 16.6342 153.304C13.3969 163.703 14.4418 175.928 14.2472 186.751C14.1765 190.684 14.0969 195.214 14.5068 199.077C14.5815 199.781 15.2905 201.266 15.614 201.959C23.833 204.776 23.967 200.32 24.0021 193.546C24.0764 187.474 23.6778 182.17 24.3368 176.058C24.9881 170.018 31.5451 168.37 36.1667 170.817C40.4623 173.091 39.2745 180.324 40.3023 184.634C40.6979 185.028 41.0989 185.417 41.5047 185.801C44.8048 188.904 46.6597 186.644 49.0147 184.025C50.557 178.213 48.4177 168.962 50.1762 162.648C51.4721 157.995 52.934 154.252 57.0499 151.416C54.4261 145.404 55.9317 138.568 60.8758 134.258C64.2086 131.378 68.5478 129.94 72.9403 130.258C78.0764 130.617 82.2253 133.211 84.5906 137.368C85.1773 138.399 87.0804 137.152 87.9164 136.742C96.3596 132.597 105.357 129.545 113.836 125.386C116.498 124.339 119.091 123.238 121.756 122.193C126.779 120.223 134.747 115.541 139.846 114.979C152.135 113.623 150.338 125.702 150.378 133.776C152.251 137.049 156.068 137.492 156.572 133.772C157.276 128.568 156.452 122.604 156.956 117.295C157.18 115.132 157.7 113.01 158.503 110.989C161.935 102.22 169.061 102.532 176.384 98.3598C177.044 97.9836 179.866 96.8403 180.224 96.5437L180.188 96.1777C179.21 95.0012 177.439 94.1428 176.285 93.0481C156.833 74.6027 133.11 60.6723 108.083 51.2225C106.606 50.6648 103.593 49.1775 102.205 49.4414L101.975 49.9494C102.567 51.1599 103.481 51.4176 104.666 51.9315C105.213 53.0726 106.173 54.1615 106.802 55.2367C115.849 70.6865 97.9979 85.9259 83.6856 75.9224C82.619 75.1769 82.5654 73.5265 81.0251 73.3002C80.3029 73.5942 80.0368 74.2507 79.6363 74.9391C79.4765 74.512 79.3989 74.2819 79.2983 73.8374C78.3566 74.354 75.3439 77.489 75.0407 78.6059L75.227 78.8045L76.0885 78.0201C76.3307 78.1979 76.2606 78.0755 76.3302 78.3741C75.0391 80.2653 71.9994 82.8495 70.622 85.0019C69.838 86.2269 67.5425 87.8412 66.63 89.1115C65.2978 90.5144 63.6659 92.7998 62.2658 93.9863ZM59.4794 161.609C61.7074 160.45 64.5896 159.539 66.955 158.536L83.8702 151.276C103.799 142.793 123.785 133.734 143.789 125.401C144.234 125.216 144.425 124.712 144.558 124.302C144.554 122.521 142.729 120.838 141.105 120.51C134.336 122.963 129.854 125.224 123.517 127.965L91.7583 141.699C83.127 145.412 74.5092 149.218 65.7801 152.694C60.8505 154.656 57.9648 158.621 56.0442 163.334C56.9194 162.891 58.6726 161.931 59.4794 161.609ZM162.895 116.934C166.41 115.859 168.292 114.665 171.443 113.369C180.103 109.929 188.493 105.97 197.099 102.413C199.012 101.622 201.135 101.138 202.958 100.131C207.828 97.237 211.207 93.8804 210.676 87.7755C210.452 85.1872 209.751 83.7721 208.98 81.3977C203.965 77.0188 203.861 76.208 196.791 76.33C188.654 76.9191 184.523 85.6233 186.748 92.9286C187.179 94.344 189.415 95.8615 188.961 97.7751C188.847 100.971 184.798 101.248 182.454 102.198C180.652 102.928 179.086 104.005 177.339 104.763C169.919 107.983 164.886 107.883 162.895 116.934ZM24.1212 137.718C25.6584 138.376 27.5991 139.014 28.944 139.615C36.5083 140.379 41.7776 132.947 39.0675 126.029C38.6566 124.981 37.3167 122.897 36.0944 122.954C33.8567 124.935 32.6625 127.136 30.57 129.179C28.1022 131.589 25.6015 134.584 24.1212 137.718ZM68.6671 145.021C69.7929 144.656 78.304 140.765 78.8567 140.156C78.9103 139.726 79.0302 139.286 78.651 138.958C76.1659 136.811 72.9491 136.013 69.8222 136.317C66.771 137.357 64.3534 138.368 62.796 141.434C62.1561 142.694 61.6791 146.467 62.3145 147.72C63.6125 147.598 66.7526 145.686 68.6671 145.021ZM91.371 72.8321C105.877 74.1701 105.567 57.5339 97.7219 55.0976C95.1105 57.1107 92.7065 60.6934 90.4716 63.1842C88.6334 65.2329 86.8112 66.2502 85.5109 68.6631C86.3645 69.7711 87.1865 70.9981 88.371 71.7192L88.4849 71.79C89.1996 72.2286 90.5316 72.5847 91.371 72.8321ZM196.908 69.8226C193.772 65.867 189.428 62.6524 185.473 59.4737C167.144 44.5733 146.306 33.0599 123.936 25.4738C120.714 24.3594 117.124 22.6088 113.843 22.2326C112.68 22.101 111.506 22.0949 110.342 22.2137C102.659 24.1546 98.9318 30.7936 100.835 38.4526C101.153 39.7347 102.095 42.126 103.345 42.8832C117.35 47.9984 130.076 53.4802 143.093 60.925C151.93 66.0852 160.411 71.8324 168.479 78.128C170.804 79.9643 173.087 81.8535 175.326 83.7934C176.451 84.7699 178.832 86.9902 179.968 87.6999C180.387 85.6132 180.754 83.6816 181.361 81.6333C183.879 74.8604 189.895 70.9196 196.908 69.8226Z" fill="#FFD166" fill-opacity="0.984314"/>
<path d="M101.691 89.1132C110.256 88.3476 117.835 94.6351 118.664 103.194C119.493 111.753 113.262 119.379 104.709 120.271C96.0662 121.173 88.3426 114.862 87.5048 106.213C86.6667 97.563 93.0353 89.8866 101.691 89.1132ZM95.6689 111.449C99.3614 113.62 100.311 113.823 104.628 113.662C110.195 112.908 113.357 108.786 112.56 103.193C112.176 100.577 110.759 98.2243 108.627 96.6621C106.528 95.1225 104.239 94.8709 101.713 94.9944C92.9109 96.9528 91.8767 104.27 95.6689 111.449Z" fill="#FFD166" fill-opacity="0.984314"/>
<path d="M66.0701 102.832C68.3102 102.841 70.0821 104.803 71.8538 106.316L72.5422 108.539C72.0621 110.114 72.5022 110.904 70.9737 111.655C69.4934 111.686 68.9362 111.66 67.5339 111.199C65.0881 108.085 62.1302 106.685 66.0701 102.832Z" fill="#FFD166" fill-opacity="0.980392"/>
<path d="M135.182 80.9219C137.33 80.7919 137.822 81.2014 139.472 82.4466C142.149 84.4664 142.861 86.8352 140.788 89.5291C139.264 89.6398 138.74 89.6818 137.441 88.8213C135.734 87.6908 133.43 85.9291 133.669 83.6178C133.788 82.5517 134.334 81.5796 135.182 80.9219Z" fill="#FFD166" fill-opacity="0.968627"/>
<path d="M81.3461 87.0198C83.934 87.4021 84.0742 88.127 84.43 90.4484C83.3865 93.4283 82.6563 94.1609 79.6993 95.1916C75.8859 94.603 75.9802 93.3773 77.0667 90.0028C78.3734 88.9057 79.7713 87.6344 81.3461 87.0198Z" fill="#FFD166" fill-opacity="0.984314"/>
<path d="M131.395 100.226C132.567 100.156 133.732 100.112 134.559 101.087C135.057 101.673 135.291 102.44 135.204 103.205C134.901 105.952 132.563 106.776 130.783 108.181C128.532 108.069 127.97 107.127 126.791 105.382L127.639 103.08C129.074 102.068 129.768 101.177 131.395 100.226Z" fill="#FFD166" fill-opacity="0.980392"/>
<path d="M122.268 71.6476C124.402 71.2967 125.044 72.7568 125.819 74.3206C125.64 74.7128 125.448 75.0993 125.243 75.479C124.552 76.7583 123.202 79.0017 121.772 79.4255C120.236 79.5002 119.744 79.306 118.28 78.8909L117.622 76.3766C117.767 76.0246 117.923 75.6774 118.091 75.3357C119.072 73.3591 120.21 72.3585 122.268 71.6476Z" fill="#FFD166" fill-opacity="0.984314"/>
<path d="M152.542 90.7883C152.711 90.7982 152.88 90.8094 153.049 90.8222C156.292 91.0661 157.38 92.3504 159.387 94.6814C158.769 95.9022 158.25 97.3331 157.135 97.9969C153.232 99.0182 148.512 94.0506 152.542 90.7883Z" fill="#FFD166" fill-opacity="0.976471"/>
<path d="M26.9334 157.568C31.1493 158.217 35.4659 163.04 29.6842 164.436C27.5405 164.152 26.8172 163.743 24.8656 162.855C24.629 161.798 24.273 161.042 23.8516 160.055C24.9032 158.437 25.1236 158.213 26.9334 157.568Z" fill="#FFD166" fill-opacity="0.972549"/>
<path d="M53.8652 123.967C54.099 123.572 54.3447 123.184 54.6022 122.804C59.6208 115.502 65.064 120.061 60.7271 124.982C60.2826 124.547 60.4797 124.618 59.9376 124.533C58.6979 125.119 57.3995 125.765 56.0836 126.128C55.8911 126.354 55.7167 126.601 55.48 126.762C54.9951 126.253 54.2669 124.693 53.8652 123.967Z" fill="#FFD166" fill-opacity="0.980392"/>
<path d="M80.2622 119.328C82.3716 119.702 82.9906 119.814 84.8152 121.061C84.7354 122.677 84.1852 125.234 84.7703 126.371C83.5579 126.661 82.5428 126.412 81.3316 126.21C78.9012 123.561 74.755 123.051 80.2622 119.328Z" fill="#FFD166" fill-opacity="0.976471"/>
<path d="M41.7891 152.753C42.4318 150.758 43.1674 149.457 44.8806 148.176C46.2818 147.129 48.3374 147.442 49.2613 148.939C48.0102 150.012 48.8509 150.197 48.2051 151.358C47.3721 152.856 44.5554 153.239 45.8494 155.424C42.855 155.647 42.9589 155.364 41.7891 152.753Z" fill="#FFD166" fill-opacity="0.976471"/>
<path d="M49.2613 148.939C49.7379 149.448 49.9229 149.583 50.0253 150.296C49.6797 151.958 47.7544 153.896 46.6995 155.215L45.8494 155.424C44.5554 153.239 47.3721 152.856 48.2051 151.358C48.8509 150.197 48.0102 150.012 49.2613 148.939Z" fill="#FFD166" fill-opacity="0.941176"/>
<path d="M55.4805 126.762C55.7171 126.601 55.8916 126.354 56.0841 126.128C57.4 125.765 58.6984 125.119 59.9381 124.533C60.4801 124.618 60.283 124.547 60.7275 124.982C59.67 126.91 57.5009 128.046 55.4805 126.762Z" fill="#FFD166" fill-opacity="0.92549"/>
<path d="M84.815 121.061C87.5861 124.335 85.5196 123.813 84.7701 126.371C84.185 125.234 84.7352 122.677 84.815 121.061Z" fill="#FFD166" fill-opacity="0.937255"/>
<path d="M59.0284 97.5827L58.8792 97.2608C58.3475 97.3412 58.1508 97.6891 57.6863 98.1254L57.5283 98.0296C58.1932 96.8497 60.6772 93.3227 62.051 93.2734L62.2663 93.9865C61.8246 94.8794 59.8754 96.9963 59.0284 97.5827Z" fill="#FFD166" fill-opacity="0.941176"/>
<path d="M76.3306 78.3743C76.2609 78.0757 76.331 78.1981 76.0889 78.0204L75.2273 78.8048L75.041 78.6062C75.3442 77.4893 78.3569 74.3542 79.2987 73.8376C79.3993 74.2822 79.4769 74.5122 79.6366 74.9394C79.3048 75.6201 76.9915 77.796 76.3306 78.3743Z" fill="#FFD166" fill-opacity="0.945098"/>
</svg>
