<svg width="200" height="200" viewBox="0 0 200 200" fill="none" xmlns="http://www.w3.org/2000/svg">
<path d="M119.842 32.6935C123.82 32.3536 129.148 32.8327 132.989 33.9654C134.392 34.3792 143.265 36.5964 143.888 37.5048C141.02 40.1632 140.281 39.9271 137.97 43.4081C134.867 48.0814 134.505 50.8782 134.066 56.3999L133.993 56.3726C131.133 55.3429 125.993 54.0204 123.013 53.8773C124.745 56.9402 126.584 59.9423 128.524 62.878C130.045 65.1347 131.697 67.2745 133.219 69.5593C141.734 71.7011 143.574 71.6454 147.54 79.7374C149.744 80.9527 164.258 85.1527 166.084 83.8737C166.441 81.8597 160.66 76.5462 160.989 74.3376C162.523 73.521 164.424 72.9173 165.851 72.039C170.986 68.8771 173.063 64.1577 174.665 58.779C180.63 65.2554 187.604 75.1708 188.171 84.1296C189.907 111.587 156.17 106.887 140.2 99.7597C139.233 101.878 137.205 104.502 135.792 106.465C133.681 109.374 131.609 112.312 129.578 115.278C126.987 119.124 123.557 124.376 120.582 127.883C116.573 132.608 109.803 132.088 104.08 132.059L93.7899 132.051C92.112 132.054 86.0948 131.831 84.8842 132.307C82.8415 133.108 79.0171 136.366 76.9014 137.689C75.6053 138.5 73.5243 139.814 72.3458 140.704C70.1292 142.692 66.1604 145.052 63.6467 146.761L48.1745 157.415C43.7194 160.438 39.1635 164.161 34.543 166.904C24.6542 172.774 12.4818 163.431 16.531 152.328C18.4077 147.182 22.011 145.317 26.3827 142.457C28.2866 141.193 30.2141 139.624 32.1297 138.338C33.5417 137.282 35.2991 136.654 36.0506 134.935C43.4479 118.015 51.1397 101.224 58.6335 84.3423C59.6831 81.9782 61.096 78.4259 62.6358 76.4894C64.6485 73.9712 67.5864 72.3646 70.7924 72.029C72.6247 71.8312 75.8821 72.1226 77.4835 73.1245C82.0206 75.9634 85.6956 80.1868 89.7245 83.688C95.4553 88.6679 100.783 94.1294 106.675 98.9318C108.513 95.8165 111.515 92.6685 113.379 89.43C114.474 87.5298 116.384 85.7212 117.361 83.6859C117.786 82.8017 115.619 81.6388 115.236 80.9554C109.017 72.8101 102.89 64.0579 101.707 53.5894C100.403 41.5991 108.164 33.7472 119.842 32.6935ZM76.3624 108.078C77.3794 107.816 77.6715 107.902 78.1893 107.142C78.1497 106.164 76.9212 105.515 76.0807 105.168C75.7143 105.977 74.7393 107.829 74.8629 108.575C75.4838 108.764 75.8467 108.463 76.3624 108.078Z" fill="#FFD166"/>
<path d="M33.8505 13.2618C48.96 11.9608 62.2645 23.1525 63.5696 38.2619C64.8747 53.3711 53.6864 66.6785 38.5776 67.9877C23.463 69.2972 10.1493 58.1039 8.84374 42.9888C7.53817 27.8738 18.7352 14.5633 33.8505 13.2618ZM37.2085 61.1816C48.4198 60.6244 57.0786 51.1213 56.5934 39.9066C56.1081 28.692 46.661 19.9722 35.4434 20.3855C24.1235 20.8023 15.3068 30.3549 15.7964 41.6719C16.2861 52.9888 25.895 61.7439 37.2085 61.1816Z" fill="#FFD166" fill-opacity="0.988235"/>
<path d="M35.8451 28.9274C36.7762 28.9225 38.8678 28.7973 39.3113 29.6854C40.8736 32.8145 40.3648 38.2803 40.0775 41.6698C39.9059 43.6969 35.8391 46.1389 34.2129 47.2364C34.0137 47.0201 33.9025 46.8707 33.7887 46.6002C33.0508 46.5838 31.5027 47.9317 31.2549 47.8467C29.3742 47.2016 29.7654 48.2979 28.9982 48.6703C28.4049 48.1762 27.6586 46.4723 27.251 45.6686C28.1324 42.5557 30.9436 40.8885 33.5162 38.7573C33.2336 36.1328 33.3646 32.9018 33.7895 30.3043C34.5859 29.8932 35.1361 29.4575 35.8451 28.9274Z" fill="#FFD166"/>
<path d="M28.998 48.6701C29.7652 48.2977 29.374 47.2014 31.2547 47.8465C31.5025 47.9314 33.0506 46.5836 33.7885 46.6C33.9023 46.8705 34.0135 47.0199 34.2127 47.2361C33.1234 48.5604 30.6121 49.8287 28.998 48.6701Z" fill="#FFD166" fill-opacity="0.937255"/>
<path d="M88.9771 138.737L89.234 138.715C96.6293 138.143 100.869 140.111 106.316 144.797C108.493 144.873 110.969 144.618 113.171 144.775C117.694 145.098 122.436 147.185 125.729 150.287C127.176 151.65 129.324 154.152 129.181 156.176C128.87 160.58 126.767 165.712 125.491 169.955C124.57 172.747 123.931 175.662 122.863 178.402C121.631 181.563 121.13 181.458 118.15 181.353C117.174 180.616 116.346 180.057 115.564 179.107C115.477 179.011 115.388 178.917 115.298 178.825C111.376 174.821 107.657 173.506 102.115 174.429C100.302 174.73 99.2513 175.123 97.3857 175.116C95.1412 173.121 93.9322 171.091 91.106 169.368C86.9906 166.858 82.4406 167.347 77.9195 168.491C77.3713 168.307 76.2175 167.935 75.7572 167.66C75.2246 167.348 74.8439 166.83 74.7047 166.229C74.2521 164.196 77.3857 155.445 78.0109 153.201C79.2 148.932 80.2492 143.691 82.6941 140.014C85.0539 139.275 86.5492 139.082 88.9771 138.737ZM87.5062 145.781C85.7216 151.002 84.9023 155.007 82.7914 160.364C86.4877 160.321 92.5945 160.881 95.5992 163.329C96.1304 163.716 96.5404 164.12 97.1824 164.081C97.6125 163.709 101.233 151.656 101.751 149.852C97.2476 146.321 95.3582 145.187 89.4591 145.393L87.5062 145.781ZM103.916 166.996C107.876 166.78 114.6 168.046 117.502 170.923L117.867 170.839C119.445 166.612 121.371 160.919 122.278 156.579C118.492 153.342 116.885 152.311 111.742 152.323C110.801 152.325 109.135 152.321 108.255 152.062C106.983 156.162 105.877 160.325 104.558 164.415C104.278 165.284 104.07 166.095 103.916 166.996Z" fill="#FFD166"/>
<path d="M152.431 38.9329C161.491 37.9594 169.615 44.5418 170.541 53.6071C171.467 62.6725 164.843 70.7618 155.773 71.6411C146.769 72.5139 138.752 65.9485 137.833 56.9495C136.913 47.9502 143.437 39.8991 152.431 38.9329Z" fill="#FFD166"/>
<path d="M127.043 143.231C136.269 142.864 147.64 143.151 156.995 143.149L170.41 143.15C173.706 143.151 179.264 142.769 182.131 144.192C183.311 146.7 182.881 147.624 181.717 149.939C177.585 150.476 173.951 150.347 169.815 150.35L155.066 150.353L143.872 150.35C140.742 150.352 137.082 150.541 134.09 149.88C132.26 147.964 131.117 146.539 128.84 144.869C128.171 144.378 126.919 143.934 126.688 143.496L127.043 143.231Z" fill="#FFD166"/>
<path d="M135.391 129.187C137.53 129.049 140.53 129.13 142.718 129.132L155.859 129.152C163.229 129.155 170.403 129.09 177.958 129.227C182.298 129.097 184.045 131.3 182.042 135.318C181.622 136.162 179.204 136.183 178.377 136.251C163.849 136.579 149.004 136.182 134.464 136.169C133.068 136.168 131.869 135.585 130.67 134.95C130.514 133.234 130.447 132.496 130.836 130.846L132.646 129.393C133.395 129.281 134.602 129.239 135.391 129.187Z" fill="#FFD166"/>
<path d="M136.239 157.305C138.464 157.225 140.725 157.201 142.955 157.215C155.106 157.287 167.281 157.045 179.425 157.324C180.313 157.344 181.386 157.671 182.235 157.937C182.646 159.981 183.323 163.055 180.84 164.053C177.936 164.42 173.343 164.316 170.312 164.317L153.874 164.309L142.056 164.283C140.098 164.275 136.444 164.35 134.626 164.016L134.422 163.702C135.321 161.607 135.838 158.023 136.239 157.305Z" fill="#FFD166"/>
</svg>
