<svg width="225" height="225" viewBox="0 0 225 225" fill="none" xmlns="http://www.w3.org/2000/svg">
<path d="M185.277 87.9574L185.429 87.9433C188.46 87.695 191.176 88.5155 193.551 90.568C200.297 96.3956 194.9 105.255 192.896 111.975C192.048 114.821 190.74 117.769 189.667 120.467C185.195 131.712 184.205 147.017 169.065 147.289C170.661 151.321 172.798 155.166 173.725 159.345C173.638 159.626 173.545 159.906 173.448 160.184C172.559 162.712 170.151 164.31 167.828 163.191C163.877 161.288 160.956 151.208 159.322 147.418C137.998 147.059 115.782 147.372 94.4099 147.37L76.611 147.378C73.659 147.38 69.0335 147.514 66.2619 147.233C64.8952 151.165 63.3863 154.973 61.6938 158.785C60.3277 161.861 57.7369 164.613 54.1481 162.958C52.6687 162.275 52.2273 160.827 51.7362 159.416L51.7601 159.325C52.4749 156.676 55.2703 149.724 56.5946 147.311C52.9076 147.438 50.0021 146.399 46.9501 144.39C43.193 141.204 42.547 138.61 40.8019 134.122C38.1542 126.846 35.5953 119.743 32.9023 112.476C30.9479 107.201 27.7845 100.447 29.1762 94.7937C30.2599 90.3924 33.2192 89.7488 36.5704 87.853C40.3087 91.1595 45.1708 94.0229 48.6328 97.5485C50.6958 99.649 52.6226 106.094 53.7194 109.134L59.9597 126.676C63.9624 126.947 69.7149 126.791 73.8457 126.788L98.2897 126.767L165.699 126.758C168.05 119.582 170.663 112.327 173.376 105.278C176.012 98.4318 176.65 89.4348 185.277 87.9574Z" fill="#FFD166"/>
<path d="M78.6504 70.5687L134.992 70.6084L152.468 70.5779C157.314 70.5674 163.851 70.1037 168.444 71.6086C170.291 72.214 172.808 74.4893 173.4 76.6483C174.589 80.9833 174.252 87.2927 173.706 91.8299C172.441 96.2145 169.929 102.595 168.224 106.923C167.031 109.948 165.556 114.849 164.264 117.657C163.824 117.129 163.868 116.641 163.728 115.877C161.933 109.593 158.436 108.884 153.648 105.275C149.781 102.36 145.958 99.5548 141.969 96.7511C135.009 91.8591 124.955 91.9903 117.495 95.6854C114.486 97.2022 109.074 100.496 105.936 100.999C103.727 101.352 95.0846 101.573 93.1418 100.824C91.5677 100.217 85.9994 95.3494 84.242 93.9867C81.3398 91.7367 78.5482 89.7453 75.5215 87.6078C79.2957 81.6152 79.6616 77.3644 78.6504 70.5687Z" fill="#FFD166"/>
<path d="M126.772 109.108L126.665 109.141C125.083 109.653 113.612 115.332 113.255 115.907C108.213 124.04 103.495 121.961 95.2458 122.238C83.5335 123.05 78.5207 115.869 69.8597 109.057L52.304 95.0629L41.887 86.7801C38.9209 84.4277 31.6851 80.4331 34.2743 76.1324C38.6704 68.8309 43.5301 75.9489 47.8703 78.8944C53.7419 83.2331 59.3748 88.6265 65.3324 92.7716C65.8965 92.5662 66.1373 92.2573 66.5686 91.838C71.7078 90.9861 73.7785 91.2452 78.3154 94.4954C82.5454 97.5256 87.7358 102.737 92.3281 105.279C93.0004 105.652 97.7428 105.516 98.832 105.513C100.977 105.508 103.656 105.637 105.837 105.303C108.469 104.899 110.715 103.529 113.117 102.504C116.465 101.076 119.694 99.2652 123.016 97.8517C124.778 97.1022 126.995 97.0559 128.859 97.0203C134.727 96.7843 139.002 99.6163 143.567 102.952C146.838 105.341 150.25 107.791 153.536 110.21C156.188 112.161 158.979 112.877 159.65 116.625C159.942 118.231 159.575 119.887 158.632 121.219C157.209 123.204 154.073 124.13 151.924 123.259C150.661 122.746 147.431 120.74 146.524 119.826C143.944 117.226 135.163 112.572 133.247 110.173C131.221 108.669 129.096 108.823 126.772 109.108Z" fill="#FFD166"/>
<path d="M126.773 109.108C126.412 107.022 126.694 105.106 129.18 104.751C130.436 104.564 131.715 104.9 132.717 105.681C134.114 106.786 134.584 108.834 133.247 110.173C131.221 108.669 129.096 108.823 126.773 109.108Z" fill="#FFD166"/>
<path d="M59.1022 62.232C64.577 61.9222 70.1874 63.8918 73.0208 69.0064C74.9043 72.4064 75.496 76.3857 74.3669 80.1639C72.8411 85.2686 70.4397 87.1503 65.8558 89.6332C65.3418 89.2981 64.7901 88.8334 64.3027 88.4476C62.2151 86.8708 47.4572 75.7366 47.1197 74.1199C46.7464 72.3306 48.0342 69.7559 49.0561 68.2881C51.3912 64.9342 55.1764 62.9516 59.1022 62.232Z" fill="#FFD166"/>
<path d="M128.394 112.981C131.517 113.017 136.889 118.141 139.634 119.829C140.628 120.441 142.376 121.908 143.177 122.755C139.352 122.119 132.341 122.464 128.211 122.547C123.37 122.661 118.272 122.611 113.423 122.592C116.884 118.015 117.534 117.971 122.8 115.548C124.677 114.684 126.283 113.737 128.394 112.981Z" fill="#FFD166"/>
<path d="M56.5625 103.83C56.5983 103.845 56.8673 103.946 56.8927 103.969C59.5385 106.386 79.3424 121.36 79.6687 122.555C74.5972 122.146 68.4317 122.983 62.7471 122.455C60.803 116.167 58.5102 110.25 56.5625 103.83Z" fill="#FFD166"/>
</svg>
