<svg width="225" height="225" viewBox="0 0 225 225" fill="none" xmlns="http://www.w3.org/2000/svg">
<path d="M116.826 24.8147C119.199 25.0423 123.919 24.8822 126.574 24.8758L144.969 24.8745C144.993 25.6532 145.027 26.4314 145.072 27.2091C145.499 33.6822 148.475 42.3416 151.916 47.8823C152.691 49.1299 153.432 50.8721 154.557 51.7791C154.886 52.0443 155.051 52.2667 155.314 52.5877L155.412 52.7085C155.476 53.2016 155.583 53.6929 155.49 54.1726C156.27 55.7089 157.258 56.9906 159.187 56.5448C161.73 59.3616 169.751 63.6331 173.472 64.9796C176.164 65.9534 180.383 66.8952 183.276 67.59C184.677 67.9261 187.421 67.7449 188.482 68.5429C189.325 70.5655 188.877 93.6601 188.975 97.7931C187.334 97.426 182.736 97.3851 180.298 96.9439C165.486 94.2641 158.516 91.8236 146.041 83.5292C145.784 88.0017 146.034 95.1512 146.039 99.8291L146.027 133.115C146.002 141.675 146.431 151.227 144.211 159.429C141.47 169.551 136.127 178.346 128.598 185.578C127.145 186.974 125.849 187.807 124.382 189.036C120.693 192.128 116.92 194.085 112.494 195.901C111.374 196.36 110.145 196.657 109.014 197.082C108.212 197.383 108.062 197.942 107.101 198.197C102.222 199.493 97.1701 200.357 92.1223 200.343C87.8258 200.331 81.9624 200.114 77.8485 198.904C69.3103 196.393 60.4861 192.092 54.0371 185.912C48.2614 180.378 45.9068 177.133 42.2945 170.231C37.395 160.869 36.5036 154.799 36.4906 144.46C36.4445 132.68 40.3108 121.217 47.4825 111.871C56.2302 100.605 69.9653 92.8302 84.0518 90.9001C89.1721 90.1987 94.9975 90.888 100.165 90.8854C100.76 101.457 99.6967 112.948 100.236 123.254C89.8655 121.527 82.0428 121.375 74.0779 129.319C54.94 148.406 74.2065 178.835 99.7198 170.737C107.03 168.417 113.359 161.778 115.684 154.548C116.318 152.577 116.278 145.851 116.339 143.45C116.501 134.328 116.557 125.204 116.506 116.08C116.425 85.6579 116.531 55.2356 116.826 24.8147Z" fill="#FFD166"/>
<path d="M155.412 52.7087C156.791 54.0036 157.971 55.0796 159.187 56.5449C157.258 56.9908 156.27 55.7091 155.49 54.1728C155.583 53.6931 155.476 53.2018 155.412 52.7087Z" fill="#FFD166" fill-opacity="0.937255"/>
</svg>
