<svg width="225" height="225" viewBox="0 0 225 225" fill="none" xmlns="http://www.w3.org/2000/svg">
<g clip-path="url(#clip0_103_66)">
<path d="M108.984 66.9117C97.6524 63.767 92.5818 50.8563 95.1851 40.0464C97.588 30.0684 106.247 25.5943 113.935 20.1941C117.671 17.57 120.866 15.1334 124.768 12.6184C126.838 14.8155 127.538 18.7779 128.287 21.7308C129.591 22.6542 135.956 18.8658 138 18.445C140.285 17.9748 140.962 17.8428 143.445 17.8329L143.746 18.2449C143.33 20.1986 144.313 21.7038 143.162 23.6625C142.891 23.8275 142.618 23.9899 142.343 24.1496L143.356 24.2432L143.343 24.5084C142.343 24.9009 142.105 24.6609 141.222 25.2593C132.848 25.8453 130.758 30.8036 125.283 35.1133C124.473 32.2395 123.602 29.3809 122.758 26.5163C122.439 25.4348 122.26 24.1769 121.888 23.2033L121.549 23.073C113.905 29.9564 101.686 33.6587 101.516 44.7971C101.437 49.9723 102.033 52.6754 105.531 56.7149C106.617 57.9695 108.437 59.0356 109.163 60.0751C110.338 59.5399 111.529 55.4055 113.111 53.8233C114.874 52.06 115.855 50.9446 118.129 49.5267C116.494 47.3053 116.623 45.7505 116.116 43.0525C118.177 43.0879 121.021 43.0525 123.016 43.2012C124.444 48.4813 124.374 46.7536 127.627 49.986C137.164 51.7835 146.671 46.7263 151.814 57.6768C154.851 59.4797 158.18 61.181 159.097 64.9078C159.916 68.1795 159.39 71.6431 157.636 74.5241C155.262 78.3683 151.442 76.7873 152.105 81.5723C152.292 82.9254 153.558 83.8926 154.976 83.4756C158.591 82.0531 160.81 77.5184 162.799 74.4182C166.12 68.3167 167.357 63.3754 167.047 56.3897C166.959 54.4146 167.121 52.5084 166.923 50.4094C169.316 50.452 171.708 50.4553 174.101 50.4188C174.072 60.7589 174.358 67.7645 169.175 77.5434C168.42 78.9677 164.306 84.7355 164.048 85.5621C165.166 86.3263 167.385 86.9655 168.724 87.5741C170.37 88.3225 171.74 89.0821 173.288 90.0331C184.64 96.9666 192.538 108.368 195.039 121.432C196.116 127.244 196.653 145.868 195.61 151.85C194.987 155.429 193.735 159.066 191.663 162.074C190.527 163.722 189.213 165.164 188.177 166.892C191.964 166.601 199.506 166.575 203.296 166.816C203.266 162.19 203.15 157.532 203.296 152.91C203.462 147.681 205.635 145.257 210.774 144.887C210.79 142.418 210.763 139.82 210.909 137.364C208.131 137.087 206.054 136.34 204.169 134.081C203.208 130.329 203.146 126.615 203.278 122.704C203.627 112.316 202.575 101.81 203.846 91.4952C204.622 85.1921 216.363 86.8233 220.711 87.4509C222.313 87.6818 224.336 91.0065 225 92.5004V131.106L224.914 131.241C222.478 135.111 223.255 136.565 217.564 137.303C217.592 139.839 217.589 142.374 217.556 144.91C221.807 145.156 223.464 146.83 225 150.773V181.913L224.919 182.05C223.708 184.143 223.293 187.09 220.243 187.678C216.192 188.46 210.494 188.154 206.321 188.151L184.997 188.156C185.141 191.571 185.289 199.771 184.95 202.971C190.272 202.984 194.759 202.783 198.811 206.881C202.489 210.603 205.149 217.852 200.941 222.143C200.282 222.816 199.316 223.508 198.555 224.077C195.237 224.358 190.966 224.281 187.591 224.297L169.214 224.312L157.751 224.295C151.487 224.273 150.855 225.231 146.083 220.992C144.9 216.824 145.164 214.006 147.227 210.229C151.142 203.063 156.527 203.012 163.647 202.932C163.403 200.645 163.433 190.484 163.686 188.25C155.592 187.69 145.93 188.617 137.947 188.027C138.087 199.718 137.909 211.428 138.012 223.121C138.016 223.657 137.72 224.114 137.373 224.495C135.831 225.314 133.892 224.178 131.626 224.512C131.315 224.352 131.009 224.266 130.995 223.853C130.799 217.937 130.838 209.977 130.902 204.263C131.124 184.445 130.546 164.29 130.942 144.552C121.765 144.284 111.762 144.505 102.518 144.506L49.6219 144.503L31.2486 144.518C29.1575 144.519 23.4367 144.642 21.6775 144.28C21.7222 153.97 21.8771 164.318 21.659 173.983C30.1788 173.845 42.5973 173.619 50.9607 174.031C50.9357 168.824 49.6266 159.966 57.0032 159.462C63.3215 159.031 69.8937 159.246 76.2519 159.253L113.608 159.248C123.78 159.296 123.248 163.89 123.238 172.235L123.213 183.399C123.19 194.13 123.213 204.884 123.193 215.612C123.188 217.863 123.126 220.491 121.398 222.04C120.595 222.761 119.044 224.031 117.973 224.092C114.066 224.319 109.893 224.284 105.984 224.297L80.9528 224.295L42.9251 224.358C34.7779 224.415 26.4234 224.725 18.274 224.411C13.8937 224.242 9.48656 224.631 5.18394 224.02C3.23119 223.743 1.6264 221.616 0.772451 219.97C0.536865 219.517 0.308736 218.78 0 218.395V179.576C3.83645 172.231 7.43959 173.891 14.7763 174.019C14.8654 164.233 14.7202 154.404 14.9235 144.627L11.3135 144.006C10.1333 143 9.215 142.214 8.13806 141.102C6.92736 136.32 6.67129 129.56 9.02072 125.059C13.3203 122.297 16.7959 123.009 21.9334 123.091C22.0408 113.795 21.7753 104.384 21.935 95.0112C22.0643 87.4254 21.1911 76.5162 23.093 69.439C24.1985 65.3249 28.0527 62.7321 30.0819 59.8803C29.2915 57.5828 28.8189 55.1434 28.0389 52.8897C25.96 46.8836 24.2624 40.6511 22.4609 34.5697C21.7761 31.4727 21.6468 28.8298 23.3833 25.9791C26.4157 21.0014 32.625 20.8765 37.7202 21.8369C38.7936 22.0392 39.9931 22.5746 40.8812 23.1503C43.8135 25.0512 44.621 28.7986 45.593 31.8462C47.8345 38.8735 49.8625 45.892 51.888 52.9753C54.5634 60.9879 56.651 69.1611 59.1906 77.1725L62.6957 88.5225C64.5379 94.4529 66.9105 98.7521 63.0879 104.527C62.9055 104.04 62.929 103.74 62.9499 103.224C62.2624 103.495 61.0374 104.731 60.4107 105.299L60.2697 105.77L60.2033 105.706L60.3152 105.895C60.8774 105.865 61.02 105.922 61.4775 106.247C57.8549 109.01 49.9838 108.927 46.2168 106.511C43.5404 104.795 42.8603 101.643 41.8368 98.8184C39.2709 91.7369 37.3917 84.4578 35.4021 77.2039C34.481 73.9206 32.9985 70.9769 32.244 67.5564C31.3545 69.2017 29.4405 71.497 29.2375 73.2796C28.7191 77.8271 29.063 83.2273 29.0083 87.8541C28.8697 99.5455 29.2164 111.43 28.9635 123.09C40.5642 122.865 54.165 122.835 65.7262 123.126C66.2291 119.741 68.551 115.488 71.0998 113.197C77.0359 107.862 84.1135 108.509 91.5152 108.53L104.212 108.542C105.475 108.546 110.353 108.807 110.838 108.286C114.101 104.781 118.84 98.7481 122.48 95.6476C119.486 94.49 118.539 93.9612 116.068 91.9427C107.99 85.3437 109.029 76.3791 108.984 66.9117ZM114.937 115.176C111.664 115.575 104.905 115.429 101.285 115.423C97.4292 115.416 90.6341 115.651 87.0067 115.288C87.0451 117.881 87.0343 120.474 86.9744 123.067L120.191 123.051C124.911 123.054 132.155 123.286 136.697 122.995C140.688 117.975 148.418 109.801 155.103 109.037C155.494 108.994 155.886 108.964 156.279 108.948C157.355 108.805 158.458 108.672 159.528 108.508C159.493 110.334 159.335 113.702 159.547 115.397C157.949 115.634 153.372 116.185 152.285 117.348C152.112 117.947 152.336 118.496 152.649 119.01C156.391 125.17 159.267 130.557 159.194 138.026C166.127 139.564 172.962 141.038 179.968 142.187C182.915 142.67 186.017 143.508 188.892 144.314C188.552 132.819 190.627 122.662 184.558 112.503C182.186 108.532 180.716 104.799 176.955 101.724C169.654 94.5146 160.473 90.4192 150.103 90.4139C141.684 90.6437 130.588 97.232 124.482 103.191C122.665 104.964 115.777 113.165 114.937 115.176ZM14.2053 137.673C24.9293 137.571 35.6539 137.543 46.3781 137.59L100.257 137.589L125.659 137.584C128.311 137.583 135.877 137.424 138.023 137.772C138.014 135.209 138.026 132.646 138.058 130.083L54.8906 130.086L28.5464 130.083C24.1901 130.085 18.4498 130.251 14.1815 130.03C14.2928 132.686 14.2581 135.018 14.2053 137.673ZM138.044 147.418C137.897 153.8 138.184 160.614 137.973 166.853C149.037 166.249 161.448 167.252 172.101 166.543C177.805 165.893 182.043 162.992 185.621 158.585C187.465 156.313 188.037 154.068 188.833 151.301C183.923 149.896 177.72 149.014 172.596 148.041C168.002 147.169 158.661 144.365 154.405 144.928C149.288 145.185 141.872 147.501 138.044 147.418ZM129.661 90.35C131.565 89.4104 133.311 88.3882 135.231 87.4931C137.1 86.6219 139.284 85.9631 141.086 85.0337C142.379 84.5784 143.751 84.066 145.045 83.6419C145.266 79.9118 145.231 75.8232 145.266 72.0599C146.626 72.1105 150.719 72.4767 151.318 71.5033C154.079 67.0181 152.238 64.7582 147.869 64.7529C146.935 64.7584 146.001 64.7755 145.068 64.8045C145.391 59.0875 145.772 57.4274 139.247 57.3424C135.241 57.2901 131.014 57.5988 127.061 57.0097C125.678 56.7854 123.654 55.4117 122.567 55.0911C114.085 58.8486 116.329 67.8581 116.012 75.2253C115.966 76.2888 116.063 77.5623 116.21 78.6205C116.359 79.718 116.668 80.7879 117.129 81.7951C118.747 85.4254 121.766 88.2465 125.498 89.6156C126.555 89.996 128.501 90.2021 129.661 90.35ZM49.32 99.9125L50.6971 101.102C52.0515 101.133 53.8759 101.228 55.1933 101.188C56.0793 101.124 56.7152 101.157 57.4554 100.672C59.3769 98.4449 55.9433 90.6837 55.1184 87.9745L47.7582 63.8654C45.764 57.4345 44.3241 50.8044 42.2998 44.3911C41.6503 42.3335 37.7809 29.6404 36.9949 29.006C35.8372 28.072 33.3536 28.1599 31.9548 28.4108C28.9452 28.8817 28.682 29.2075 29.1834 32.2628C29.7237 35.5552 31.1276 38.3965 32.0418 41.5493L39.8848 67.984L46.8116 91.0939C47.6299 93.7981 48.3653 97.3676 49.32 99.9125ZM72.2483 210.035C72.341 212.167 72.3746 215.239 72.2292 217.402C80.8091 217.329 89.3892 217.31 97.9693 217.347C103.729 217.35 110.426 217.199 116.098 217.453C116.027 214.988 116.05 212.52 116.169 210.056L72.2483 210.035ZM157.466 210.139C153.429 211.608 153.031 213.587 151.865 217.402C164.522 217.039 178.438 217.345 191.217 217.352C192.584 217.366 194.836 217.329 196.116 217.506C196 215.162 195.687 214.636 194.82 212.428C193.914 211.758 192.014 210.311 190.921 210.251C180.704 209.694 170.341 210.175 160.093 210.045C159.222 210.034 158.327 210.048 157.466 210.139ZM170.222 202.926L177.912 203.02C177.587 200.513 177.695 190.887 177.858 188.177C175.636 188.143 172.351 188.23 170.255 188.099C170.314 192.48 170.468 198.604 170.222 202.926ZM218.007 130.313C217.857 118.642 217.776 105.459 218.005 93.7953C215.578 93.7992 212.527 93.8759 210.151 93.757C210.558 103.949 210.069 114.405 210.237 124.628C210.267 126.441 210.22 128.461 210.127 130.276C212.754 130.208 215.382 130.221 218.007 130.313ZM210.219 151.831C210.224 154.592 210.052 166.187 210.426 168.148L210.452 168.289C210.685 169.511 216.736 175.056 217.929 175.661C217.983 167.842 217.803 159.678 217.995 151.907C215.679 151.905 212.425 151.996 210.219 151.831ZM116.16 180.921C109.213 181.251 100.162 181.004 93.0709 181.007C86.8217 181.009 78.3512 181.261 72.2621 180.995C72.3531 183.099 72.4019 186.204 72.2522 188.339L102.129 188.297C106.077 188.299 112.333 188.542 116.048 188.292C116.061 185.943 116.014 183.239 116.16 180.921ZM79.6256 116.047L77.2563 117.121C76.2434 118.837 75.7575 119.391 74.0635 120.369C73.7341 121.044 73.1762 122.013 73.1525 122.721C73.4091 122.977 73.3186 122.98 73.591 123.047C75.6468 123.046 77.9199 122.997 79.9556 123.103C79.9721 121.875 80.133 117.051 79.8721 116.161L79.6256 116.047ZM116.124 174.067C115.987 171.723 116.059 168.659 116.154 166.269L76.462 166.299L65.4866 166.312C63.3579 166.316 60.0258 166.398 58.0003 166.101C57.9968 168.643 58.0548 171.503 57.9729 174.019C69.6217 173.808 81.7326 173.935 93.408 173.956C99.9174 173.968 109.829 173.646 116.124 174.067ZM146.205 122.951C145.449 123.741 144.68 124.564 143.916 125.342C145.551 130.346 145.083 134.071 145.053 139.312C146.33 139.053 148.4 138.802 149.469 138.537C150.46 138.353 151.479 138.177 152.465 137.975C152.133 136.502 152.038 134.426 151.657 133.138C150.97 130.82 148.457 123.586 146.205 122.951ZM72.301 203.011L99.2885 202.964C104.569 202.964 110.919 202.805 116.11 203.048C116.077 200.429 116.041 197.902 116.122 195.283C106.944 195.36 97.7665 195.382 88.5887 195.351C83.4152 195.348 77.4079 195.48 72.3127 195.279C72.3542 197.856 72.3505 200.434 72.301 203.011ZM7.14094 180.804C7.07115 183.322 7.04566 185.841 7.06449 188.36C26.3916 188.054 46.3584 188.753 65.5429 188.328C65.4787 185.977 65.4822 183.342 65.6829 180.997L25.2787 181.003L14.2367 181.012C12.1053 181.016 9.17262 181.152 7.14094 180.804ZM7.0663 209.995C7.0643 212.365 7.12224 215.122 7.0269 217.456C12.2587 217.171 18.2456 217.246 23.5072 217.336C37.4445 217.576 51.7061 216.982 65.6132 217.417C65.4396 215.036 65.5273 212.379 65.74 210C48.7198 210.314 31.5648 209.824 14.5313 210.04C12.1478 210.07 9.43721 210.12 7.0663 209.995ZM65.5699 195.332L25.6819 195.349C20.3699 195.347 12.0844 195.605 7.07399 195.257C7.09458 197.843 7.09348 200.429 7.07067 203.015C26.3024 202.89 46.27 202.743 65.4794 203.019C65.4992 200.568 65.4634 197.754 65.5699 195.332ZM137.987 173.331C137.983 175.644 138.064 178.864 137.93 181.108C155.292 180.918 172.742 181.193 190.108 181.075C197.347 181.026 205.226 181.264 212.407 181.036C211.62 179.345 207.401 174.639 205.59 173.952C203.009 172.972 189.752 173.567 186.281 173.563L150.972 173.54C148.665 173.544 139.808 173.737 137.987 173.331Z" fill="#FFD166"/>
<path d="M178.174 1.03546C179.791 0.907337 182.393 4.3524 183.51 5.6155C180.809 8.69229 180.561 9.39667 182.688 12.774C187.557 14.9157 189.51 18.8757 188.115 24.2359C187.226 27.6467 185.023 28.5671 182.161 30.0863C179.944 34.1792 183.547 34.8733 186.654 36.5551C185.118 38.0745 184.747 39.7677 184.13 41.8384L184.051 42.0988C182.615 42.7604 179.664 40.6554 178.371 39.9171C173.647 37.2189 173.084 28.793 177.064 25.3554C179.167 23.5389 179.999 23.9904 181.947 21.2606C180.149 18.3365 180.458 19.6786 177.884 17.6997C175.918 16.1876 174.5 13.165 174.415 10.6558C174.263 6.13821 175.445 4.18565 178.174 1.03546Z" fill="#FFD166" fill-opacity="0.988235"/>
<path d="M157.228 0.74585C158.224 1.05376 159.589 3.33469 160.501 4.07572C161.089 4.55336 161.851 4.85867 162.141 5.46342C161.662 6.99265 158.912 7.04471 159.657 10.2353C159.904 13.0239 163.088 13.3354 164.478 15.024C169.301 20.8825 166.431 27.5821 160.15 30.1127C158.562 34.6566 161.638 34.3894 164.544 36.4995C163.397 38.092 162.752 40.2038 162.194 42.0832C160.519 42.8584 159.341 41.1258 157.779 40.5956C157.262 40.4205 156.278 39.76 155.865 39.4359C154.081 38.0257 152.949 35.9499 152.729 33.687C151.85 25.3738 156.6 25.9908 160.283 21.3781C160.012 20.9846 158.97 19.4506 158.67 19.3124C154.279 17.2902 152.416 13.6494 152.73 8.81781C152.969 5.13783 154.435 3.18119 157.228 0.74585Z" fill="#FFD166" fill-opacity="0.988235"/>
<path d="M200.01 0.980225C201.375 1.04122 204.123 4.11811 204.754 5.27066C205.144 8.53145 201.148 7.02388 204.266 12.7517C206.503 13.6398 207.279 14.4758 209.073 16.0535C210.161 19.256 210.939 22.0233 209.445 25.3704C208.205 28.1478 206.18 28.9552 203.683 30.1938C201.805 35.4497 206.054 34.3588 207.804 36.25C207.937 37.3064 205.968 40.9191 205.309 41.8732L204.78 42.243C204.328 42.2404 201.037 40.321 199.741 39.8078C195.829 34.9336 193.799 30.5265 199.183 25.2876C200.519 23.9875 203.088 23.2685 203.235 21.1808C202.814 19.5537 201.424 18.9609 200.203 17.9178C193.916 12.5453 195.285 6.65215 200.01 0.980225Z" fill="#FFD166" fill-opacity="0.988235"/>
<path d="M143.446 17.833C144.438 17.9108 144.292 17.7389 144.845 18.3082C145.379 20.3538 145.011 22.936 145.017 25.1484C143.767 25.2255 142.468 25.3444 141.223 25.2594C142.105 24.6611 142.343 24.901 143.343 24.5086L143.357 24.2434L142.343 24.1498C142.618 23.99 142.891 23.8276 143.163 23.6626C144.313 21.7039 143.33 20.1987 143.747 18.245L143.446 17.833Z" fill="#FFD166" fill-opacity="0.968627"/>
<path d="M61.4773 106.248C61.0198 105.923 60.8772 105.865 60.315 105.895L60.2031 105.706L60.2695 105.77L60.4105 105.299C61.0372 104.731 62.2622 103.495 62.9497 103.224C62.9288 103.74 62.9053 104.04 63.0877 104.527C62.6054 105.25 62.2083 105.745 61.4773 106.248Z" fill="#FFD166" fill-opacity="0.945098"/>
</g>
<defs>
<clipPath id="clip0_103_66">
<rect width="225" height="225" fill="white"/>
</clipPath>
</defs>
</svg>
