<svg width="234" height="262" viewBox="0 0 234 262" fill="none" xmlns="http://www.w3.org/2000/svg">
<path d="M104.65 144.286C100.204 142.478 96.3531 139.246 92.4446 136.535C91.3493 135.775 87.7242 133.955 87.1807 132.96C84.6595 128.347 92.4816 125.507 93.3703 121.859C93.5392 121.167 93.3118 120.059 92.9464 119.541C91.8114 117.933 90.5095 116.286 89.3356 114.696C86.5743 110.957 83.8378 107.199 81.1267 103.423L56.3979 68.5586C53.2396 64.1688 49.9645 60.1122 46.7026 55.9037C43.5727 51.8656 41.0955 46.3227 42.0032 41.1141C43.6241 31.8138 54.5761 29.3911 60.8386 35.9602C63.7789 39.4126 66.1914 43.4477 68.6344 47.2847C72.4856 53.3329 76.7111 59.2665 80.5753 65.2771C80.2083 65.3628 79.916 65.3249 79.5451 65.2749L79.2163 65.5116C79.1523 66.7067 79.7275 67.2965 80.8817 67.4828C81.4075 67.2259 81.4539 67.2188 81.847 66.7993C83.8636 69.9937 85.5286 73.3294 87.8439 76.3186C88.4042 77.0421 88.9892 77.8839 89.4938 78.6478L101.372 96.9734C104.658 102.087 106.631 103.08 109.489 109.611C110.28 109.501 111.687 109.31 112.407 109.077C116.17 107.859 118.722 105.713 122.769 107.122C124.193 113.008 125.294 118.979 126.853 124.833C127.101 125.764 127.289 126.568 127.382 127.529C130.608 127.706 133.708 127.31 137.134 127.432C155.81 128.097 163.704 145.471 176.072 156.333C179.762 159.573 185.077 161.759 187.566 165.205C186.001 168.285 185.485 169.114 183.362 171.779L183.003 170.698C182.038 171.535 179.192 174.722 178.536 175.786C179.076 176.283 179.115 176.006 179.574 176.292C175.79 179.572 168.584 174.145 166.443 170.785C166.704 174.731 168.301 177.337 169.664 180.96C171.062 184.675 168.708 186.091 166.496 188.581C162.132 193.49 156.532 196.624 151.226 200.318C146.513 203.6 143.187 205.926 137.565 207.691C134.446 203.917 132.218 194.084 131.191 193.187C130.832 193.432 130.694 193.89 130.7 194.295C130.893 205.7 126.519 213.479 115.29 217.032C112.937 217.776 109.018 219.574 106.44 218.377C105.801 217.776 105.535 216.682 105.789 215.901C107.927 209.326 109.792 204.502 109.991 197.318C110.148 191.609 108.986 185.942 106.595 180.756C104.176 175.5 101.793 171.559 100.614 165.706C99.1486 158.424 100.37 150.489 104.65 144.286ZM116.602 168.01C116.898 167.8 117.198 167.596 117.502 167.398C122.597 164.069 123.344 168.413 126.049 171.716C131.942 178.911 135.437 187.24 139.27 195.635C139.743 196.67 140.089 198.445 140.662 199.333C142.608 199.14 147.994 194.941 149.57 193.308C147.157 183.427 142.428 176.608 137.154 168.092C135.324 165.138 133.429 163.382 131.897 160.039L132.032 159.784C135.489 153.311 139.31 159.868 141.635 163.294C144.008 166.792 146.852 170.108 148.574 173.998C150.748 178.909 153.858 184.289 155.243 189.485C157.085 187.467 163.057 183.794 163.3 183.007C163.494 179.581 158.748 173.822 157.603 171.274C154.299 163.922 148.493 158.176 145.018 151.154C146.205 149.506 146.97 149.092 148.646 148.014C152.636 149.94 156.099 154.285 159.202 157.605C158.447 157.94 158.647 157.725 158.363 158.366C158.834 159.408 159.789 160.669 161.092 160.403C161.193 160.115 161.289 159.826 161.382 159.535C165.668 162.44 170.531 168.93 176.386 169.084C177.629 169.117 178.449 167.97 179.219 167.09C176.287 164.455 171.699 161.928 168.982 158.903C165.705 155.252 161.989 151.404 158.797 147.781C152.889 141.075 148.471 135.558 139.176 134.072C132.592 133.02 124.313 134.77 118.965 138.713C107.249 147.352 103.198 157.608 109.162 171.416C110.75 175.091 113.782 179.387 114.683 183.086C116.764 191.637 116.463 201.64 115.007 210.238C117.28 209.32 120.423 208.162 121.717 205.926C125.711 199.023 123.084 185.841 120.646 178.831C119.466 175.437 117.248 171.57 116.633 168.19L116.602 168.01ZM118.049 114.164C112.538 116.03 102.864 122.192 99.0386 126.504C97.596 125.733 96.9087 126.34 96.129 127.72C96.4754 127.787 96.5871 127.701 96.9105 127.562L97.2921 127.813C96.3486 128.628 95.4 129.438 94.4466 130.242C97.1454 132.23 99.4456 133.503 102.244 135.283C104.076 136.448 106.383 138.185 108.206 139.49C110.321 137.319 111.601 135.772 114.284 134.186C116.832 132.68 119.466 131.591 121.827 129.818C120.658 126.439 119.027 118.097 118.049 114.164ZM100.041 117.457C101.221 115.9 103.598 115.066 104.594 113.787C102.552 109.927 99.971 106.788 97.6644 103.111C91.8888 93.9038 85.6049 85.0344 79.5597 76.0565L62.9149 50.9248C61.015 48.0839 55.6865 38.2323 52.4857 38.3436C50.1838 39.5611 46.0818 41.732 48.1553 45.0933C54.9589 56.1208 63.1457 66.1469 70.29 76.9081C72.5217 80.2621 75.1681 83.4665 77.4537 86.7997C81.8113 92.5288 85.5521 98.597 89.975 104.27C93.2901 108.542 96.2014 113.652 100.041 117.457Z" fill="#74EBAF"/>
<path d="M159.202 157.605C160.07 158.255 160.613 158.79 161.382 159.535C161.289 159.826 161.193 160.115 161.092 160.403C159.789 160.669 158.834 159.408 158.363 158.366C158.647 157.725 158.447 157.94 159.202 157.605Z" fill="#74EBAF"/>
<path d="M97.292 127.813L96.9104 127.562C96.5871 127.701 96.4753 127.787 96.1289 127.721C96.9086 126.34 97.596 125.734 99.0386 126.504C98.627 126.857 97.7429 127.694 97.292 127.813Z" fill="#74EBAF"/>
<path d="M168.817 88.5403L169.213 88.4082C171.356 88.7734 172.203 93.0407 172.798 94.7283C174.391 99.323 178.41 102.616 182.988 103.891C185.288 104.531 187.926 105.472 187.508 108.192C187.443 108.614 187.311 109.446 186.964 109.727C184.16 111.999 180.085 111.881 177.349 114.413C175.282 116.276 173.654 118.444 172.744 121.092C172.199 122.662 172.019 125.596 171.002 126.826C170.407 127.256 169.798 127.23 169.061 127.29C168.321 127.156 167.286 127.075 166.514 126.993L166.41 126.765C165.504 124.748 164.875 123.443 164.397 121.191C163.549 117.41 160.258 114.145 156.833 112.526C154.673 111.603 146.655 110.343 150.072 106.36C152.344 103.712 157.571 103.174 160.68 100.782C164.991 97.4656 163.515 94.2102 165.774 90.0204C166.389 88.8801 167.684 88.743 168.817 88.5403ZM161.354 108.578C164.971 109.217 166.179 111.238 168.508 114.121L168.981 114.454C169.651 114.097 170.353 112.754 170.807 112.036C171.948 110.233 173.216 109.198 174.834 107.816C172.896 105.961 171.305 104.348 169.828 102.065C169.482 101.531 169.368 101.245 168.829 100.921C166.19 103.239 163.958 106.656 161.354 108.578Z" fill="#74EBAF"/>
<path d="M68.8847 152.02C69.697 151.978 69.8707 151.981 70.6767 152.129C71.9109 152.959 72.8028 157.507 73.5772 159.214C75.1524 162.684 77.2842 165.797 81.1717 166.915C83.0609 167.458 84.6525 167.64 86.4452 168.398L87.7443 170.661C87.5768 171.873 87.029 173.609 86.6618 174.83C69.0558 178.231 76.5751 186.493 68.8438 191.331C64.1843 188.103 65.1864 182.582 60.6263 178.404C58.143 175.556 52.5609 176.109 50.4855 173.153C47.0913 168.318 57.8352 167.14 59.6688 165.625C63.4825 162.472 65.0147 157.983 66.0586 153.493C66.9685 152.87 67.8104 152.274 68.8847 152.02ZM69.6244 177.179C70.9084 175.926 72.1225 174.597 73.3706 173.311C73.8302 172.838 74.9968 172.767 75.7061 172.518C75.6304 171.629 70.3307 166.514 69.2343 165.233L68.8492 165.105C67.4525 167.113 63.2204 170.338 63.1437 171.749C63.9074 172.929 67.9909 177.062 69.1305 177.632C69.3824 177.479 69.5179 177.444 69.6244 177.179Z" fill="#74EBAF"/>
<path d="M129.249 74.1387C130.523 74.1254 131.772 74.2872 133.039 74.4207C134.211 76.478 135.551 79.1354 133.336 81.076C132.533 81.7796 131.295 81.5826 130.263 81.5595C126.906 81.2826 126.807 81.3829 124.326 79.1654C124.707 75.9319 125.7 74.1366 129.249 74.1387Z" fill="#74EBAF"/>
<path d="M147.769 74.2638C149.392 74.1084 150.979 74.2261 152.607 74.2985L154.209 75.4413C154.674 76.4767 154.997 77.4257 155.369 78.4913C154.439 80.5733 154.719 80.8912 152.479 81.449C152.294 81.4689 152.108 81.4837 151.922 81.4933C149.853 81.6048 145.433 81.4654 145.268 78.4924C145.164 76.6193 146.598 75.5309 147.769 74.2638Z" fill="#74EBAF"/>
<path d="M139.028 62.3929C141.448 62.2669 141.821 62.8408 143.273 64.6218C143.514 66.9504 143.546 71.4544 141.631 73.0376C139.124 73.2234 139.062 72.9962 137.323 71.2355C136.577 67.6026 135.508 64.6609 139.028 62.3929Z" fill="#74EBAF"/>
<path d="M139 83.2026C139.747 83.1752 141.914 83.0497 142.335 83.5296C144.03 85.4642 143.766 90.3625 142.421 92.4001C142.04 92.9767 141.25 92.9353 140.704 92.9961C140.32 93.5027 140.293 93.6172 139.72 93.7961C135.812 91.6808 135.314 85.1553 139 83.2026Z" fill="#74EBAF"/>
<path d="M179.574 176.293C179.115 176.006 179.076 176.283 178.536 175.786C179.192 174.723 182.038 171.535 183.003 170.698L183.362 171.779C182.664 172.734 180.444 175.69 179.574 176.293Z" fill="#74EBAF"/>
<path d="M81.8474 66.7996C81.4543 67.2191 81.408 67.2262 80.8821 67.4831C79.7279 67.2968 79.1527 66.707 79.2167 65.5119L79.5456 65.2751C79.9164 65.3252 80.2087 65.3631 80.5757 65.2774C81.2263 65.8896 81.352 66.0535 81.8474 66.7996Z" fill="#74EBAF"/>
</svg>
