<svg width="225" height="225" viewBox="0 0 225 225" fill="none" xmlns="http://www.w3.org/2000/svg">
<g clip-path="url(#clip0_103_11)">
<path d="M92.2827 111.842C89.6166 112.089 74.4456 112.026 72.2019 111.6C70.4639 111.274 68.8111 110.595 67.346 109.605C61.8915 105.902 60.7333 98.2288 64.6117 92.9971C68.8526 87.2763 74.4537 87.921 80.6432 87.917L94.7388 87.9164L112.035 87.9252C117.201 87.9228 123.838 87.2451 128.215 90.3441C130.57 92.0009 132.962 96.2491 133.08 99.204C133.412 107.558 123.907 112.738 119.611 118.39L119.198 117.732C117.771 117.43 116.808 119.832 116.689 121.007C116.18 121.769 114.339 123.543 113.583 124.197C110.399 126.952 105.635 133.076 102.158 135.067C108.632 134.411 117.236 134.612 123.694 135.436C129.659 136.196 134.182 143.62 132.647 149.388C129.744 160.519 119.947 159.117 110.822 159.074C105.597 159.049 100.136 159.617 95.0436 158.263C94.8617 157.037 94.5951 155.598 94.8801 154.384C95.0311 153.741 95.2996 153.3 95.9172 153.017C100.172 151.063 120.624 153.894 124.122 151.663C125.222 150.961 126.531 148.863 126.775 147.571C127.033 146.198 126.417 145.145 125.66 144.064C125.101 143.265 124.443 142.34 123.501 141.974C121.374 141.15 118.572 141.424 116.316 141.426L102.393 141.471C99.9468 141.479 93.9177 142.035 92.4987 140.033C90.1837 136.766 97.9165 131.207 99.8626 129.259L113.943 115.063C117.489 111.522 124.136 105.549 126.608 101.123C127.599 99.3494 125.31 94.809 122.631 94.5058C119.188 94.1157 115.445 94.2263 111.818 94.2285L91.7947 94.2428L80.0385 94.2133C76.141 94.1988 73.6036 93.5653 70.2426 95.8094C69.4485 97.4117 69.0108 98.3925 68.4064 100.071C68.614 100.673 68.8221 101.281 69.0864 101.861C69.6749 103.151 70.6408 104.346 71.9908 104.883C74.8861 106.033 91.1334 105.388 95.3481 105.395C97.209 105.398 99.7299 105.111 101.468 105.808C102.078 106.053 102.595 106.467 102.852 107.09C103.347 108.289 102.999 109.444 102.357 110.498C100.768 113.108 98.1475 115.023 96.0179 117.167C92.1434 121.07 88.3189 125.076 84.3645 128.893C79.6129 133.481 73.6776 138.639 69.808 143.876C69.1851 144.719 68.8201 145.712 68.4457 146.682C70.4296 155.1 76.4365 151.67 82.6071 152.632C85.6136 153.1 85.1381 155.715 84.6589 157.934C80.5735 160.167 69.324 159.558 66.0373 155.719C57.1456 145.331 65.2682 138.759 72.6627 131.63C79.2497 125.28 85.6795 118.145 92.2827 111.842Z" fill="#74EBAF"/>
<path d="M184.087 62.1562C177.377 62.5447 170.474 62.223 163.745 62.2298C157.791 62.2358 151.611 62.6064 145.687 62.1637C144.145 62.0486 142.471 61.849 141.081 61.1393C138.469 59.8052 135.829 56.7342 134.992 53.9204C134.175 51.1719 134.443 47.4761 135.843 44.978C137.291 42.3953 139.887 39.9001 142.775 39.1172C145.283 38.4374 156.591 37.8749 158.634 39.1741C159.179 39.5207 159.445 40.1801 159.566 40.7911C159.723 41.585 159.723 42.7528 159.219 43.4278C157.654 45.5238 147.566 44.6634 144.674 44.9176C142.864 46.141 141.65 47.0946 141.196 49.4391C139.67 57.3271 150.377 55.6433 155.541 55.6374L179.357 55.6027C182.695 55.5987 189.655 55.4095 192.711 55.8909C193.211 56.3486 194.138 57.0869 194.558 57.516C197.304 60.3213 190.39 65.19 188.704 66.9205L171.25 84.5431C169.833 85.9594 168.364 87.1268 167.035 88.4997L166.613 87.8095L166.264 87.7436C165.326 88.7884 161.512 92.0078 161.39 92.8057C162.011 92.5339 162.2 92.3732 162.724 91.9771C162.86 92.4506 162.618 92.7749 162.411 93.3323L150.164 105.521C147.407 108.245 144.586 110.645 142.097 113.731C140.75 115.402 141.121 117.435 141.345 119.397C142.161 120.43 142.919 121.255 143.808 122.22C147.916 123.058 152.487 122.661 156.678 122.652C161.395 122.642 193.238 122.067 195.648 123.271C195.927 123.41 196.204 123.983 196.298 124.28C196.611 125.26 196.691 126.489 196.178 127.417C195.763 128.166 195.006 128.592 194.202 128.814C191.58 129.54 149.467 129.464 145.34 128.9C142.752 128.547 140.674 127.504 138.407 126.258C137.176 123.449 135.196 122.799 134.644 119.039C133.455 110.92 139.863 106.597 145.067 101.327L159.048 87.3624C164.116 82.3605 168.941 76.9225 174.26 72.1527C175.468 71.0694 176.517 69.5428 177.695 68.4334C179.964 66.2981 182.162 64.6637 184.087 62.1562Z" fill="#74EBAF"/>
<path d="M162.41 93.3324C162.617 92.775 162.859 92.4506 162.723 91.9771C162.199 92.3733 162.01 92.5339 161.389 92.8057C161.511 92.0079 165.326 88.7885 166.263 87.7437L166.612 87.8096L167.034 88.4997C166.494 89.4404 163.343 92.6011 162.41 93.3324Z" fill="#74EBAF"/>
<path d="M116.689 121.007C116.808 119.832 117.771 117.43 119.199 117.732L119.611 118.39C118.523 119.607 117.991 120.012 116.689 121.007Z" fill="#74EBAF"/>
<path d="M0 141.987C0.021864 141.945 0.0444362 141.904 0.0655921 141.861C0.432193 141.131 0.508487 140.357 0.809325 139.607C2.30821 135.875 4.49958 133.358 8.36207 132.025C9.47848 131.64 10.7159 131.482 11.8917 131.406C17.4366 131.045 23.1458 131.361 28.7066 131.366C33.5894 131.372 38.6569 131.034 43.5184 131.446C45.2246 131.591 47.0008 131.839 48.5473 132.61C51.2815 133.973 53.5718 136.363 54.5273 139.285C55.4823 142.205 55.441 145.679 54.0321 148.438C52.2297 151.968 43.8559 159.95 40.507 162.947C44.6137 162.649 47.5148 162.672 50.8584 165.434C59.2104 172.334 54.5372 186.121 43.7654 186.421C37.3072 186.565 30.624 186.602 24.1785 186.542C19.4764 186.499 13.7775 186.802 9.2386 186.208C5.47383 185.715 1.51555 181.636 0.699954 178.041C0.576266 177.496 0.309307 176.435 0 176.026V172.969C3.78081 163.304 9.26998 162.309 14.5705 155.121C12.6849 155.219 11.6385 155.495 9.71035 154.893C6.19959 153.807 2.75019 151.789 1.22469 148.276C0.710743 147.093 0.690759 145.698 0 144.574V141.987ZM9.43255 179.873C12.2473 180.462 22.2155 180.329 25.6047 180.261C31.4688 180.142 38.9573 180.54 44.6691 180.18C45.5056 179.885 46.2006 179.318 46.7954 178.684C49.7918 175.488 48.8777 172.258 45.9719 169.801C42.4088 169.105 36.2791 169.578 32.177 169.283C31.2543 168.236 29.7503 167.359 29.8371 165.804C30.0485 162.014 46.0707 150.215 48.1935 145.485C48.9698 143.754 48.3282 140.258 46.9738 138.891C46.3109 138.223 44.7434 138.086 43.8387 138.011C39.1669 137.625 34.169 137.997 29.4645 137.989C23.0893 137.978 16.5045 137.623 10.149 138.057C10.0736 138.062 9.99837 138.068 9.92318 138.075C8.6895 138.352 8.08785 138.937 7.4713 140.016C5.83822 142.875 6.89533 145.283 8.14544 147.769C9.79539 148.391 10.9746 148.483 12.1453 148.712C14.9631 149.264 23.9862 147.545 25.242 150.33C26.9651 154.153 16.7226 161.399 14.5508 164.194C13.506 165.538 12.2547 166.282 11.1722 167.565C6.91754 171.171 4.09573 175.215 9.43255 179.873Z" fill="#74EBAF"/>
<path d="M215.971 45.3683C212.51 44.4316 204.917 44.7496 201.085 44.752L179.971 44.7757C177.198 44.7782 173.296 45.2409 170.711 44.2484C169.994 43.9729 169.345 43.478 169.065 42.7406C168.767 41.9575 168.873 40.8538 169.209 40.0984C169.447 39.5625 169.891 39.2085 170.436 39.0211C173.327 38.0266 207.791 38.2312 212.659 38.5961C214.535 38.7368 216.947 39.0334 218.643 39.8903C222.17 41.6734 223.809 45.3462 225 48.8675V51.6114C224.11 53.1517 224.216 54.993 223.093 56.4817C220.094 60.4587 216.301 63.8223 212.689 67.2305C204.031 76.1294 195.155 84.8446 186.456 93.7216C184.261 95.9613 182.091 97.7206 179.874 100.282C178.416 101.967 176.453 102.917 174.793 105.23C178.131 104.584 181.323 104.796 184.699 104.926C194.2 105.292 203.783 104.765 213.263 105.208C218.655 105.459 222.509 108.15 224.137 113.382C224.46 114.397 224.576 115.324 225 116.294V117.738C224.607 118.532 224.374 120.003 224.014 120.983C223.141 123.347 221.676 125.008 220.147 126.974C219.179 127.194 218.331 127.688 217.372 127.989C213.62 129.167 211.258 129.526 207.478 128.6C200.675 122.172 213.03 122.943 216.007 122.022C217.474 119.929 218.124 119.322 218.646 116.847C217.978 114.305 217.354 112.443 214.492 111.942C211.112 111.351 207.567 111.562 204.132 111.565L181.31 111.583C177.513 111.586 168.272 111.892 165.156 111.013L163.989 108.51C164.227 107.912 164.511 106.851 164.706 106.201C166.565 105.25 173.791 97.3363 175.723 95.4315L204.237 66.9068C208.32 62.8069 212.573 58.8374 216.585 54.6579C219.81 51.2981 218.671 48.4621 215.971 45.3683Z" fill="#74EBAF"/>
</g>
<defs>
<clipPath id="clip0_103_11">
<rect width="225" height="225" fill="white"/>
</clipPath>
</defs>
</svg>
